{
.appVersion = "1075";
copyright = "Copyright 2017 Google Inc. All Rights Reserved.";
customParameters = (
{
name = licenseURL;
value = "http://scripts.sil.org/OFL";
},
{
name = vendorID;
value = GOOG;
},
{
name = trademark;
value = "Noto is a trademark of Google Inc.";
},
{
name = description;
value = "Designed by Monotype design team.";
},
{
name = fsType;
value = (
);
},
{
name = license;
value = "This Font Software is licensed under the SIL Open Font License, Version 1.1. This Font Software is distributed on an \"AS IS\" BASIS, WITHOUT WARRANTIES OR CONDITIONS OF ANY KIND, either express or implied. See the SIL Open Font License for the specific language, permissions and limitations governing your use of this Font Software.";
},
{
name = versionString;
value = "Version 2.001";
},
{
name = glyphOrder;
value = (
.notdef,
NULL,
CR,
space,
nbspace,
ZWJ,
ZWNJ,
dottedCircle,
candrabindu_chakma,
candrabindu_visarga,
candrabindu_iMatra,
candrabindu_iMatra_aMatra,
candrabindu_iiMatra,
candrabindu_iiMatra_aMatra,
anusvara_chakma,
anusvara_candrabindu,
anusvara_iMatra,
anusvara_iMatra_aMatra,
anusvara_iiMatra,
anusvara_iiMatra_aMatra,
visarga_chakma,
visarga_iMatra,
visarga_iMatra_aMatra,
visarga_iiMatra,
visarga_iiMatra_aMatra,
maayyaa_iMatra_aMatra,
maayyaa_iiMatra_aMatra,
aa_chakma,
i_chakma,
u_chakma,
e_chakma,
kaa_chakma,
khaa_chakma,
gaa_chakma,
ghaa_chakma,
ngaa_chakma,
caa_chakma,
chaa_chakma,
jaa_chakma,
jhaa_chakma,
nyaa_chakma,
ttaa_chakma,
tthaa_chakma,
ddaa_chakma,
ddhaa_chakma,
nnaa_chakma,
taa_chakma,
thaa_chakma,
daa_chakma,
dhaa_chakma,
naa_chakma,
paa_chakma,
phaa_chakma,
baa_chakma,
bhaa_chakma,
maa_chakma,
yyaa_chakma,
yaa_chakma,
raa_chakma,
laa_chakma,
waa_chakma,
saa_chakma,
haa_chakma,
aMatra_chakma,
iMatra_chakma,
iiMatra_chakma,
uMatra_chakma,
uuMatra_chakma,
eMatra_chakma,
doubleEMatra_chakma,
aiMatra_chakma,
aiMatra_chakma.short,
aiMatra_candrabindu,
aiMatra_candrabindu.short,
aiMatra_anusvara,
aiMatra_anusvara.short,
aiMatra_visarga,

glyphs = (
{
glyphname = .notdef;
lastChange = "2018-05-08 16:46:17 +0000";
layers = (
{
guideLines = (
{
position = "{-120, 417}";
showMeasurement = 1;
},
{
angle = 90;
position = "{215, 785}";
showMeasurement = 1;
}
);
layerId = "1D72C4DB-D20D-420D-B086-1F84B9DB7C9C";
paths = (
{
closed = 1;
nodes = (
"505 0 LINE",
"505 714 LINE",
"94 714 LINE",
"94 0 LINE"
);
},
{
closed = 1;
nodes = (
"145 663 LINE",
"454 663 LINE",
"454 51 LINE",
"145 51 LINE"
);
}
);
width = 600;
}
);
note = .notdef;
script = "";
category = Separator;
subCategory = Other;
},
{
glyphname = dottedCircle;
lastChange = "2018-05-08 16:47:12 +0000";
layers = (
{
layerId = "1D72C4DB-D20D-420D-B086-1F84B9DB7C9C";
paths = (
{
closed = 1;
nodes = (
"114 267 OFFCURVE",
"125 278 OFFCURVE",
"125 291 CURVE SMOOTH",
"125 304 OFFCURVE",
"114 315 OFFCURVE",
"101 315 CURVE SMOOTH",
"88 315 OFFCURVE",
"77 304 OFFCURVE",
"77 291 CURVE SMOOTH",
"77 278 OFFCURVE",
"88 267 OFFCURVE",
"101 267 CURVE SMOOTH"
);
},
{
closed = 1;
nodes = (
"140 368 OFFCURVE",
"151 379 OFFCURVE",
"151 392 CURVE SMOOTH",
"151 405 OFFCURVE",
"140 416 OFFCURVE",
"127 416 CURVE SMOOTH",
"114 416 OFFCURVE",
"103 405 OFFCURVE",
"103 392 CURVE SMOOTH",
"103 379 OFFCURVE",
"114 368 OFFCURVE",
"127 368 CURVE SMOOTH"
);
},
{
closed = 1;
nodes = (
"211 438 OFFCURVE",
"222 449 OFFCURVE",
"222 462 CURVE SMOOTH",
"222 475 OFFCURVE",
"211 486 OFFCURVE",
"198 486 CURVE SMOOTH",
"185 486 OFFCURVE",
"174 475 OFFCURVE",
"174 462 CURVE SMOOTH",
"174 449 OFFCURVE",
"185 438 OFFCURVE",
"198 438 CURVE SMOOTH"
);
},
{
closed = 1;
nodes = (
"308 462 OFFCURVE",
"319 473 OFFCURVE",
"319 486 CURVE SMOOTH",
"319 499 OFFCURVE",
"308 510 OFFCURVE",
"295 510 CURVE SMOOTH",
"282 510 OFFCURVE",
"271 499 OFFCURVE",
"271 486 CURVE SMOOTH",
"271 473 OFFCURVE",
"282 462 OFFCURVE",
"295 462 CURVE SMOOTH"
);
},
{
closed = 1;
nodes = (
"405 438 OFFCURVE",
"416 449 OFFCURVE",
"416 462 CURVE SMOOTH",
"416 475 OFFCURVE",
"405 486 OFFCURVE",
"392 486 CURVE SMOOTH",
"379 486 OFFCURVE",
"368 475 OFFCURVE",
"368 462 CURVE SMOOTH",
"368 449 OFFCURVE",
"379 438 OFFCURVE",
"392 438 CURVE SMOOTH"
);
},
{
closed = 1;
nodes = (
"475 366 OFFCURVE",
"486 377 OFFCURVE",
"486 390 CURVE SMOOTH",
"486 403 OFFCURVE",
"475 414 OFFCURVE",
"462 414 CURVE SMOOTH",
"449 414 OFFCURVE",
"438 403 OFFCURVE",
"438 390 CURVE SMOOTH",
"438 377 OFFCURVE",
"449 366 OFFCURVE",
"462 366 CURVE SMOOTH"
);
},
{
closed = 1;
nodes = (
"505 267 OFFCURVE",
"516 278 OFFCURVE",
"516 291 CURVE SMOOTH",
"516 304 OFFCURVE",
"505 315 OFFCURVE",
"492 315 CURVE SMOOTH",
"479 315 OFFCURVE",
"468 304 OFFCURVE",
"468 291 CURVE SMOOTH",
"468 278 OFFCURVE",
"479 267 OFFCURVE",
"492 267 CURVE SMOOTH"
);
},
{
closed = 1;
nodes = (
"477 173 OFFCURVE",
"488 184 OFFCURVE",
"488 197 CURVE SMOOTH",
"488 210 OFFCURVE",
"477 221 OFFCURVE",
"464 221 CURVE SMOOTH",
"451 221 OFFCURVE",
"440 210 OFFCURVE",
"440 197 CURVE SMOOTH",
"440 184 OFFCURVE",
"451 173 OFFCURVE",
"464 173 CURVE SMOOTH"
);
},
{
closed = 1;
nodes = (
"406 101 OFFCURVE",
"417 112 OFFCURVE",
"417 125 CURVE SMOOTH",
"417 138 OFFCURVE",
"406 149 OFFCURVE",
"393 149 CURVE SMOOTH",
"380 149 OFFCURVE",
"369 138 OFFCURVE",
"369 125 CURVE SMOOTH",
"369 112 OFFCURVE",
"380 101 OFFCURVE",
"393 101 CURVE SMOOTH"
);
},
{
closed = 1;
nodes = (
"308 73 OFFCURVE",
"319 84 OFFCURVE",
"319 97 CURVE SMOOTH",
"319 110 OFFCURVE",
"308 121 OFFCURVE",
"295 121 CURVE SMOOTH",
"282 121 OFFCURVE",
"271 110 OFFCURVE",
"271 97 CURVE SMOOTH",
"271 84 OFFCURVE",
"282 73 OFFCURVE",
"295 73 CURVE SMOOTH"
);
},
{
closed = 1;
nodes = (
"211 100 OFFCURVE",
"222 111 OFFCURVE",
"222 124 CURVE SMOOTH",
"222 137 OFFCURVE",
"211 148 OFFCURVE",
"198 148 CURVE SMOOTH",
"185 148 OFFCURVE",
"174 137 OFFCURVE",
"174 124 CURVE SMOOTH",
"174 111 OFFCURVE",
"185 100 OFFCURVE",
"198 100 CURVE SMOOTH"
);
},
{
closed = 1;
nodes = (
"138 172 OFFCURVE",
"149 183 OFFCURVE",
"149 196 CURVE SMOOTH",
"149 209 OFFCURVE",
"138 220 OFFCURVE",
"125 220 CURVE SMOOTH",
"112 220 OFFCURVE",
"101 209 OFFCURVE",
"101 196 CURVE SMOOTH",
"101 183 OFFCURVE",
"112 172 OFFCURVE",
"125 172 CURVE SMOOTH"
);
}
);
width = 600;
}
);
unicode = 25CC;
script = "";
category = Symbol;
subCategory = Geometry;
},
{
glyphname = candrabindu_chakma;
lastChange = "2018-05-08 16:46:49 +0000";
layers = (
{
components = (
{
name = anusvara_chakma;
transform = "{1, 0, 0, 1, -5, 6}";
}
);
layerId = "1D72C4DB-D20D-420D-B086-1F84B9DB7C9C";
paths = (
{
closed = 1;
nodes = (
"-446 1036 LINE",
"-446 916 OFFCURVE",
"-357 799 OFFCURVE",
"-219 799 CURVE SMOOTH",
"-81 799 OFFCURVE",
"3 916 OFFCURVE",
"3 1036 CURVE",
"-87 1036 LINE",
"-88 946 OFFCURVE",
"-139 872 OFFCURVE",
"-219 872 CURVE SMOOTH",
"-299 872 OFFCURVE",
"-356 946 OFFCURVE",
"-356 1036 CURVE"
);
}
);
width = 0;
}
);
unicode = 11100;
script = chakma;
category = Mark;
subCategory = Nonspacing;
},
{
glyphname = anusvara_chakma;
lastChange = "2018-05-08 16:46:49 +0000";
layers = (
{
layerId = "1D72C4DB-D20D-420D-B086-1F84B9DB7C9C";
paths = (
{
closed = 1;
nodes = (
"-173 915 OFFCURVE",
"-140 948 OFFCURVE",
"-140 990 CURVE SMOOTH",
"-140 1030 OFFCURVE",
"-173 1063 OFFCURVE",
"-214 1063 CURVE SMOOTH",
"-255 1063 OFFCURVE",
"-288 1030 OFFCURVE",
"-288 990 CURVE SMOOTH",
"-288 948 OFFCURVE",
"-255 915 OFFCURVE",
"-214 915 CURVE SMOOTH"
);
}
);
width = 0;
}
);
unicode = 11101;
script = chakma;
category = Mark;
subCategory = Nonspacing;
},
{
glyphname = aa_chakma;
lastChange = "2018-05-08 16:47:40 +0000";
layers = (
{
components = (
{
name = daa_chakma;
}
);
layerId = "1D72C4DB-D20D-420D-B086-1F84B9DB7C9C";
paths = (
{
closed = 1;
nodes = (
"854 -10 OFFCURVE",
"955 111 OFFCURVE",
"955 273 CURVE SMOOTH",
"955 431 OFFCURVE",
"854 550 OFFCURVE",
"705 550 CURVE SMOOTH",
"554 550 OFFCURVE",
"493 433 OFFCURVE",
"471 370 CURVE",
"546 301 LINE",
"557 388 OFFCURVE",
"610 483 OFFCURVE",
"707 483 CURVE SMOOTH",
"802 483 OFFCURVE",
"865 391 OFFCURVE",
"865 271 CURVE SMOOTH",
"865 151 OFFCURVE",
"800 57 OFFCURVE",
"705 57 CURVE SMOOTH",
"677 57 OFFCURVE",
"653 65 OFFCURVE",
"633 76 CURVE",
"582 22 LINE",
"608 7 OFFCURVE",
"646 -10 OFFCURVE",
"702 -10 CURVE SMOOTH"
);
}
);
width = 1015;
}
);
leftMetricsKey = daa_chakma;
rightMetricsKey = waa_chakma;
unicode = 11103;
script = latin;
category = Letter;
subCategory = Lowercase;
},
{
glyphname = i_chakma;
lastChange = "2018-05-08 16:47:40 +0000";
layers = (
{
layerId = "1D72C4DB-D20D-420D-B086-1F84B9DB7C9C";
paths = (
{
closed = 1;
nodes = (
"499 249 LINE",
"454 312 OFFCURVE",
"394 333 OFFCURVE",
"323 333 CURVE SMOOTH",
"203 333 OFFCURVE",
"117 268 OFFCURVE",
"117 174 CURVE SMOOTH",
"117 95 OFFCURVE",
"179 47 OFFCURVE",
"244 47 CURVE SMOOTH",
"350 47 OFFCURVE",
"412 174 OFFCURVE",
"412 289 CURVE SMOOTH",
"412 429 OFFCURVE",
"331 529 OFFCURVE",
"214 529 CURVE SMOOTH",
"143 529 OFFCURVE",
"75 492 OFFCURVE",
"22 431 CURVE",
"77 396 LINE",
"113 435 OFFCURVE",
"159 462 OFFCURVE",
"204 462 CURVE SMOOTH",
"270 462 OFFCURVE",
"325 405 OFFCURVE",
"325 283 CURVE SMOOTH",
"325 203 OFFCURVE",
"295 114 OFFCURVE",
"251 114 CURVE SMOOTH",
"227 114 OFFCURVE",
"207 140 OFFCURVE",
"207 174 CURVE SMOOTH",
"207 227 OFFCURVE",
"251 264 OFFCURVE",
"313 264 CURVE SMOOTH",
"390 264 OFFCURVE",
"492 207 OFFCURVE",
"492 34 CURVE SMOOTH",
"492 0 LINE",
"582 0 LINE",
"569 117 OFFCURVE",
"572 213 OFFCURVE",
"583 280 CURVE SMOOTH",
"600 379 OFFCURVE",
"641 441 OFFCURVE",
"693 506 CURVE",
"633 547 LINE",
"553 461 OFFCURVE",
"510 370 OFFCURVE",
"490 250 CURVE"
);
}
);
width = 733;
}
);
unicode = 11104;
script = latin;
category = Letter;
subCategory = Lowercase;
},
{
glyphname = u_chakma;
lastChange = "2018-05-08 16:47:40 +0000";
layers = (
{
layerId = "1D72C4DB-D20D-420D-B086-1F84B9DB7C9C";
paths = (
{
closed = 1;
nodes = (
"453 189 LINE",
"453 163 OFFCURVE",
"446 57 OFFCURVE",
"292 57 CURVE SMOOTH",
"197 57 OFFCURVE",
"150 95 OFFCURVE",
"150 142 CURVE SMOOTH",
"150 198 OFFCURVE",
"209 210 OFFCURVE",
"297 231 CURVE SMOOTH",
"412 258 OFFCURVE",
"523 294 OFFCURVE",
"523 409 CURVE SMOOTH",
"523 516 OFFCURVE",
"425 550 OFFCURVE",
"313 550 CURVE SMOOTH",
"159 550 OFFCURVE",
"62 468 OFFCURVE",
"62 337 CURVE",
"157 357 LINE",
"157 416 OFFCURVE",
"180 483 OFFCURVE",
"309 483 CURVE SMOOTH",
"391 483 OFFCURVE",
"433 458 OFFCURVE",
"433 399 CURVE SMOOTH",
"433 345 OFFCURVE",
"399 326 OFFCURVE",
"288 298 CURVE SMOOTH",
"164 267 OFFCURVE",
"60 241 OFFCURVE",
"60 137 CURVE SMOOTH",
"60 38 OFFCURVE",
"162 -10 OFFCURVE",
"286 -10 CURVE SMOOTH",
"489 -10 OFFCURVE",
"546 114 OFFCURVE",
"546 219 CURVE"
);
}
);
width = 606;
}
);
unicode = 11105;
script = latin;
category = Letter;
subCategory = Lowercase;
},
{
glyphname = e_chakma;
lastChange = "2018-05-08 16:47:40 +0000";
layers = (
{
layerId = "1D72C4DB-D20D-420D-B086-1F84B9DB7C9C";
paths = (
{
closed = 1;
nodes = (
"156 382 LINE",
"204 455 OFFCURVE",
"272 477 OFFCURVE",
"339 477 CURVE SMOOTH",
"462 477 OFFCURVE",
"527 394 OFFCURVE",
"527 296 CURVE SMOOTH",
"527 219 OFFCURVE",
"489 125 OFFCURVE",
"423 73 CURVE",
"425 67 LINE",
"448 112 OFFCURVE",
"454 149 OFFCURVE",
"454 176 CURVE SMOOTH",
"454 279 OFFCURVE",
"372 331 OFFCURVE",
"267 331 CURVE SMOOTH",
"142 331 OFFCURVE",
"60 259 OFFCURVE",
"60 167 CURVE SMOOTH",
"60 87 OFFCURVE",
"124 46 OFFCURVE",
"195 46 CURVE SMOOTH",
"285 46 OFFCURVE",
"325 114 OFFCURVE",
"325 169 CURVE SMOOTH",
"325 246 OFFCURVE",
"243 275 OFFCURVE",
"187 275 CURVE SMOOTH",
"159 275 OFFCURVE",
"132 269 OFFCURVE",
"103 254 CURVE",
"103 209 LINE",
"127 224 OFFCURVE",
"152 231 OFFCURVE",
"175 231 CURVE SMOOTH",
"212 231 OFFCURVE",
"243 213 OFFCURVE",
"243 170 CURVE SMOOTH",
"243 136 OFFCURVE",
"225 113 OFFCURVE",
"195 113 CURVE SMOOTH",
"167 113 OFFCURVE",
"150 133 OFFCURVE",
"150 169 CURVE SMOOTH",
"150 239 OFFCURVE",
"215 264 OFFCURVE",
"260 264 CURVE SMOOTH",
"331 264 OFFCURVE",
"368 204 OFFCURVE",
"368 144 CURVE SMOOTH",
"368 105 OFFCURVE",
"352 62 OFFCURVE",
"323 23 CURVE",
"403 -10 LINE",
"463 22 OFFCURVE",
"617 129 OFFCURVE",
"617 303 CURVE SMOOTH",
"617 439 OFFCURVE",
"523 545 OFFCURVE",
"359 545 CURVE SMOOTH",
"248 545 OFFCURVE",
"104 498 OFFCURVE",
"62 362 CURVE"
);
}
);
width = 677;
}
);
leftMetricsKey = waa_chakma;
rightMetricsKey = waa_chakma;
unicode = 11106;
script = latin;
category = Letter;
subCategory = Lowercase;
},
{
glyphname = kaa_chakma;
lastChange = "2018-05-08 16:47:40 +0000";
layers = (
{
layerId = "1D72C4DB-D20D-420D-B086-1F84B9DB7C9C";
paths = (
{
closed = 1;
nodes = (
"246 46 LINE",
"189 93 OFFCURVE",
"150 170 OFFCURVE",
"150 270 CURVE SMOOTH",
"150 394 OFFCURVE",
"208 476 OFFCURVE",
"296 476 CURVE SMOOTH",
"383 476 OFFCURVE",
"449 398 OFFCURVE",
"449 270 CURVE",
"539 270 LINE",
"539 396 OFFCURVE",
"605 476 OFFCURVE",
"692 476 CURVE SMOOTH",
"780 476 OFFCURVE",
"838 394 OFFCURVE",
"838 270 CURVE SMOOTH",
"838 170 OFFCURVE",
"799 93 OFFCURVE",
"742 46 CURVE",
"790 -10 LINE",
"863 48 OFFCURVE",
"928 159 OFFCURVE",
"928 279 CURVE SMOOTH",
"928 439 OFFCURVE",
"829 550 OFFCURVE",
"698 550 CURVE SMOOTH",
"601 550 OFFCURVE",
"522 490 OFFCURVE",
"484 375 CURVE",
"504 375 LINE",
"466 490 OFFCURVE",
"387 550 OFFCURVE",
"290 550 CURVE SMOOTH",
"160 550 OFFCURVE",
"60 434 OFFCURVE",
"60 274 CURVE SMOOTH",
"60 154 OFFCURVE",
"125 48 OFFCURVE",
"198 -10 CURVE"
);
}
);
width = 988;
}
);
unicode = 11107;
script = chakma;
category = Letter;
subCategory = Other;
},
{
glyphname = khaa_chakma;
lastChange = "2018-05-08 16:47:40 +0000";
layers = (
{
layerId = "1D72C4DB-D20D-420D-B086-1F84B9DB7C9C";
paths = (
{
closed = 1;
nodes = (
"636 441 OFFCURVE",
"511 550 OFFCURVE",
"349 550 CURVE SMOOTH",
"189 550 OFFCURVE",
"60 428 OFFCURVE",
"60 258 CURVE SMOOTH",
"60 143 OFFCURVE",
"125 38 OFFCURVE",
"198 -10 CURVE",
"246 46 LINE",
"189 93 OFFCURVE",
"150 167 OFFCURVE",
"150 256 CURVE SMOOTH",
"150 390 OFFCURVE",
"238 483 OFFCURVE",
"349 483 CURVE SMOOTH",
"458 483 OFFCURVE",
"546 398 OFFCURVE",
"546 255 CURVE SMOOTH",
"546 158 OFFCURVE",
"520 57 OFFCURVE",
"470 57 CURVE SMOOTH",
"445 57 OFFCURVE",
"428 82 OFFCURVE",
"428 112 CURVE SMOOTH",
"428 153 OFFCURVE",
"460 188 OFFCURVE",
"510 188 CURVE SMOOTH",
"542.907 188 OFFCURVE",
"576.607 172.667 OFFCURVE",
"604.575 154.913 CURVE",
"612.701 221.832 LINE",
"585.438 239.68 OFFCURVE",
"548.949 255 OFFCURVE",
"504 255 CURVE SMOOTH",
"419 255 OFFCURVE",
"350 198 OFFCURVE",
"350 117 CURVE SMOOTH",
"350 42 OFFCURVE",
"410 -10 OFFCURVE",
"473 -10 CURVE SMOOTH",
"572 -10 OFFCURVE",
"636 121 OFFCURVE",
"636 258 CURVE SMOOTH"
);
}
);
width = 696;
}
);
leftMetricsKey = waa_chakma;
rightMetricsKey = waa_chakma;
unicode = 11108;
script = chakma;
category = Letter;
subCategory = Other;
},
{
glyphname = gaa_chakma;
lastChange = "2018-05-08 16:47:40 +0000";
layers = (
{
layerId = "1D72C4DB-D20D-420D-B086-1F84B9DB7C9C";
paths = (
{
closed = 1;
nodes = (
"246 46 LINE",
"189 93 OFFCURVE",
"150 172 OFFCURVE",
"150 256 CURVE SMOOTH",
"150 390 OFFCURVE",
"239 483 OFFCURVE",
"359 483 CURVE SMOOTH",
"479 483 OFFCURVE",
"566 390 OFFCURVE",
"566 256 CURVE SMOOTH",
"566 172 OFFCURVE",
"527 93 OFFCURVE",
"470 46 CURVE",
"518 -10 LINE",
"591 38 OFFCURVE",
"656 148 OFFCURVE",
"656 258 CURVE SMOOTH",
"656 426 OFFCURVE",
"529 550 OFFCURVE",
"359 550 CURVE SMOOTH",
"189 550 OFFCURVE",
"60 428 OFFCURVE",
"60 258 CURVE SMOOTH",
"60 148 OFFCURVE",
"125 38 OFFCURVE",
"198 -10 CURVE"
);
}
);
width = 716;
}
);
leftMetricsKey = waa_chakma;
rightMetricsKey = waa_chakma;
unicode = 11109;
script = chakma;
category = Letter;
subCategory = Other;
},
{
glyphname = ghaa_chakma;
lastChange = "2018-05-08 16:47:40 +0000";
layers = (
{
layerId = "1D72C4DB-D20D-420D-B086-1F84B9DB7C9C";
paths = (
{
closed = 1;
nodes = (
"768 484 LINE",
"877 484 OFFCURVE",
"951 395 OFFCURVE",
"951 270 CURVE SMOOTH",
"951 151 OFFCURVE",
"879 57 OFFCURVE",
"772 57 CURVE SMOOTH",
"696 57 OFFCURVE",
"632 106 OFFCURVE",
"614 178 CURVE",
"528 153 LINE",
"563 56 OFFCURVE",
"644 -10 OFFCURVE",
"765 -10 CURVE SMOOTH",
"926 -10 OFFCURVE",
"1041 118 OFFCURVE",
"1041 279 CURVE SMOOTH",
"1041 442 OFFCURVE",
"929 551 OFFCURVE",
"768 551 CURVE"
);
},
{
closed = 1;
nodes = (
"79 447 LINE",
"102 455 OFFCURVE",
"122 459 OFFCURVE",
"141 459 CURVE SMOOTH",
"211 459 OFFCURVE",
"249 413 OFFCURVE",
"249 336 CURVE SMOOTH",
"249 216 OFFCURVE",
"152 152 OFFCURVE",
"77 125 CURVE",
"50 55 LINE",
"98 29 OFFCURVE",
"189 -9 OFFCURVE",
"298 -9 CURVE SMOOTH",
"491 -9 OFFCURVE",
"648 98 OFFCURVE",
"648 320 CURVE SMOOTH",
"648 376 OFFCURVE",
"635 456 OFFCURVE",
"568 520 CURVE",
"486 499 LINE",
"547 436 OFFCURVE",
"558 367 OFFCURVE",
"558 322 CURVE SMOOTH",
"558 149 OFFCURVE",
"436 58 OFFCURVE",
"296 58 CURVE SMOOTH",
"236 58 OFFCURVE",
"187 77 OFFCURVE",
"162 88 CURVE",
"166 82 LINE",
"264 143 OFFCURVE",
"339 223 OFFCURVE",
"339 344 CURVE SMOOTH",
"339 459 OFFCURVE",
"266 526 OFFCURVE",
"166 526 CURVE SMOOTH",
"139 526 OFFCURVE",
"110 521 OFFCURVE",
"79 510 CURVE"
);
}
);
width = 1101;
}
);
rightMetricsKey = waa_chakma;
unicode = 1110A;
script = chakma;
category = Letter;
subCategory = Other;
},
{
glyphname = ngaa_chakma;
lastChange = "2018-05-08 16:47:40 +0000";
layers = (
{
layerId = "1D72C4DB-D20D-420D-B086-1F84B9DB7C9C";
paths = (
{
closed = 1;
nodes = (
"480 167 LINE",
"451 109 OFFCURVE",
"385 57 OFFCURVE",
"297 57 CURVE SMOOTH",
"226 57 OFFCURVE",
"150 91 OFFCURVE",
"150 167 CURVE SMOOTH",
"150 223 OFFCURVE",
"195 251 OFFCURVE",
"268 251 CURVE SMOOTH",
"289 251 LINE",
"289 318 LINE",
"271 318 LINE SMOOTH",
"225 318 OFFCURVE",
"159 339 OFFCURVE",
"159 395 CURVE SMOOTH",
"159 453 OFFCURVE",
"232 483 OFFCURVE",
"304 483 CURVE SMOOTH",
"396 483 OFFCURVE",
"440 430 OFFCURVE",
"458 402 CURVE",
"513 445 LINE",
"476 498 OFFCURVE",
"415 550 OFFCURVE",
"296 550 CURVE SMOOTH",
"154 550 OFFCURVE",
"69 478 OFFCURVE",
"69 389 CURVE SMOOTH",
"69 345 OFFCURVE",
"90 304 OFFCURVE",
"147 277 CURVE",
"147 291 LINE",
"89 272 OFFCURVE",
"60 220 OFFCURVE",
"60 163 CURVE SMOOTH",
"60 66 OFFCURVE",
"148 -10 OFFCURVE",
"288 -10 CURVE SMOOTH",
"447 -10 OFFCURVE",
"521 82 OFFCURVE",
"554 156 CURVE"
);
}
);
width = 584;
}
);
unicode = 1110B;
script = chakma;
category = Letter;
subCategory = Other;
},
{
glyphname = caa_chakma;
lastChange = "2018-05-08 16:47:40 +0000";
layers = (
{
layerId = "1D72C4DB-D20D-420D-B086-1F84B9DB7C9C";
paths = (
{
closed = 1;
nodes = (
"89 447 LINE",
"112 455 OFFCURVE",
"132 459 OFFCURVE",
"151 459 CURVE SMOOTH",
"221 459 OFFCURVE",
"259 413 OFFCURVE",
"259 336 CURVE SMOOTH",
"259 216 OFFCURVE",
"162 152 OFFCURVE",
"87 125 CURVE",
"60 55 LINE",
"108 29 OFFCURVE",
"199 -9 OFFCURVE",
"308 -9 CURVE SMOOTH",
"496 -9 OFFCURVE",
"656 98 OFFCURVE",
"656 320 CURVE SMOOTH",
"656 406 OFFCURVE",
"632 486 OFFCURVE",
"570 550 CURVE",
"488 529 LINE",
"544 466 OFFCURVE",
"566 397 OFFCURVE",
"566 322 CURVE SMOOTH",
"566 149 OFFCURVE",
"441 58 OFFCURVE",
"306 58 CURVE SMOOTH",
"246 58 OFFCURVE",
"197 77 OFFCURVE",
"172 88 CURVE",
"176 82 LINE",
"274 143 OFFCURVE",
"349 223 OFFCURVE",
"349 344 CURVE SMOOTH",
"349 459 OFFCURVE",
"276 526 OFFCURVE",
"176 526 CURVE SMOOTH",
"149 526 OFFCURVE",
"120 521 OFFCURVE",
"89 510 CURVE"
);
}
);
width = 711;
}
);
unicode = 1110C;
script = chakma;
category = Letter;
subCategory = Other;
},
{
glyphname = chaa_chakma;
lastChange = "2018-05-08 16:47:40 +0000";
layers = (
{
layerId = "1D72C4DB-D20D-420D-B086-1F84B9DB7C9C";
paths = (
{
closed = 1;
nodes = (
"151 447 LINE",
"174 455 OFFCURVE",
"195 459 OFFCURVE",
"214 459 CURVE SMOOTH",
"284 459 OFFCURVE",
"331 402 OFFCURVE",
"331 313 CURVE SMOOTH",
"331 219 OFFCURVE",
"281 57 OFFCURVE",
"206 57 CURVE SMOOTH",
"178 57 OFFCURVE",
"150 81 OFFCURVE",
"150 117 CURVE SMOOTH",
"150 150 OFFCURVE",
"174 179 OFFCURVE",
"210 179 CURVE SMOOTH",
"301 179 OFFCURVE",
"305 -10 OFFCURVE",
"488 -10 CURVE SMOOTH",
"672 -10 OFFCURVE",
"739 183 OFFCURVE",
"739 313 CURVE SMOOTH",
"739 414 OFFCURVE",
"699 493 OFFCURVE",
"643 550 CURVE",
"562 529 LINE",
"617 467 OFFCURVE",
"649 392 OFFCURVE",
"649 302 CURVE SMOOTH",
"649 192 OFFCURVE",
"597 57 OFFCURVE",
"493 57 CURVE SMOOTH",
"369 57 OFFCURVE",
"355 246 OFFCURVE",
"201 246 CURVE SMOOTH",
"123 246 OFFCURVE",
"60 196 OFFCURVE",
"60 113 CURVE SMOOTH",
"60 25 OFFCURVE",
"132 -10 OFFCURVE",
"194 -10 CURVE SMOOTH",
"350 -10 OFFCURVE",
"421 197 OFFCURVE",
"421 315 CURVE SMOOTH",
"421 444 OFFCURVE",
"338 526 OFFCURVE",
"235 526 CURVE SMOOTH",
"210 526 OFFCURVE",
"182 521 OFFCURVE",
"151 510 CURVE"
);
}
);
width = 799;
}
);
unicode = 1110D;
script = chakma;
category = Letter;
subCategory = Other;
},
{
glyphname = jaa_chakma;
lastChange = "2018-05-08 16:47:40 +0000";
layers = (
{
layerId = "1D72C4DB-D20D-420D-B086-1F84B9DB7C9C";
paths = (
{
closed = 1;
nodes = (
"60 168 LINE",
"78 85 OFFCURVE",
"171 -10 OFFCURVE",
"330 -10 CURVE SMOOTH",
"485 -10 OFFCURVE",
"606 86 OFFCURVE",
"606 214 CURVE SMOOTH",
"606 295 OFFCURVE",
"552 364 OFFCURVE",
"465 364 CURVE SMOOTH",
"394 364 OFFCURVE",
"340 317 OFFCURVE",
"340 252 CURVE SMOOTH",
"340 183 OFFCURVE",
"399 147 OFFCURVE",
"450 147 CURVE SMOOTH",
"542 147 OFFCURVE",
"602 264 OFFCURVE",
"602 347 CURVE SMOOTH",
"602 492 OFFCURVE",
"450 550 OFFCURVE",
"340 550 CURVE SMOOTH",
"202 550 OFFCURVE",
"70 483 OFFCURVE",
"70 375 CURVE SMOOTH",
"70 300 OFFCURVE",
"134 254 OFFCURVE",
"203 254 CURVE SMOOTH",
"287 254 OFFCURVE",
"338 320 OFFCURVE",
"338 378 CURVE SMOOTH",
"338 431 OFFCURVE",
"296 480 OFFCURVE",
"225 480 CURVE SMOOTH",
"182.258 480 OFFCURVE",
"146.58 462.611 OFFCURVE",
"117.116 441.854 CURVE",
"110.604 401.855 LINE",
"137.071 418.775 OFFCURVE",
"169.141 431 OFFCURVE",
"202 431 CURVE SMOOTH",
"242 431 OFFCURVE",
"268 413 OFFCURVE",
"268 377 CURVE SMOOTH",
"268 342 OFFCURVE",
"242 321 OFFCURVE",
"213 321 CURVE SMOOTH",
"183 321 OFFCURVE",
"156 342 OFFCURVE",
"156 376 CURVE SMOOTH",
"156 433 OFFCURVE",
"235 483 OFFCURVE",
"331 483 CURVE SMOOTH",
"411 483 OFFCURVE",
"512 426 OFFCURVE",
"512 287 CURVE SMOOTH",
"512 253 OFFCURVE",
"504 207 OFFCURVE",
"457 207 CURVE SMOOTH",
"428 207 OFFCURVE",
"408 224 OFFCURVE",
"408 253 CURVE SMOOTH",
"408 285 OFFCURVE",
"433 303 OFFCURVE",
"463 303 CURVE SMOOTH",
"506 303 OFFCURVE",
"516 265 OFFCURVE",
"516 228 CURVE SMOOTH",
"516 107 OFFCURVE",
"414 57 OFFCURVE",
"324 57 CURVE SMOOTH",
"203 57 OFFCURVE",
"159 135 OFFCURVE",
"145 168 CURVE"
);
}
);
width = 656;
}
);
unicode = 1110E;
script = chakma;
category = Letter;
subCategory = Other;
},
{
glyphname = jhaa_chakma;
lastChange = "2018-05-08 16:47:40 +0000";
layers = (
{
layerId = "1D72C4DB-D20D-420D-B086-1F84B9DB7C9C";
paths = (
{
closed = 1;
nodes = (
"419 444 LINE",
"442 409 OFFCURVE",
"500 338 OFFCURVE",
"595 338 CURVE SMOOTH",
"715 338 OFFCURVE",
"784 447 OFFCURVE",
"790 530 CURVE",
"704 507 LINE",
"689 456 OFFCURVE",
"657 411 OFFCURVE",
"606 411 CURVE SMOOTH",
"549 411 OFFCURVE",
"506 467 OFFCURVE",
"484 507 CURVE"
);
},
{
closed = 1;
nodes = (
"646 351 LINE",
"556 351 LINE",
"556 322 LINE SMOOTH",
"556 149 OFFCURVE",
"436 58 OFFCURVE",
"306 58 CURVE SMOOTH",
"246 58 OFFCURVE",
"197 77 OFFCURVE",
"172 88 CURVE",
"176 82 LINE",
"274 143 OFFCURVE",
"349 223 OFFCURVE",
"349 332 CURVE SMOOTH",
"349 439 OFFCURVE",
"276 511 OFFCURVE",
"176 511 CURVE SMOOTH",
"149 511 OFFCURVE",
"120 506 OFFCURVE",
"89 495 CURVE",
"89 433 LINE",
"112 441 OFFCURVE",
"136 445 OFFCURVE",
"155 445 CURVE SMOOTH",
"226 445 OFFCURVE",
"259 393 OFFCURVE",
"259 324 CURVE SMOOTH",
"259 216 OFFCURVE",
"182 174 OFFCURVE",
"87 125 CURVE",
"60 55 LINE",
"105 32 OFFCURVE",
"199 -9 OFFCURVE",
"308 -9 CURVE SMOOTH",
"491 -9 OFFCURVE",
"646 98 OFFCURVE",
"646 320 CURVE SMOOTH"
);
}
);
width = 800;
}
);
unicode = 1110F;
script = chakma;
category = Letter;
subCategory = Other;
},
{
glyphname = nyaa_chakma;
lastChange = "2018-05-08 16:47:40 +0000";
layers = (
{
layerId = "1D72C4DB-D20D-420D-B086-1F84B9DB7C9C";
paths = (
{
closed = 1;
nodes = (
"415 141 LINE",
"407 119 OFFCURVE",
"377 57 OFFCURVE",
"289 57 CURVE SMOOTH",
"234 57 OFFCURVE",
"179 82 OFFCURVE",
"179 145 CURVE SMOOTH",
"179 278 OFFCURVE",
"424 283 OFFCURVE",
"424 436 CURVE SMOOTH",
"424 519 OFFCURVE",
"352 550 OFFCURVE",
"279 550 CURVE SMOOTH",
"168 550 OFFCURVE",
"79 476 OFFCURVE",
"70 377 CURVE",
"158 393 LINE",
"169 438 OFFCURVE",
"219 483 OFFCURVE",
"270 483 CURVE SMOOTH",
"300 483 OFFCURVE",
"334 469 OFFCURVE",
"334 433 CURVE SMOOTH",
"334 337 OFFCURVE",
"89 296 OFFCURVE",
"89 138 CURVE SMOOTH",
"89 36 OFFCURVE",
"190 -10 OFFCURVE",
"282 -10 CURVE SMOOTH",
"416 -10 OFFCURVE",
"490 82 OFFCURVE",
"505 171 CURVE"
);
},
{
closed = 1;
nodes = (
"549 491 LINE",
"578 473 OFFCURVE",
"598 441 OFFCURVE",
"598 406 CURVE SMOOTH",
"598 352 OFFCURVE",
"553 314 OFFCURVE",
"481 314 CURVE SMOOTH",
"411 314 OFFCURVE",
"384 351 OFFCURVE",
"372 372 CURVE",
"289 351 LINE",
"323 304 OFFCURVE",
"395 247 OFFCURVE",
"489 247 CURVE SMOOTH",
"600 247 OFFCURVE",
"688 319 OFFCURVE",
"688 415 CURVE SMOOTH",
"688 474 OFFCURVE",
"654 519 OFFCURVE",
"615 545 CURVE"
);
}
);
width = 756;
}
);
unicode = 11110;
script = chakma;
category = Letter;
subCategory = Other;
},
{
glyphname = ttaa_chakma;
lastChange = "2018-05-08 16:47:40 +0000";
layers = (
{
layerId = "1D72C4DB-D20D-420D-B086-1F84B9DB7C9C";
paths = (
{
closed = 1;
nodes = (
"221 450 LINE",
"330 450 OFFCURVE",
"430 405 OFFCURVE",
"430 267 CURVE SMOOTH",
"430 181 OFFCURVE",
"387 97 OFFCURVE",
"290 97 CURVE SMOOTH",
"198 97 OFFCURVE",
"150 168 OFFCURVE",
"150 264 CURVE SMOOTH",
"150 451 OFFCURVE",
"324 479 OFFCURVE",
"450 479 CURVE SMOOTH",
"585 479 OFFCURVE",
"697 459 OFFCURVE",
"814 399 CURVE",
"814 466 LINE",
"743 496 OFFCURVE",
"645 546 OFFCURVE",
"464 546 CURVE SMOOTH",
"259 546 OFFCURVE",
"60 485 OFFCURVE",
"60 264 CURVE SMOOTH",
"60 110 OFFCURVE",
"172 30 OFFCURVE",
"290 30 CURVE SMOOTH",
"433 30 OFFCURVE",
"520 151 OFFCURVE",
"520 270 CURVE SMOOTH",
"520 399 OFFCURVE",
"424 499 OFFCURVE",
"249 499 CURVE"
);
},
{
closed = 1;
nodes = (
"797 57 LINE",
"726 57 OFFCURVE",
"636 57 OFFCURVE",
"576 57 CURVE",
"584 53 LINE",
"636 105 OFFCURVE",
"764 229 OFFCURVE",
"787 256 CURVE",
"787 313 LINE",
"492 313 LINE",
"492 256 LINE",
"703 256 LINE",
"695 261 LINE",
"643 204 OFFCURVE",
"523 86 OFFCURVE",
"488 53 CURVE",
"488 0 LINE",
"797 0 LINE"
);
}
);
width = 874;
}
);
leftMetricsKey = waa_chakma;
unicode = 11111;
script = chakma;
category = Letter;
subCategory = Other;
},
{
glyphname = tthaa_chakma;
lastChange = "2018-05-08 16:47:40 +0000";
layers = (
{
layerId = "1D72C4DB-D20D-420D-B086-1F84B9DB7C9C";
paths = (
{
closed = 1;
nodes = (
"221 450 LINE",
"330 450 OFFCURVE",
"430 405 OFFCURVE",
"430 267 CURVE SMOOTH",
"430 181 OFFCURVE",
"387 97 OFFCURVE",
"290 97 CURVE SMOOTH",
"198 97 OFFCURVE",
"150 168 OFFCURVE",
"150 264 CURVE SMOOTH",
"150 451 OFFCURVE",
"324 479 OFFCURVE",
"450 479 CURVE SMOOTH",
"585 479 OFFCURVE",
"697 459 OFFCURVE",
"814 399 CURVE",
"814 466 LINE",
"743 496 OFFCURVE",
"645 546 OFFCURVE",
"464 546 CURVE SMOOTH",
"259 546 OFFCURVE",
"60 485 OFFCURVE",
"60 264 CURVE SMOOTH",
"60 110 OFFCURVE",
"172 30 OFFCURVE",
"290 30 CURVE SMOOTH",
"433 30 OFFCURVE",
"520 151 OFFCURVE",
"520 270 CURVE SMOOTH",
"520 399 OFFCURVE",
"424 499 OFFCURVE",
"249 499 CURVE"
);
},
{
closed = 1;
nodes = (
"815 162 LINE",
"773 196 OFFCURVE",
"723 221 OFFCURVE",
"666 221 CURVE SMOOTH",
"582 221 OFFCURVE",
"526 165 OFFCURVE",
"526 101 CURVE SMOOTH",
"526 37 OFFCURVE",
"581 -10 OFFCURVE",
"655 -10 CURVE SMOOTH",
"746 -10 OFFCURVE",
"820 61 OFFCURVE",
"820 161 CURVE SMOOTH",
"820 258 OFFCURVE",
"749 315 OFFCURVE",
"646 315 CURVE SMOOTH",
"497 315 LINE",
"497 248 LINE",
"625 248 LINE SMOOTH",
"704 248 OFFCURVE",
"732 207 OFFCURVE",
"732 146 CURVE SMOOTH",
"732 74 OFFCURVE",
"694 57 OFFCURVE",
"662 57 CURVE SMOOTH",
"627 57 OFFCURVE",
"612 78 OFFCURVE",
"612 102 CURVE SMOOTH",
"612 131 OFFCURVE",
"634 158 OFFCURVE",
"678 158 CURVE SMOOTH",
"712 158 OFFCURVE",
"745 142 OFFCURVE",
"773 120 CURVE"
);
}
);
width = 880;
}
);
leftMetricsKey = waa_chakma;
unicode = 11112;
script = chakma;
category = Letter;
subCategory = Other;
},
{
glyphname = ddaa_chakma;
lastChange = "2018-05-08 16:47:40 +0000";
layers = (
{
layerId = "1D72C4DB-D20D-420D-B086-1F84B9DB7C9C";
paths = (
{
closed = 1;
nodes = (
"541 67 LINE",
"190 67 LINE",
"192 38 LINE",
"372 163 OFFCURVE",
"528 294 OFFCURVE",
"528 418 CURVE SMOOTH",
"528 512 OFFCURVE",
"437 549 OFFCURVE",
"338 549 CURVE SMOOTH",
"158 549 OFFCURVE",
"87 437 OFFCURVE",
"86 346 CURVE",
"176 366 LINE",
"172 430 OFFCURVE",
"225 483 OFFCURVE",
"330 483 CURVE SMOOTH",
"387 483 OFFCURVE",
"438 467 OFFCURVE",
"438 413 CURVE SMOOTH",
"438 299 OFFCURVE",
"204 90 OFFCURVE",
"60 67 CURVE",
"60 0 LINE",
"541 0 LINE"
);
}
);
width = 601;
}
);
unicode = 11113;
script = chakma;
category = Letter;
subCategory = Other;
},
{
glyphname = ddhaa_chakma;
lastChange = "2018-05-08 16:47:40 +0000";
layers = (
{
layerId = "1D72C4DB-D20D-420D-B086-1F84B9DB7C9C";
paths = (
{
closed = 1;
nodes = (
"239 57 OFFCURVE",
"194 76 OFFCURVE",
"172 87 CURVE",
"176 81 LINE",
"274 142 OFFCURVE",
"349 225 OFFCURVE",
"349 344 CURVE SMOOTH",
"349 461 OFFCURVE",
"276 525 OFFCURVE",
"176 525 CURVE SMOOTH",
"149 525 OFFCURVE",
"119 520 OFFCURVE",
"89 509 CURVE",
"89 452 LINE",
"112 460 OFFCURVE",
"136 464 OFFCURVE",
"154 464 CURVE SMOOTH",
"225 464 OFFCURVE",
"259 414 OFFCURVE",
"259 334 CURVE SMOOTH",
"259 217 OFFCURVE",
"182 173 OFFCURVE",
"87 124 CURVE",
"60 54 LINE",
"105 31 OFFCURVE",
"199 -10 OFFCURVE",
"315 -10 CURVE SMOOTH",
"563 -10 OFFCURVE",
"715 170 OFFCURVE",
"715 385 CURVE SMOOTH",
"715 508 OFFCURVE",
"649 550 OFFCURVE",
"573 550 CURVE SMOOTH",
"488 550 OFFCURVE",
"432 498 OFFCURVE",
"432 429 CURVE SMOOTH",
"432 351 OFFCURVE",
"498 323 OFFCURVE",
"551 323 CURVE SMOOTH",
"602.866 323 OFFCURVE",
"645.913 350.561 OFFCURVE",
"680.928 385.914 CURVE",
"663.046 434.531 LINE",
"631.302 408.305 OFFCURVE",
"598.261 390 OFFCURVE",
"567 390 CURVE SMOOTH",
"543 390 OFFCURVE",
"516 401 OFFCURVE",
"516 433 CURVE SMOOTH",
"516 462 OFFCURVE",
"538 483 OFFCURVE",
"570 483 CURVE SMOOTH",
"601 483 OFFCURVE",
"625 464 OFFCURVE",
"625 388 CURVE SMOOTH",
"625 190 OFFCURVE",
"472 57 OFFCURVE",
"304 57 CURVE SMOOTH"
);
}
);
width = 775;
}
);
unicode = 11114;
script = chakma;
category = Letter;
subCategory = Other;
},
{
glyphname = nnaa_chakma;
lastChange = "2018-05-08 16:47:40 +0000";
layers = (
{
layerId = "1D72C4DB-D20D-420D-B086-1F84B9DB7C9C";
paths = (
{
closed = 1;
nodes = (
"794 -10 LINE",
"883 62 OFFCURVE",
"952 169 OFFCURVE",
"952 296 CURVE SMOOTH",
"952 469 OFFCURVE",
"847 550 OFFCURVE",
"729 550 CURVE SMOOTH",
"637 550 OFFCURVE",
"549 501 OFFCURVE",
"549 387 CURVE SMOOTH",
"549 329 OFFCURVE",
"572 298 OFFCURVE",
"572 245 CURVE SMOOTH",
"572 192 OFFCURVE",
"549 168 OFFCURVE",
"506 168 CURVE SMOOTH",
"461 168 OFFCURVE",
"440 194 OFFCURVE",
"440 245 CURVE SMOOTH",
"440 300 OFFCURVE",
"463 327 OFFCURVE",
"463 387 CURVE SMOOTH",
"463 501 OFFCURVE",
"381 550 OFFCURVE",
"289 550 CURVE SMOOTH",
"171 550 OFFCURVE",
"60 469 OFFCURVE",
"60 296 CURVE SMOOTH",
"60 169 OFFCURVE",
"126 62 OFFCURVE",
"215 -10 CURVE",
"263 46 LINE",
"200 98 OFFCURVE",
"150 181 OFFCURVE",
"150 288 CURVE SMOOTH",
"150 414 OFFCURVE",
"212 483 OFFCURVE",
"286 483 CURVE SMOOTH",
"338 483 OFFCURVE",
"376 450 OFFCURVE",
"376 378 CURVE SMOOTH",
"376 322 OFFCURVE",
"352 284 OFFCURVE",
"352 236 CURVE SMOOTH",
"352 146 OFFCURVE",
"430 101 OFFCURVE",
"506 101 CURVE SMOOTH",
"586 101 OFFCURVE",
"660 149 OFFCURVE",
"660 236 CURVE SMOOTH",
"660 287 OFFCURVE",
"636 320 OFFCURVE",
"636 378 CURVE SMOOTH",
"636 448 OFFCURVE",
"674 483 OFFCURVE",
"726 483 CURVE SMOOTH",
"800 483 OFFCURVE",
"862 414 OFFCURVE",
"862 288 CURVE SMOOTH",
"862 181 OFFCURVE",
"809 98 OFFCURVE",
"746 46 CURVE"
);
}
);
width = 1012;
}
);
leftMetricsKey = kaa_chakma;
rightMetricsKey = kaa_chakma;
unicode = 11115;
script = chakma;
category = Letter;
subCategory = Other;
},
{
glyphname = taa_chakma;
lastChange = "2018-05-08 16:47:40 +0000";
layers = (
{
components = (
{
name = waa_chakma;
}
);
layerId = "1D72C4DB-D20D-420D-B086-1F84B9DB7C9C";
paths = (
{
closed = 1;
nodes = (
"884 -10 OFFCURVE",
"985 111 OFFCURVE",
"985 273 CURVE SMOOTH",
"985 431 OFFCURVE",
"884 550 OFFCURVE",
"735 550 CURVE SMOOTH",
"584 550 OFFCURVE",
"523 433 OFFCURVE",
"501 370 CURVE",
"576 301 LINE",
"587 388 OFFCURVE",
"640 483 OFFCURVE",
"737 483 CURVE SMOOTH",
"832 483 OFFCURVE",
"895 391 OFFCURVE",
"895 271 CURVE SMOOTH",
"895 151 OFFCURVE",
"830 57 OFFCURVE",
"735 57 CURVE SMOOTH",
"707 57 OFFCURVE",
"683 65 OFFCURVE",
"663 76 CURVE",
"612 22 LINE",
"638 7 OFFCURVE",
"676 -10 OFFCURVE",
"732 -10 CURVE SMOOTH"
);
}
);
width = 1045;
}
);
leftMetricsKey = waa_chakma;
rightMetricsKey = waa_chakma;
unicode = 11116;
script = chakma;
category = Letter;
subCategory = Other;
},
{
glyphname = thaa_chakma;
lastChange = "2018-05-08 16:47:40 +0000";
layers = (
{
layerId = "1D72C4DB-D20D-420D-B086-1F84B9DB7C9C";
paths = (
{
closed = 1;
nodes = (
"157 550 OFFCURVE",
"60 431 OFFCURVE",
"60 271 CURVE SMOOTH",
"60 111 OFFCURVE",
"157 -10 OFFCURVE",
"317 -10 CURVE SMOOTH",
"477 -10 OFFCURVE",
"578 111 OFFCURVE",
"578 271 CURVE SMOOTH",
"578 431 OFFCURVE",
"477 550 OFFCURVE",
"317 550 CURVE SMOOTH"
);
},
{
closed = 1;
nodes = (
"211 57 OFFCURVE",
"150 151 OFFCURVE",
"150 271 CURVE SMOOTH",
"150 391 OFFCURVE",
"211 483 OFFCURVE",
"317 483 CURVE SMOOTH",
"423 483 OFFCURVE",
"488 391 OFFCURVE",
"488 271 CURVE SMOOTH",
"488 151 OFFCURVE",
"423 57 OFFCURVE",
"317 57 CURVE SMOOTH"
);
},
{
closed = 1;
nodes = (
"585 550 OFFCURVE",
"488 431 OFFCURVE",
"488 271 CURVE SMOOTH",
"488 111 OFFCURVE",
"585 -10 OFFCURVE",
"745 -10 CURVE SMOOTH",
"905 -10 OFFCURVE",
"1006 111 OFFCURVE",
"1006 271 CURVE SMOOTH",
"1006 431 OFFCURVE",
"905 550 OFFCURVE",
"745 550 CURVE SMOOTH"
);
},
{
closed = 1;
nodes = (
"639 57 OFFCURVE",
"578 151 OFFCURVE",
"578 271 CURVE SMOOTH",
"578 391 OFFCURVE",
"639 483 OFFCURVE",
"745 483 CURVE SMOOTH",
"851 483 OFFCURVE",
"916 391 OFFCURVE",
"916 271 CURVE SMOOTH",
"916 151 OFFCURVE",
"851 57 OFFCURVE",
"745 57 CURVE SMOOTH"
);
}
);
width = 1066;
}
);
leftMetricsKey = waa_chakma;
rightMetricsKey = waa_chakma;
unicode = 11117;
script = chakma;
category = Letter;
subCategory = Other;
},
{
glyphname = daa_chakma;
lastChange = "2018-05-08 16:47:40 +0000";
layers = (
{
layerId = "1D72C4DB-D20D-420D-B086-1F84B9DB7C9C";
paths = (
{
closed = 1;
nodes = (
"447 -10 OFFCURVE",
"553 108 OFFCURVE",
"553 269 CURVE SMOOTH",
"553 432 OFFCURVE",
"451 551 OFFCURVE",
"290 551 CURVE SMOOTH",
"174 551 OFFCURVE",
"81 482 OFFCURVE",
"50 375 CURVE",
"136 361 LINE",
"152 422 OFFCURVE",
"203 484 OFFCURVE",
"289 484 CURVE SMOOTH",
"398 484 OFFCURVE",
"463 395 OFFCURVE",
"463 270 CURVE SMOOTH",
"463 151 OFFCURVE",
"396 57 OFFCURVE",
"288 57 CURVE SMOOTH",
"213 57 OFFCURVE",
"161 105 OFFCURVE",
"136 178 CURVE",
"50 153 LINE",
"85 56 OFFCURVE",
"165 -10 OFFCURVE",
"286 -10 CURVE SMOOTH"
);
}
);
width = 613;
}
);
rightMetricsKey = waa_chakma;
unicode = 11118;
script = chakma;
category = Letter;
subCategory = Other;
},
{
glyphname = dhaa_chakma;
lastChange = "2018-05-08 16:47:40 +0000";
layers = (
{
layerId = "1D72C4DB-D20D-420D-B086-1F84B9DB7C9C";
paths = (
{
closed = 1;
nodes = (
"178 550 OFFCURVE",
"60 440 OFFCURVE",
"60 260 CURVE SMOOTH",
"60 140 OFFCURVE",
"111 35 OFFCURVE",
"193 -10 CURVE",
"231 36 OFFCURVE",
"272 77 OFFCURVE",
"342 77 CURVE SMOOTH",
"412 77 OFFCURVE",
"459 36 OFFCURVE",
"497 -10 CURVE",
"575 36 OFFCURVE",
"623 138 OFFCURVE",
"623 260 CURVE SMOOTH",
"623 440 OFFCURVE",
"506 550 OFFCURVE",
"342 550 CURVE SMOOTH"
);
},
{
closed = 1;
nodes = (
"507 76 LINE",
"478 102 OFFCURVE",
"422 144 OFFCURVE",
"342 144 CURVE SMOOTH",
"262 144 OFFCURVE",
"205 102 OFFCURVE",
"179 76 CURVE",
"196 70 LINE",
"170 110 OFFCURVE",
"150 187 OFFCURVE",
"150 258 CURVE SMOOTH",
"150 400 OFFCURVE",
"227 483 OFFCURVE",
"342 483 CURVE SMOOTH",
"457 483 OFFCURVE",
"533 400 OFFCURVE",
"533 258 CURVE SMOOTH",
"533 189 OFFCURVE",
"513 109 OFFCURVE",
"490 70 CURVE"
);
}
);
width = 683;
}
);
leftMetricsKey = waa_chakma;
rightMetricsKey = waa_chakma;
unicode = 11119;
script = chakma;
category = Letter;
subCategory = Other;
},
{
glyphname = naa_chakma;
lastChange = "2018-05-08 16:47:40 +0000";
layers = (
{
layerId = "1D72C4DB-D20D-420D-B086-1F84B9DB7C9C";
paths = (
{
closed = 1;
nodes = (
"793 -10 LINE",
"882 62 OFFCURVE",
"941 169 OFFCURVE",
"941 296 CURVE SMOOTH",
"941 435 OFFCURVE",
"849 550 OFFCURVE",
"709 550 CURVE SMOOTH",
"569 550 OFFCURVE",
"473 434 OFFCURVE",
"473 232 CURVE SMOOTH",
"473 100 OFFCURVE",
"508 30 OFFCURVE",
"578 30 CURVE SMOOTH",
"652 30 OFFCURVE",
"737 111 OFFCURVE",
"737 214 CURVE SMOOTH",
"737 336 OFFCURVE",
"632 418 OFFCURVE",
"504 418 CURVE SMOOTH",
"376 418 OFFCURVE",
"274 335 OFFCURVE",
"274 211 CURVE SMOOTH",
"274 108 OFFCURVE",
"350 31 OFFCURVE",
"430 31 CURVE SMOOTH",
"500 31 OFFCURVE",
"537 89 OFFCURVE",
"537 231 CURVE SMOOTH",
"537 437 OFFCURVE",
"437 550 OFFCURVE",
"297 550 CURVE SMOOTH",
"157 550 OFFCURVE",
"60 445 OFFCURVE",
"60 296 CURVE SMOOTH",
"60 169 OFFCURVE",
"116 62 OFFCURVE",
"205 -10 CURVE",
"253 46 LINE",
"190 98 OFFCURVE",
"150 181 OFFCURVE",
"150 273 CURVE SMOOTH",
"150 393 OFFCURVE",
"217 483 OFFCURVE",
"300 483 CURVE SMOOTH",
"388 483 OFFCURVE",
"471 383 OFFCURVE",
"471 243 CURVE SMOOTH",
"471 167 OFFCURVE",
"449 107 OFFCURVE",
"432 98 CURVE",
"404 98 OFFCURVE",
"359 148 OFFCURVE",
"359 214 CURVE SMOOTH",
"359 292 OFFCURVE",
"422 351 OFFCURVE",
"504 351 CURVE SMOOTH",
"586 351 OFFCURVE",
"652 292 OFFCURVE",
"652 214 CURVE SMOOTH",
"652 151 OFFCURVE",
"609 97 OFFCURVE",
"583 97 CURVE",
"567 107 OFFCURVE",
"539 152 OFFCURVE",
"539 243 CURVE SMOOTH",
"539 383 OFFCURVE",
"620 483 OFFCURVE",
"708 483 CURVE SMOOTH",
"791 483 OFFCURVE",
"851 393 OFFCURVE",
"851 273 CURVE SMOOTH",
"851 181 OFFCURVE",
"808 98 OFFCURVE",
"745 46 CURVE"
);
}
);
width = 1001;
}
);
leftMetricsKey = kaa_chakma;
rightMetricsKey = kaa_chakma;
unicode = 1111A;
script = chakma;
category = Letter;
subCategory = Other;
},
{
glyphname = paa_chakma;
lastChange = "2018-05-08 16:47:40 +0000";
layers = (
{
layerId = "1D72C4DB-D20D-420D-B086-1F84B9DB7C9C";
paths = (
{
closed = 1;
nodes = (
"524 -10 OFFCURVE",
"643 108 OFFCURVE",
"643 278 CURVE SMOOTH",
"643 385 OFFCURVE",
"591 491 OFFCURVE",
"507 546 CURVE",
"452 503 LINE",
"514 456 OFFCURVE",
"553 370 OFFCURVE",
"553 280 CURVE SMOOTH",
"553 148 OFFCURVE",
"477 57 OFFCURVE",
"352 57 CURVE SMOOTH",
"227 57 OFFCURVE",
"150 147 OFFCURVE",
"150 280 CURVE SMOOTH",
"150 370 OFFCURVE",
"186 456 OFFCURVE",
"243 503 CURVE",
"188 546 LINE",
"109 490 OFFCURVE",
"60 388 OFFCURVE",
"60 278 CURVE SMOOTH",
"60 109 OFFCURVE",
"178 -10 OFFCURVE",
"352 -10 CURVE SMOOTH"
);
}
);
width = 703;
}
);
leftMetricsKey = waa_chakma;
rightMetricsKey = waa_chakma;
unicode = 1111B;
script = chakma;
category = Letter;
subCategory = Other;
},
{
glyphname = phaa_chakma;
lastChange = "2018-05-08 16:47:40 +0000";
layers = (
{
layerId = "1D72C4DB-D20D-420D-B086-1F84B9DB7C9C";
paths = (
{
closed = 1;
nodes = (
"548 406 OFFCURVE",
"517 380 OFFCURVE",
"479 380 CURVE SMOOTH",
"442 380 OFFCURVE",
"422 406 OFFCURVE",
"422 432 CURVE SMOOTH",
"422 461 OFFCURVE",
"445 483 OFFCURVE",
"478 483 CURVE SMOOTH",
"537 483 OFFCURVE",
"564 415 OFFCURVE",
"564 315 CURVE SMOOTH",
"564 152 OFFCURVE",
"481 57 OFFCURVE",
"358 57 CURVE SMOOTH",
"239 57 OFFCURVE",
"150 147 OFFCURVE",
"150 280 CURVE SMOOTH",
"150 370 OFFCURVE",
"186 456 OFFCURVE",
"243 503 CURVE",
"188 546 LINE",
"109 490 OFFCURVE",
"60 388 OFFCURVE",
"60 278 CURVE SMOOTH",
"60 109 OFFCURVE",
"188 -10 OFFCURVE",
"358 -10 CURVE SMOOTH",
"534 -10 OFFCURVE",
"654 117 OFFCURVE",
"654 305 CURVE SMOOTH",
"654 447 OFFCURVE",
"593 550 OFFCURVE",
"476 550 CURVE SMOOTH",
"395 550 OFFCURVE",
"338 500 OFFCURVE",
"338 428 CURVE SMOOTH",
"338 354 OFFCURVE",
"398 313 OFFCURVE",
"462 313 CURVE SMOOTH",
"523 313 OFFCURVE",
"574 349 OFFCURVE",
"609 386 CURVE",
"572 437 LINE"
);
}
);
width = 714;
}
);
leftMetricsKey = waa_chakma;
rightMetricsKey = waa_chakma;
unicode = 1111C;
script = chakma;
category = Letter;
subCategory = Other;
},
{
glyphname = baa_chakma;
lastChange = "2018-05-08 16:47:40 +0000";
layers = (
{
layerId = "1D72C4DB-D20D-420D-B086-1F84B9DB7C9C";
paths = (
{
closed = 1;
nodes = (
"456 497 OFFCURVE",
"406 464 OFFCURVE",
"342 464 CURVE SMOOTH",
"279 464 OFFCURVE",
"226 497 OFFCURVE",
"186 548 CURVE",
"108 502 OFFCURVE",
"60 408 OFFCURVE",
"60 288 CURVE SMOOTH",
"60 109 OFFCURVE",
"178 -10 OFFCURVE",
"345 -10 CURVE SMOOTH",
"510 -10 OFFCURVE",
"629 108 OFFCURVE",
"629 288 CURVE SMOOTH",
"629 406 OFFCURVE",
"574 502 OFFCURVE",
"496 548 CURVE"
);
},
{
closed = 1;
nodes = (
"227 57 OFFCURVE",
"150 147 OFFCURVE",
"150 280 CURVE SMOOTH",
"150 343 OFFCURVE",
"167 409 OFFCURVE",
"200 459 CURVE",
"182 448 LINE",
"224 420 OFFCURVE",
"274 397 OFFCURVE",
"342 397 CURVE SMOOTH",
"411 397 OFFCURVE",
"459 420 OFFCURVE",
"501 448 CURVE",
"485 459 LINE",
"518 409 OFFCURVE",
"539 345 OFFCURVE",
"539 280 CURVE SMOOTH",
"539 148 OFFCURVE",
"463 57 OFFCURVE",
"345 57 CURVE SMOOTH"
);
}
);
width = 689;
}
);
leftMetricsKey = waa_chakma;
rightMetricsKey = waa_chakma;
unicode = 1111D;
script = chakma;
category = Letter;
subCategory = Other;
},
{
glyphname = bhaa_chakma;
lastChange = "2018-05-08 16:47:40 +0000";
layers = (
{
background = {
backgroundImage = {
crop = "{{0, 0}, {75, 95}}";
imagePath = "../../../Users/scheurenz/Desktop/Screen Shot 2016-12-08 at 3.16.04 PM.png";
transform = "{16.9, 0, 0, 16.9, -117, -496}";
};
};
layerId = "1D72C4DB-D20D-420D-B086-1F84B9DB7C9C";
paths = (
{
closed = 1;
nodes = (
"804 307 LINE",
"845 327 OFFCURVE",
"896 371 OFFCURVE",
"896 432 CURVE SMOOTH",
"896 473 OFFCURVE",
"873 555 OFFCURVE",
"710 555 CURVE SMOOTH",
"635 555 OFFCURVE",
"543 538 OFFCURVE",
"448 477 CURVE",
"495 413 LINE",
"555 458 OFFCURVE",
"631 486 OFFCURVE",
"707 486 CURVE SMOOTH",
"782 486 OFFCURVE",
"806 458 OFFCURVE",
"806 431 CURVE SMOOTH",
"806 403 OFFCURVE",
"779 381 OFFCURVE",
"754 371 CURVE"
);
},
{
closed = 1;
nodes = (
"636 34 LINE",
"668 4 OFFCURVE",
"700 -10 OFFCURVE",
"737 -10 CURVE SMOOTH",
"820 -10 OFFCURVE",
"882 61 OFFCURVE",
"882 144 CURVE SMOOTH",
"882 226 OFFCURVE",
"824 288 OFFCURVE",
"695 288 CURVE SMOOTH",
"634 288 OFFCURVE",
"562 274 OFFCURVE",
"486 244 CURVE",
"473 177 LINE",
"538 204 OFFCURVE",
"613 221 OFFCURVE",
"673 221 CURVE SMOOTH",
"757 221 OFFCURVE",
"792 187 OFFCURVE",
"792 139 CURVE SMOOTH",
"792 99 OFFCURVE",
"767 57 OFFCURVE",
"731 57 CURVE SMOOTH",
"714 57 OFFCURVE",
"697 66 OFFCURVE",
"681 81 CURVE"
);
},
{
closed = 1;
nodes = (
"447 -10 OFFCURVE",
"553 108 OFFCURVE",
"553 269 CURVE SMOOTH",
"553 432 OFFCURVE",
"451 551 OFFCURVE",
"290 551 CURVE SMOOTH",
"174 551 OFFCURVE",
"81 482 OFFCURVE",
"50 375 CURVE",
"136 361 LINE",
"152 422 OFFCURVE",
"203 484 OFFCURVE",
"289 484 CURVE SMOOTH",
"398 484 OFFCURVE",
"463 395 OFFCURVE",
"463 270 CURVE SMOOTH",
"463 151 OFFCURVE",
"396 57 OFFCURVE",
"288 57 CURVE SMOOTH",
"213 57 OFFCURVE",
"161 105 OFFCURVE",
"136 178 CURVE",
"50 153 LINE",
"85 56 OFFCURVE",
"165 -10 OFFCURVE",
"286 -10 CURVE SMOOTH"
);
}
);
width = 956;
}
);
leftMetricsKey = daa_chakma;
unicode = 1111E;
script = chakma;
category = Letter;
subCategory = Other;
},
{
glyphname = maa_chakma;
lastChange = "2018-05-08 16:47:40 +0000";
layers = (
{
layerId = "1D72C4DB-D20D-420D-B086-1F84B9DB7C9C";
paths = (
{
closed = 1;
nodes = (
"532 489 LINE",
"596 444 OFFCURVE",
"659 359 OFFCURVE",
"659 251 CURVE SMOOTH",
"659 143 OFFCURVE",
"601 57 OFFCURVE",
"516 57 CURVE SMOOTH",
"431 57 OFFCURVE",
"362 151 OFFCURVE",
"362 233 CURVE SMOOTH",
"362 278 OFFCURVE",
"384 302 OFFCURVE",
"404 302 CURVE SMOOTH",
"424 302 OFFCURVE",
"447 278 OFFCURVE",
"447 233 CURVE SMOOTH",
"447 151 OFFCURVE",
"380 57 OFFCURVE",
"293 57 CURVE SMOOTH",
"208 57 OFFCURVE",
"150 143 OFFCURVE",
"150 251 CURVE SMOOTH",
"150 359 OFFCURVE",
"213 444 OFFCURVE",
"277 489 CURVE",
"229 545 LINE",
"132 485 OFFCURVE",
"60 367 OFFCURVE",
"60 251 CURVE SMOOTH",
"60 106 OFFCURVE",
"150 -10 OFFCURVE",
"274 -10 CURVE SMOOTH",
"407 -10 OFFCURVE",
"537 116 OFFCURVE",
"537 236 CURVE SMOOTH",
"537 312 OFFCURVE",
"479 369 OFFCURVE",
"404 369 CURVE SMOOTH",
"329 369 OFFCURVE",
"272 313 OFFCURVE",
"272 232 CURVE SMOOTH",
"272 108 OFFCURVE",
"391 -10 OFFCURVE",
"521 -10 CURVE SMOOTH",
"645 -10 OFFCURVE",
"749 106 OFFCURVE",
"749 251 CURVE SMOOTH",
"749 367 OFFCURVE",
"677 485 OFFCURVE",
"580 545 CURVE"
);
}
);
width = 809;
}
);
leftMetricsKey = yyaa_chakma;
rightMetricsKey = yyaa_chakma;
unicode = 1111F;
script = chakma;
category = Letter;
subCategory = Other;
},
{
glyphname = yyaa_chakma;
lastChange = "2018-05-08 16:47:40 +0000";
layers = (
{
layerId = "1D72C4DB-D20D-420D-B086-1F84B9DB7C9C";
paths = (
{
closed = 1;
nodes = (
"520 489 LINE",
"587 443 OFFCURVE",
"657 351 OFFCURVE",
"657 245 CURVE SMOOTH",
"657 157 OFFCURVE",
"610 57 OFFCURVE",
"526 57 CURVE SMOOTH",
"463 57 OFFCURVE",
"449 111 OFFCURVE",
"449 170 CURVE SMOOTH",
"449 214 LINE",
"359 214 LINE",
"359 170 LINE SMOOTH",
"359 111 OFFCURVE",
"335 57 OFFCURVE",
"274 57 CURVE SMOOTH",
"192 57 OFFCURVE",
"150 153 OFFCURVE",
"150 245 CURVE SMOOTH",
"150 359 OFFCURVE",
"223 447 OFFCURVE",
"287 489 CURVE",
"239 545 LINE",
"130 475 OFFCURVE",
"60 370 OFFCURVE",
"60 245 CURVE SMOOTH",
"60 99 OFFCURVE",
"152 -10 OFFCURVE",
"268 -10 CURVE SMOOTH",
"358 -10 OFFCURVE",
"419 53 OFFCURVE",
"439 93 CURVE",
"369 93 LINE",
"389 53 OFFCURVE",
"439 -10 OFFCURVE",
"528 -10 CURVE SMOOTH",
"644 -10 OFFCURVE",
"747 99 OFFCURVE",
"747 245 CURVE SMOOTH",
"747 370 OFFCURVE",
"665 485 OFFCURVE",
"568 545 CURVE"
);
}
);
width = 807;
}
);
leftMetricsKey = waa_chakma;
rightMetricsKey = waa_chakma;
unicode = 11120;
script = chakma;
category = Letter;
subCategory = Other;
},
{
glyphname = yaa_chakma;
lastChange = "2018-05-08 16:47:40 +0000";
layers = (
{
layerId = "1D72C4DB-D20D-420D-B086-1F84B9DB7C9C";
paths = (
{
closed = 1;
nodes = (
"433 220 LINE",
"464 264 OFFCURVE",
"514 288 OFFCURVE",
"562 288 CURVE SMOOTH",
"604 288 OFFCURVE",
"645 270 OFFCURVE",
"645 210 CURVE SMOOTH",
"645 154 OFFCURVE",
"608 83 OFFCURVE",
"543 38 CURVE",
"579 -18 LINE",
"652 33 OFFCURVE",
"733 139 OFFCURVE",
"733 228 CURVE SMOOTH",
"733 316 OFFCURVE",
"653 355 OFFCURVE",
"573 355 CURVE SMOOTH",
"502 355 OFFCURVE",
"432 325 OFFCURVE",
"379 286 CURVE"
);
},
{
closed = 1;
nodes = (
"568 440 LINE",
"526 514 OFFCURVE",
"457 550 OFFCURVE",
"362 550 CURVE SMOOTH",
"243 550 OFFCURVE",
"167 495 OFFCURVE",
"167 419 CURVE SMOOTH",
"167 353 OFFCURVE",
"223 319 OFFCURVE",
"294 269 CURVE SMOOTH",
"363 221 OFFCURVE",
"409 186 OFFCURVE",
"409 136 CURVE SMOOTH",
"409 91 OFFCURVE",
"373 57 OFFCURVE",
"306 57 CURVE SMOOTH",
"210 57 OFFCURVE",
"162 128 OFFCURVE",
"146 158 CURVE",
"64 158 LINE",
"100 64 OFFCURVE",
"195 -10 OFFCURVE",
"319 -10 CURVE SMOOTH",
"437 -10 OFFCURVE",
"499 64 OFFCURVE",
"499 138 CURVE SMOOTH",
"499 233 OFFCURVE",
"398 287 OFFCURVE",
"332 332 CURVE SMOOTH",
"272 373 OFFCURVE",
"257 397 OFFCURVE",
"257 420 CURVE SMOOTH",
"257 452 OFFCURVE",
"285 483 OFFCURVE",
"362 483 CURVE SMOOTH",
"433 483 OFFCURVE",
"470 456 OFFCURVE",
"498 421 CURVE"
);
}
);
width = 793;
}
);
unicode = 11121;
script = chakma;
category = Letter;
subCategory = Other;
},
{
glyphname = raa_chakma;
lastChange = "2018-05-08 16:47:40 +0000";
layers = (
{
layerId = "1D72C4DB-D20D-420D-B086-1F84B9DB7C9C";
paths = (
{
closed = 1;
nodes = (
"157 550 OFFCURVE",
"60 431 OFFCURVE",
"60 271 CURVE SMOOTH",
"60 111 OFFCURVE",
"157 -10 OFFCURVE",
"317 -10 CURVE SMOOTH",
"477 -10 OFFCURVE",
"578 111 OFFCURVE",
"578 271 CURVE SMOOTH",
"578 431 OFFCURVE",
"477 550 OFFCURVE",
"317 550 CURVE SMOOTH"
);
},
{
closed = 1;
nodes = (
"211 57 OFFCURVE",
"150 151 OFFCURVE",
"150 271 CURVE SMOOTH",
"150 391 OFFCURVE",
"211 483 OFFCURVE",
"317 483 CURVE SMOOTH",
"423 483 OFFCURVE",
"488 391 OFFCURVE",
"488 271 CURVE SMOOTH",
"488 151 OFFCURVE",
"423 57 OFFCURVE",
"317 57 CURVE SMOOTH"
);
},
{
closed = 1;
nodes = (
"847 307 LINE",
"888 327 OFFCURVE",
"939 371 OFFCURVE",
"939 432 CURVE SMOOTH",
"939 473 OFFCURVE",
"916 555 OFFCURVE",
"753 555 CURVE SMOOTH",
"678 555 OFFCURVE",
"586 538 OFFCURVE",
"491 477 CURVE",
"538 413 LINE",
"598 458 OFFCURVE",
"674 486 OFFCURVE",
"750 486 CURVE SMOOTH",
"825 486 OFFCURVE",
"849 458 OFFCURVE",
"849 431 CURVE SMOOTH",
"849 403 OFFCURVE",
"822 381 OFFCURVE",
"797 371 CURVE"
);
},
{
closed = 1;
nodes = (
"679 34 LINE",
"711 4 OFFCURVE",
"743 -10 OFFCURVE",
"780 -10 CURVE SMOOTH",
"863 -10 OFFCURVE",
"925 61 OFFCURVE",
"925 144 CURVE SMOOTH",
"925 226 OFFCURVE",
"867 288 OFFCURVE",
"738 288 CURVE SMOOTH",
"677 288 OFFCURVE",
"605 274 OFFCURVE",
"529 244 CURVE",
"516 177 LINE",
"581 204 OFFCURVE",
"656 221 OFFCURVE",
"716 221 CURVE SMOOTH",
"800 221 OFFCURVE",
"835 187 OFFCURVE",
"835 139 CURVE SMOOTH",
"835 99 OFFCURVE",
"810 57 OFFCURVE",
"774 57 CURVE SMOOTH",
"757 57 OFFCURVE",
"740 66 OFFCURVE",
"724 81 CURVE"
);
}
);
width = 999;
}
);
leftMetricsKey = waa_chakma;
rightMetricsKey = bhaa_chakma;
unicode = 11122;
script = chakma;
category = Letter;
subCategory = Other;
},
{
glyphname = laa_chakma;
lastChange = "2018-05-08 16:47:40 +0000";
layers = (
{
layerId = "1D72C4DB-D20D-420D-B086-1F84B9DB7C9C";
paths = (
{
closed = 1;
nodes = (
"336 60 LINE",
"245 85 OFFCURVE",
"150 140 OFFCURVE",
"150 280 CURVE SMOOTH",
"150 390 OFFCURVE",
"214 483 OFFCURVE",
"303 483 CURVE SMOOTH",
"408 483 OFFCURVE",
"440 356 OFFCURVE",
"476 246 CURVE SMOOTH",
"524 98 OFFCURVE",
"593 -10 OFFCURVE",
"731 -10 CURVE SMOOTH",
"879 -10 OFFCURVE",
"970 119 OFFCURVE",
"970 272 CURVE SMOOTH",
"970 432 OFFCURVE",
"859 527 OFFCURVE",
"730 550 CURVE",
"698 479 LINE",
"789 459 OFFCURVE",
"880 388 OFFCURVE",
"880 259 CURVE SMOOTH",
"880 169 OFFCURVE",
"836 57 OFFCURVE",
"732 57 CURVE SMOOTH",
"637 57 OFFCURVE",
"598 150 OFFCURVE",
"554 300 CURVE SMOOTH",
"526 394 OFFCURVE",
"479 550 OFFCURVE",
"307 550 CURVE SMOOTH",
"150 550 OFFCURVE",
"60 434 OFFCURVE",
"60 282 CURVE SMOOTH",
"60 121 OFFCURVE",
"192 17 OFFCURVE",
"304 -10 CURVE"
);
}
);
width = 1030;
}
);
leftMetricsKey = waa_chakma;
rightMetricsKey = waa_chakma;
unicode = 11123;
script = chakma;
category = Letter;
subCategory = Other;
},
{
glyphname = waa_chakma;
lastChange = "2018-05-08 16:47:40 +0000";
layers = (
{
layerId = "1D72C4DB-D20D-420D-B086-1F84B9DB7C9C";
paths = (
{
closed = 1;
nodes = (
"157 550 OFFCURVE",
"60 431 OFFCURVE",
"60 271 CURVE SMOOTH",
"60 111 OFFCURVE",
"157 -10 OFFCURVE",
"317 -10 CURVE SMOOTH",
"477 -10 OFFCURVE",
"578 111 OFFCURVE",
"578 271 CURVE SMOOTH",
"578 431 OFFCURVE",
"477 550 OFFCURVE",
"317 550 CURVE SMOOTH"
);
},
{
closed = 1;
nodes = (
"211 57 OFFCURVE",
"150 151 OFFCURVE",
"150 271 CURVE SMOOTH",
"150 391 OFFCURVE",
"211 483 OFFCURVE",
"317 483 CURVE SMOOTH",
"423 483 OFFCURVE",
"488 391 OFFCURVE",
"488 271 CURVE SMOOTH",
"488 151 OFFCURVE",
"423 57 OFFCURVE",
"317 57 CURVE SMOOTH"
);
}
);
width = 638;
}
);
unicode = 11124;
script = chakma;
category = Letter;
subCategory = Other;
},
{
glyphname = saa_chakma;
lastChange = "2018-05-08 16:47:40 +0000";
layers = (
{
components = (
{
name = daa_chakma;
}
);
layerId = "1D72C4DB-D20D-420D-B086-1F84B9DB7C9C";
paths = (
{
closed = 1;
nodes = (
"873 -10 OFFCURVE",
"981 125 OFFCURVE",
"981 279 CURVE SMOOTH",
"981 432 OFFCURVE",
"878 550 OFFCURVE",
"735 550 CURVE SMOOTH",
"700 550 OFFCURVE",
"654 543 OFFCURVE",
"614 516 CURVE",
"660 465 LINE",
"681 477 OFFCURVE",
"705 483 OFFCURVE",
"730 483 CURVE SMOOTH",
"822 483 OFFCURVE",
"891 400 OFFCURVE",
"891 282 CURVE SMOOTH",
"891 159 OFFCURVE",
"818 57 OFFCURVE",
"719 57 CURVE SMOOTH",
"622 57 OFFCURVE",
"561 153 OFFCURVE",
"537 201 CURVE",
"485 135 LINE",
"528 55 OFFCURVE",
"608 -10 OFFCURVE",
"717 -10 CURVE SMOOTH"
);
}
);
width = 1041;
}
);
leftMetricsKey = daa_chakma;
rightMetricsKey = waa_chakma;
unicode = 11125;
script = chakma;
category = Letter;
subCategory = Other;
},
{
glyphname = haa_chakma;
lastChange = "2018-05-08 16:47:40 +0000";
layers = (
{
layerId = "1D72C4DB-D20D-420D-B086-1F84B9DB7C9C";
paths = (
{
closed = 1;
nodes = (
"330 550 LINE",
"194 527 OFFCURVE",
"60 427 OFFCURVE",
"60 243 CURVE SMOOTH",
"60 113 OFFCURVE",
"135 -10 OFFCURVE",
"272 -10 CURVE SMOOTH",
"415 -10 OFFCURVE",
"492 131 OFFCURVE",
"556 261 CURVE SMOOTH",
"615 381 OFFCURVE",
"663 483 OFFCURVE",
"750 483 CURVE SMOOTH",
"829 483 OFFCURVE",
"876 404 OFFCURVE",
"876 308 CURVE SMOOTH",
"876 150 OFFCURVE",
"764 82 OFFCURVE",
"679 56 CURVE",
"696 -10 LINE",
"828 16 OFFCURVE",
"966 125 OFFCURVE",
"966 313 CURVE SMOOTH",
"966 451 OFFCURVE",
"880 550 OFFCURVE",
"751 550 CURVE SMOOTH",
"613 550 OFFCURVE",
"541 434 OFFCURVE",
"477 304 CURVE SMOOTH",
"419 187 OFFCURVE",
"373 57 OFFCURVE",
"277 57 CURVE SMOOTH",
"196 57 OFFCURVE",
"150 153 OFFCURVE",
"150 247 CURVE SMOOTH",
"150 393 OFFCURVE",
"262 456 OFFCURVE",
"347 480 CURVE"
);
}
);
width = 1026;
}
);
leftMetricsKey = waa_chakma;
rightMetricsKey = waa_chakma;
unicode = 11126;
script = chakma;
category = Letter;
subCategory = Other;
},
{
glyphname = aMatra_chakma;
lastChange = "2018-05-08 16:46:52 +0000";
layers = (
{
layerId = "1D72C4DB-D20D-420D-B086-1F84B9DB7C9C";
paths = (
{
closed = 1;
nodes = (
"-251 621 LINE",
"-101 978 LINE",
"-169 1010 LINE",
"-319 653 LINE"
);
}
);
width = 0;
}
);
unicode = 11127;
script = "";
category = Mark;
subCategory = Nonspacing;
},
{
glyphname = uMatra_chakma;
lastChange = "2018-05-08 16:46:54 +0000";
layers = (
{
layerId = "1D72C4DB-D20D-420D-B086-1F84B9DB7C9C";
paths = (
{
closed = 1;
nodes = (
"-169 -196 LINE",
"-238 -196 LINE",
"-238 52 LINE",
"-316 52 LINE",
"-316 -273 LINE",
"-169 -273 LINE"
);
}
);
width = 0;
}
);
unicode = 1112A;
script = "";
category = Mark;
subCategory = Nonspacing;
},
{
glyphname = uuMatra_chakma;
lastChange = "2018-05-08 16:46:54 +0000";
layers = (
{
components = (
{
name = uMatra_chakma;
transform = "{1, 0, 0, 1, 30, 0}";
}
);
layerId = "1D72C4DB-D20D-420D-B086-1F84B9DB7C9C";
paths = (
{
closed = 1;
nodes = (
"-425 52 LINE",
"-425 -273 LINE",
"-347 -273 LINE",
"-347 52 LINE"
);
}
);
width = 0;
}
);
unicode = 1112B;
script = "";
category = Mark;
subCategory = Nonspacing;
},
{
glyphname = eMatra_chakma;
lastChange = "2018-05-08 16:46:17 +0000";
layers = (
{
layerId = "1D72C4DB-D20D-420D-B086-1F84B9DB7C9C";
paths = (
{
closed = 1;
nodes = (
"268 582 LINE",
"174 543 OFFCURVE",
"60 451 OFFCURVE",
"60 246 CURVE SMOOTH",
"60 86 OFFCURVE",
"136 -10 OFFCURVE",
"243 -10 CURVE SMOOTH",
"325 -10 OFFCURVE",
"369 47 OFFCURVE",
"369 107 CURVE SMOOTH",
"369 167 OFFCURVE",
"324 205 OFFCURVE",
"268 205 CURVE SMOOTH",
"204 205 OFFCURVE",
"151 154 OFFCURVE",
"151 89 CURVE",
"189 70 LINE",
"203 117 OFFCURVE",
"228 144 OFFCURVE",
"260 144 CURVE SMOOTH",
"283 144 OFFCURVE",
"303 130 OFFCURVE",
"303 105 CURVE SMOOTH",
"303 75 OFFCURVE",
"275 57 OFFCURVE",
"246 57 CURVE SMOOTH",
"188 57 OFFCURVE",
"150 130 OFFCURVE",
"150 249 CURVE SMOOTH",
"150 433 OFFCURVE",
"251 498 OFFCURVE",
"303 522 CURVE"
);
}
);
width = 379;
}
);
leftMetricsKey = waa_chakma;
unicode = 1112C;
script = chakma;
category = Mark;
subCategory = Spacing;
},
{
glyphname = aiMatra_chakma;
lastChange = "2018-05-08 16:46:52 +0000";
layers = (
{
layerId = "1D72C4DB-D20D-420D-B086-1F84B9DB7C9C";
paths = (
{
closed = 1;
nodes = (
"-122 591 LINE",
"-22 810 LINE",
"-22 880 LINE",
"-562 880 LINE",
"-562 810 LINE",
"-103 810 LINE",
"-184 633 LINE"
);
}
);
width = 0;
}
);
unicode = 1112D;
script = "";
category = Mark;
subCategory = Nonspacing;
},
{
glyphname = aiMatra_chakma.short;
lastChange = "2018-05-08 16:46:52 +0000";
layers = (
{
layerId = "1D72C4DB-D20D-420D-B086-1F84B9DB7C9C";
paths = (
{
closed = 1;
nodes = (
"-122 591 LINE",
"-22 810 LINE",
"-22 880 LINE",
"-492 880 LINE",
"-492 810 LINE",
"-103 810 LINE",
"-184 633 LINE"
);
}
);
width = 0;
}
);
script = "";
category = Mark;
subCategory = Nonspacing;
},
{
glyphname = aiMatra_candrabindu;
lastChange = "2018-05-08 16:46:52 +0000";
layers = (
{
layerId = "1D72C4DB-D20D-420D-B086-1F84B9DB7C9C";
paths = (
{
closed = 1;
nodes = (
"-312 591 LINE",
"-168 910 LINE",
"-168 980 LINE",
"-739 980 LINE",
"-739 910 LINE",
"-249 910 LINE",
"-374 633 LINE"
);
},
{
closed = 1;
nodes = (
"-739 856 LINE",
"-739 761 OFFCURVE",
"-668 666 OFFCURVE",
"-557 666 CURVE SMOOTH",
"-447 666 OFFCURVE",
"-380 761 OFFCURVE",
"-380 856 CURVE",
"-452 856 LINE",
"-452 784 OFFCURVE",
"-500 723 OFFCURVE",
"-560 725 CURVE SMOOTH",
"-620 727 OFFCURVE",
"-667 784 OFFCURVE",
"-667 856 CURVE"
);
},
{
closed = 1;
nodes = (
"-530 759 OFFCURVE",
"-506 783 OFFCURVE",
"-506 813 CURVE SMOOTH",
"-506 843 OFFCURVE",
"-530 867 OFFCURVE",
"-560 867 CURVE SMOOTH",
"-590 867 OFFCURVE",
"-614 843 OFFCURVE",
"-614 813 CURVE SMOOTH",
"-614 783 OFFCURVE",
"-590 759 OFFCURVE",
"-560 759 CURVE SMOOTH"
);
}
);
width = 0;
}
);
script = "";
category = Mark;
subCategory = Nonspacing;
},
{
glyphname = aiMatra_candrabindu.short;
lastChange = "2018-05-08 16:46:52 +0000";
layers = (
{
layerId = "1D72C4DB-D20D-420D-B086-1F84B9DB7C9C";
paths = (
{
closed = 1;
nodes = (
"-312 591 LINE",
"-168 910 LINE",
"-168 980 LINE",
"-689 980 LINE",
"-689 910 LINE",
"-249 910 LINE",
"-374 633 LINE"
);
},
{
closed = 1;
nodes = (
"-699 856 LINE",
"-699 761 OFFCURVE",
"-628 666 OFFCURVE",
"-517 666 CURVE SMOOTH",
"-407 666 OFFCURVE",
"-340 761 OFFCURVE",
"-340 856 CURVE",
"-412 856 LINE",
"-412 784 OFFCURVE",
"-460 723 OFFCURVE",
"-520 725 CURVE SMOOTH",
"-580 727 OFFCURVE",
"-627 784 OFFCURVE",
"-627 856 CURVE"
);
},
{
closed = 1;
nodes = (
"-490 759 OFFCURVE",
"-466 783 OFFCURVE",
"-466 813 CURVE SMOOTH",
"-466 843 OFFCURVE",
"-490 867 OFFCURVE",
"-520 867 CURVE SMOOTH",
"-550 867 OFFCURVE",
"-574 843 OFFCURVE",
"-574 813 CURVE SMOOTH",
"-574 783 OFFCURVE",
"-550 759 OFFCURVE",
"-520 759 CURVE SMOOTH"
);
}
);
width = 0;
}
);
script = "";
category = Mark;
subCategory = Nonspacing;
},
{
glyphname = aiMatra_anusvara;
lastChange = "2018-05-08 16:46:52 +0000";
layers = (
{
layerId = "1D72C4DB-D20D-420D-B086-1F84B9DB7C9C";
paths = (
{
closed = 1;
nodes = (
"-212 591 LINE",
"-85 870 LINE",
"-85 940 LINE",
"-652 940 LINE",
"-652 870 LINE",
"-166 870 LINE",
"-274 633 LINE"
);
},
{
closed = 1;
nodes = (
"-388 689 OFFCURVE",
"-358 718 OFFCURVE",
"-358 756 CURVE SMOOTH",
"-358 792 OFFCURVE",
"-388 822 OFFCURVE",
"-425 822 CURVE SMOOTH",
"-462 822 OFFCURVE",
"-491 792 OFFCURVE",
"-491 756 CURVE SMOOTH",
"-491 718 OFFCURVE",
"-462 689 OFFCURVE",
"-425 689 CURVE SMOOTH"
);
}
);
width = 0;
}
);
script = "";
category = Mark;
subCategory = Nonspacing;
},
{
glyphname = aiMatra_anusvara.short;
lastChange = "2018-05-08 16:46:52 +0000";
layers = (
{
layerId = "1D72C4DB-D20D-420D-B086-1F84B9DB7C9C";
paths = (
{
closed = 1;
nodes = (
"-212 591 LINE",
"-85 870 LINE",
"-85 940 LINE",
"-553 940 LINE",
"-553 870 LINE",
"-166 870 LINE",
"-274 633 LINE"
);
},
{
closed = 1;
nodes = (
"-358 689 OFFCURVE",
"-328 718 OFFCURVE",
"-328 756 CURVE SMOOTH",
"-328 792 OFFCURVE",
"-358 822 OFFCURVE",
"-395 822 CURVE SMOOTH",
"-432 822 OFFCURVE",
"-461 792 OFFCURVE",
"-461 756 CURVE SMOOTH",
"-461 718 OFFCURVE",
"-432 689 OFFCURVE",
"-395 689 CURVE SMOOTH"
);
}
);
width = 0;
}
);
script = "";
category = Mark;
subCategory = Nonspacing;
},
{
glyphname = aiMatra_visarga;
lastChange = "2018-05-08 16:46:52 +0000";
layers = (
{
layerId = "1D72C4DB-D20D-420D-B086-1F84B9DB7C9C";
paths = (
{
closed = 1;
nodes = (
"-212 591 LINE",
"-85 870 LINE",
"-85 940 LINE",
"-652 940 LINE",
"-652 870 LINE",
"-166 870 LINE",
"-274 633 LINE"
);
},
{
closed = 1;
nodes = (
"-318 689 OFFCURVE",
"-288 719 OFFCURVE",
"-288 757 CURVE SMOOTH",
"-288 793 OFFCURVE",
"-318 823 OFFCURVE",
"-355 823 CURVE SMOOTH",
"-391 823 OFFCURVE",
"-421 793 OFFCURVE",
"-421 757 CURVE SMOOTH",
"-421 719 OFFCURVE",
"-391 689 OFFCURVE",
"-355 689 CURVE SMOOTH"
);
},
{
closed = 1;
nodes = (
"-518 689 OFFCURVE",
"-488 719 OFFCURVE",
"-488 757 CURVE SMOOTH",
"-488 793 OFFCURVE",
"-518 823 OFFCURVE",
"-555 823 CURVE SMOOTH",
"-591 823 OFFCURVE",
"-621 793 OFFCURVE",
"-621 757 CURVE SMOOTH",
"-621 719 OFFCURVE",
"-591 689 OFFCURVE",
"-555 689 CURVE SMOOTH"
);
}
);
width = 0;
}
);
script = "";
category = Mark;
subCategory = Nonspacing;
},
{
glyphname = aiMatra_visarga.short;
lastChange = "2018-05-08 16:46:52 +0000";
layers = (
{
layerId = "1D72C4DB-D20D-420D-B086-1F84B9DB7C9C";
paths = (
{
closed = 1;
nodes = (
"-212 591 LINE",
"-85 870 LINE",
"-85 940 LINE",
"-581 940 LINE",
"-581 870 LINE",
"-166 870 LINE",
"-274 633 LINE"
);
},
{
closed = 1;
nodes = (
"-308 689 OFFCURVE",
"-278 719 OFFCURVE",
"-278 757 CURVE SMOOTH",
"-278 793 OFFCURVE",
"-308 823 OFFCURVE",
"-345 823 CURVE SMOOTH",
"-381 823 OFFCURVE",
"-411 793 OFFCURVE",
"-411 757 CURVE SMOOTH",
"-411 719 OFFCURVE",
"-381 689 OFFCURVE",
"-345 689 CURVE SMOOTH"
);
},
{
closed = 1;
nodes = (
"-478 689 OFFCURVE",
"-448 719 OFFCURVE",
"-448 757 CURVE SMOOTH",
"-448 793 OFFCURVE",
"-478 823 OFFCURVE",
"-515 823 CURVE SMOOTH",
"-551 823 OFFCURVE",
"-581 793 OFFCURVE",
"-581 757 CURVE SMOOTH",
"-581 719 OFFCURVE",
"-551 689 OFFCURVE",
"-515 689 CURVE SMOOTH"
);
}
);
width = 0;
}
);
script = "";
category = Mark;
subCategory = Nonspacing;
},
{
glyphname = aiMatra_maayyaa;
lastChange = "2018-05-08 16:46:52 +0000";
layers = (
{
components = (
{
name = maayyaa_chakma;
transform = "{1, 0, 0, 1, -240, 20}";
}
);
layerId = "1D72C4DB-D20D-420D-B086-1F84B9DB7C9C";
paths = (
{
closed = 1;
nodes = (
"-212 591 LINE",
"-85 870 LINE",
"-85 940 LINE",
"-652 940 LINE",
"-652 870 LINE",
"-166 870 LINE",
"-274 633 LINE"
);
}
);
width = 0;
}
);
script = "";
category = Mark;
subCategory = Nonspacing;
},
{
glyphname = aiMatra_maayyaa.short;
lastChange = "2018-05-08 16:46:52 +0000";
layers = (
{
layerId = "1D72C4DB-D20D-420D-B086-1F84B9DB7C9C";
paths = (
{
closed = 1;
nodes = (
"-212 591 LINE",
"-85 870 LINE",
"-85 940 LINE",
"-553 940 LINE",
"-553 870 LINE",
"-166 870 LINE",
"-274 633 LINE"
);
},
{
closed = 1;
nodes = (
"-513 790 LINE",
"-513 720 LINE",
"-293 720 LINE",
"-293 790 LINE"
);
}
);
width = 0;
}
);
script = "";
category = Mark;
subCategory = Nonspacing;
},
{
glyphname = oiMatra_chakma;
lastChange = "2018-05-08 16:46:52 +0000";
layers = (
{
components = (
{
name = aiMatra_chakma;
transform = "{1, 0, 0, 1, -190, 0}";
}
);
layerId = "1D72C4DB-D20D-420D-B086-1F84B9DB7C9C";
paths = (
{
closed = 1;
nodes = (
"-190 548 LINE",
"-40 877 LINE",
"-121 877 LINE",
"-251 591 LINE"
);
}
);
width = 0;
}
);
unicode = 11130;
script = "";
category = Mark;
subCategory = Nonspacing;
},
{
glyphname = oiMatra_chakma.short;
lastChange = "2018-05-08 16:46:52 +0000";
layers = (
{
layerId = "1D72C4DB-D20D-420D-B086-1F84B9DB7C9C";
paths = (
{
closed = 1;
nodes = (
"-190 548 LINE",
"-40 877 LINE",
"-121 877 LINE",
"-251 591 LINE"
);
},
{
closed = 1;
nodes = (
"-312 591 LINE",
"-212 810 LINE",
"-212 880 LINE",
"-642 880 LINE",
"-642 810 LINE",
"-293 810 LINE",
"-374 633 LINE"
);
}
);
width = 0;
}
);
script = "";
category = Mark;
subCategory = Nonspacing;
},
{
glyphname = oiMatra_candrabindu;
lastChange = "2018-05-08 16:46:52 +0000";
layers = (
{
layerId = "1D72C4DB-D20D-420D-B086-1F84B9DB7C9C";
paths = (
{
closed = 1;
nodes = (
"-739 856 LINE",
"-739 761 OFFCURVE",
"-668 666 OFFCURVE",
"-557 666 CURVE SMOOTH",
"-447 666 OFFCURVE",
"-380 761 OFFCURVE",
"-380 856 CURVE",
"-452 856 LINE",
"-452 784 OFFCURVE",
"-500 723 OFFCURVE",
"-560 725 CURVE SMOOTH",
"-620 727 OFFCURVE",
"-667 784 OFFCURVE",
"-667 856 CURVE"
);
},
{
closed = 1;
nodes = (
"-190 548 LINE",
"4 977 LINE",
"-77 977 LINE",
"-251 591 LINE"
);
},
{
closed = 1;
nodes = (
"-312 591 LINE",
"-168 910 LINE",
"-168 980 LINE",
"-739 980 LINE",
"-739 910 LINE",
"-249 910 LINE",
"-374 633 LINE"
);
},
{
closed = 1;
nodes = (
"-530 759 OFFCURVE",
"-506 783 OFFCURVE",
"-506 813 CURVE SMOOTH",
"-506 843 OFFCURVE",
"-530 867 OFFCURVE",
"-560 867 CURVE SMOOTH",
"-590 867 OFFCURVE",
"-614 843 OFFCURVE",
"-614 813 CURVE SMOOTH",
"-614 783 OFFCURVE",
"-590 759 OFFCURVE",
"-560 759 CURVE SMOOTH"
);
}
);
width = 0;
}
);
script = "";
category = Mark;
subCategory = Nonspacing;
},
{
glyphname = oiMatra_candrabindu.short;
lastChange = "2018-05-08 16:46:52 +0000";
layers = (
{
components = (
{
name = candrabindu_chakma;
transform = "{0.7, 0, 0, 0.7, -327, 131}";
}
);
layerId = "1D72C4DB-D20D-420D-B086-1F84B9DB7C9C";
paths = (
{
closed = 1;
nodes = (
"-190 548 LINE",
"4 977 LINE",
"-77 977 LINE",
"-251 591 LINE"
);
},
{
closed = 1;
nodes = (
"-312 591 LINE",
"-168 910 LINE",
"-168 980 LINE",
"-639 980 LINE",
"-639 910 LINE",
"-249 910 LINE",
"-374 633 LINE"
);
}
);
width = 0;
}
);
script = "";
category = Mark;
subCategory = Nonspacing;
},
{
glyphname = oiMatra_anusvara;
lastChange = "2018-05-08 16:46:52 +0000";
layers = (
{
layerId = "1D72C4DB-D20D-420D-B086-1F84B9DB7C9C";
paths = (
{
closed = 1;
nodes = (
"-190 548 LINE",
"-13 937 LINE",
"-94 937 LINE",
"-251 591 LINE"
);
},
{
closed = 1;
nodes = (
"-312 591 LINE",
"-185 870 LINE",
"-185 940 LINE",
"-752 940 LINE",
"-752 870 LINE",
"-266 870 LINE",
"-374 633 LINE"
);
},
{
closed = 1;
nodes = (
"-488 689 OFFCURVE",
"-458 718 OFFCURVE",
"-458 756 CURVE SMOOTH",
"-458 792 OFFCURVE",
"-488 822 OFFCURVE",
"-525 822 CURVE SMOOTH",
"-562 822 OFFCURVE",
"-591 792 OFFCURVE",
"-591 756 CURVE SMOOTH",
"-591 718 OFFCURVE",
"-562 689 OFFCURVE",
"-525 689 CURVE SMOOTH"
);
}
);
width = 0;
}
);
script = "";
category = Mark;
subCategory = Nonspacing;
},
{
glyphname = oiMatra_anusvara.short;
lastChange = "2018-05-08 16:46:52 +0000";
layers = (
{
layerId = "1D72C4DB-D20D-420D-B086-1F84B9DB7C9C";
paths = (
{
closed = 1;
nodes = (
"-190 548 LINE",
"-13 937 LINE",
"-94 937 LINE",
"-251 591 LINE"
);
},
{
closed = 1;
nodes = (
"-312 591 LINE",
"-185 870 LINE",
"-185 940 LINE",
"-652 940 LINE",
"-652 870 LINE",
"-266 870 LINE",
"-374 633 LINE"
);
},
{
closed = 1;
nodes = (
"-448 689 OFFCURVE",
"-418 718 OFFCURVE",
"-418 756 CURVE SMOOTH",
"-418 792 OFFCURVE",
"-448 822 OFFCURVE",
"-485 822 CURVE SMOOTH",
"-522 822 OFFCURVE",
"-551 792 OFFCURVE",
"-551 756 CURVE SMOOTH",
"-551 718 OFFCURVE",
"-522 689 OFFCURVE",
"-485 689 CURVE SMOOTH"
);
}
);
width = 0;
}
);
script = "";
category = Mark;
subCategory = Nonspacing;
},
{
glyphname = oiMatra_visarga;
lastChange = "2018-05-08 16:46:52 +0000";
layers = (
{
layerId = "1D72C4DB-D20D-420D-B086-1F84B9DB7C9C";
paths = (
{
closed = 1;
nodes = (
"-190 548 LINE",
"-12 940 LINE",
"-93 940 LINE",
"-251 591 LINE"
);
},
{
closed = 1;
nodes = (
"-312 591 LINE",
"-185 870 LINE",
"-185 940 LINE",
"-752 940 LINE",
"-752 870 LINE",
"-266 870 LINE",
"-374 633 LINE"
);
},
{
closed = 1;
nodes = (
"-418 689 OFFCURVE",
"-388 719 OFFCURVE",
"-388 757 CURVE SMOOTH",
"-388 793 OFFCURVE",
"-418 823 OFFCURVE",
"-455 823 CURVE SMOOTH",
"-491 823 OFFCURVE",
"-521 793 OFFCURVE",
"-521 757 CURVE SMOOTH",
"-521 719 OFFCURVE",
"-491 689 OFFCURVE",
"-455 689 CURVE SMOOTH"
);
},
{
closed = 1;
nodes = (
"-618 689 OFFCURVE",
"-588 719 OFFCURVE",
"-588 757 CURVE SMOOTH",
"-588 793 OFFCURVE",
"-618 823 OFFCURVE",
"-655 823 CURVE SMOOTH",
"-691 823 OFFCURVE",
"-721 793 OFFCURVE",
"-721 757 CURVE SMOOTH",
"-721 719 OFFCURVE",
"-691 689 OFFCURVE",
"-655 689 CURVE SMOOTH"
);
}
);
width = 0;
}
);
script = "";
category = Mark;
subCategory = Nonspacing;
},
{
glyphname = oiMatra_visarga.short;
lastChange = "2018-05-08 16:46:52 +0000";
layers = (
{
layerId = "1D72C4DB-D20D-420D-B086-1F84B9DB7C9C";
paths = (
{
closed = 1;
nodes = (
"-190 548 LINE",
"-12 940 LINE",
"-93 940 LINE",
"-251 591 LINE"
);
},
{
closed = 1;
nodes = (
"-312 591 LINE",
"-185 870 LINE",
"-185 940 LINE",
"-684 940 LINE",
"-684 870 LINE",
"-266 870 LINE",
"-374 633 LINE"
);
},
{
closed = 1;
nodes = (
"-398 689 OFFCURVE",
"-368 719 OFFCURVE",
"-368 757 CURVE SMOOTH",
"-368 793 OFFCURVE",
"-398 823 OFFCURVE",
"-435 823 CURVE SMOOTH",
"-471 823 OFFCURVE",
"-501 793 OFFCURVE",
"-501 757 CURVE SMOOTH",
"-501 719 OFFCURVE",
"-471 689 OFFCURVE",
"-435 689 CURVE SMOOTH"
);
},
{
closed = 1;
nodes = (
"-578 689 OFFCURVE",
"-548 719 OFFCURVE",
"-548 757 CURVE SMOOTH",
"-548 793 OFFCURVE",
"-578 823 OFFCURVE",
"-615 823 CURVE SMOOTH",
"-651 823 OFFCURVE",
"-681 793 OFFCURVE",
"-681 757 CURVE SMOOTH",
"-681 719 OFFCURVE",
"-651 689 OFFCURVE",
"-615 689 CURVE SMOOTH"
);
}
);
width = 0;
}
);
script = "";
category = Mark;
subCategory = Nonspacing;
},
{
glyphname = oiMatra_maayyaa;
lastChange = "2018-05-08 16:46:52 +0000";
layers = (
{
components = (
{
name = maayyaa_chakma;
transform = "{1, 0, 0, 1, -340, 20}";
}
);
layerId = "1D72C4DB-D20D-420D-B086-1F84B9DB7C9C";
paths = (
{
closed = 1;
nodes = (
"-312 591 LINE",
"-185 870 LINE",
"-185 940 LINE",
"-752 940 LINE",
"-752 870 LINE",
"-266 870 LINE",
"-374 633 LINE"
);
},
{
closed = 1;
nodes = (
"-93 940 LINE",
"-251 591 LINE",
"-190 548 LINE",
"-12 940 LINE"
);
}
);
width = 0;
}
);
script = "";
category = Mark;
subCategory = Nonspacing;
},
{
glyphname = oiMatra_maayyaa.short;
lastChange = "2018-05-08 16:46:52 +0000";
layers = (
{
guideLines = (
{
position = "{-419, 940}";
}
);
layerId = "1D72C4DB-D20D-420D-B086-1F84B9DB7C9C";
paths = (
{
closed = 1;
nodes = (
"-312 591 LINE",
"-185 870 LINE",
"-185 940 LINE",
"-653 940 LINE",
"-653 870 LINE",
"-266 870 LINE",
"-374 633 LINE"
);
},
{
closed = 1;
nodes = (
"-613 790 LINE",
"-613 720 LINE",
"-393 720 LINE",
"-393 790 LINE"
);
},
{
closed = 1;
nodes = (
"-93 940 LINE",
"-251 591 LINE",
"-190 548 LINE",
"-12 940 LINE"
);
}
);
width = 0;
}
);
script = "";
category = Mark;
subCategory = Nonspacing;
},
{
glyphname = iMatra_aMatra;
lastChange = "2018-05-08 16:46:52 +0000";
layers = (
{
components = (
{
name = iMatra_chakma;
}
);
layerId = "1D72C4DB-D20D-420D-B086-1F84B9DB7C9C";
paths = (
{
closed = 1;
nodes = (
"-165 755 LINE",
"-37 1032 LINE",
"-105 1064 LINE",
"-229 768 LINE"
);
}
);
width = 0;
}
);
script = "";
category = Mark;
subCategory = Nonspacing;
},
{
glyphname = iiMatra_aMatra;
lastChange = "2018-05-08 16:46:52 +0000";
layers = (
{
components = (
{
name = iiMatra_chakma;
}
);
layerId = "1D72C4DB-D20D-420D-B086-1F84B9DB7C9C";
paths = (
{
closed = 1;
nodes = (
"-165 755 LINE",
"-37 1032 LINE",
"-105 1064 LINE",
"-229 768 LINE"
);
}
);
width = 0;
}
);
script = "";
category = Mark;
subCategory = Nonspacing;
},
{
glyphname = oMark_chakma;
lastChange = "2018-05-08 16:46:58 +0000";
layers = (
{
layerId = "1D72C4DB-D20D-420D-B086-1F84B9DB7C9C";
paths = (
{
closed = 1;
nodes = (
"-163 -310 OFFCURVE",
"-83 -234 OFFCURVE",
"-83 -140 CURVE SMOOTH",
"-83 -45 OFFCURVE",
"-163 31 OFFCURVE",
"-260 31 CURVE SMOOTH",
"-357 31 OFFCURVE",
"-437 -45 OFFCURVE",
"-437 -140 CURVE SMOOTH",
"-437 -234 OFFCURVE",
"-357 -310 OFFCURVE",
"-260 -310 CURVE SMOOTH"
);
},
{
closed = 1;
nodes = (
"-321 -243 OFFCURVE",
"-370 -198 OFFCURVE",
"-370 -140 CURVE SMOOTH",
"-370 -81 OFFCURVE",
"-321 -36 OFFCURVE",
"-260 -36 CURVE SMOOTH",
"-199 -36 OFFCURVE",
"-150 -81 OFFCURVE",
"-150 -140 CURVE SMOOTH",
"-150 -198 OFFCURVE",
"-199 -243 OFFCURVE",
"-260 -243 CURVE SMOOTH"
);
}
);
width = 0;
}
);
unicode = 11131;
script = "";
category = Mark;
subCategory = Nonspacing;
},
{
glyphname = auMark_chakma;
lastChange = "2018-05-08 16:46:58 +0000";
layers = (
{
layerId = "1D72C4DB-D20D-420D-B086-1F84B9DB7C9C";
paths = (
{
closed = 1;
nodes = (
"-231 -195 OFFCURVE",
"-206 -170 OFFCURVE",
"-206 -139 CURVE SMOOTH",
"-206 -108 OFFCURVE",
"-231 -83 OFFCURVE",
"-261 -83 CURVE SMOOTH",
"-291 -83 OFFCURVE",
"-316 -108 OFFCURVE",
"-316 -139 CURVE SMOOTH",
"-316 -170 OFFCURVE",
"-291 -195 OFFCURVE",
"-261 -195 CURVE SMOOTH"
);
},
{
closed = 1;
nodes = (
"-163 -310 OFFCURVE",
"-83 -234 OFFCURVE",
"-83 -140 CURVE SMOOTH",
"-83 -45 OFFCURVE",
"-163 31 OFFCURVE",
"-260 31 CURVE SMOOTH",
"-357 31 OFFCURVE",
"-437 -45 OFFCURVE",
"-437 -140 CURVE SMOOTH",
"-437 -234 OFFCURVE",
"-357 -310 OFFCURVE",
"-260 -310 CURVE SMOOTH"
);
},
{
closed = 1;
nodes = (
"-321 -243 OFFCURVE",
"-370 -198 OFFCURVE",
"-370 -140 CURVE SMOOTH",
"-370 -81 OFFCURVE",
"-321 -36 OFFCURVE",
"-260 -36 CURVE SMOOTH",
"-199 -36 OFFCURVE",
"-150 -81 OFFCURVE",
"-150 -140 CURVE SMOOTH",
"-150 -198 OFFCURVE",
"-199 -243 OFFCURVE",
"-260 -243 CURVE SMOOTH"
);
}
);
width = 0;
}
);
unicode = 11132;
script = "";
category = Mark;
subCategory = Nonspacing;
},
{
glyphname = virama_chakma;
lastChange = "2018-05-08 16:46:34 +0000";
layers = (
{
layerId = "1D72C4DB-D20D-420D-B086-1F84B9DB7C9C";
paths = (
{
closed = 1;
nodes = (
"-353 -416 LINE",
"-279 -416 LINE",
"-279 -291 LINE",
"-154 -291 LINE",
"-154 -224 LINE",
"-279 -224 LINE",
"-279 -98 LINE",
"-353 -98 LINE",
"-353 -224 LINE",
"-478 -224 LINE",
"-478 -291 LINE",
"-353 -291 LINE"
);
}
);
width = 0;
}
);
unicode = 11133;
script = "";
category = Mark;
subCategory = Nonspacing;
},
{
glyphname = maayyaa_chakma;
lastChange = "2018-05-08 16:47:12 +0000";
layers = (
{
layerId = "1D72C4DB-D20D-420D-B086-1F84B9DB7C9C";
paths = (
{
closed = 1;
nodes = (
"-383 770 LINE",
"-383 700 LINE",
"-63 700 LINE",
"-63 770 LINE"
);
}
);
width = 0;
}
);
unicode = 11134;
script = "";
category = Mark;
subCategory = Nonspacing;
},
{
glyphname = zero_chakma;
lastChange = "2018-05-08 16:46:17 +0000";
layers = (
{
guideLines = (
{
angle = 270;
position = "{287, 307}";
}
);
layerId = "1D72C4DB-D20D-420D-B086-1F84B9DB7C9C";
paths = (
{
closed = 1;
nodes = (
"147 622 OFFCURVE",
"60 467 OFFCURVE",
"60 307 CURVE SMOOTH",
"60 147 OFFCURVE",
"147 -10 OFFCURVE",
"287 -10 CURVE SMOOTH",
"427 -10 OFFCURVE",
"515 147 OFFCURVE",
"515 307 CURVE SMOOTH",
"515 467 OFFCURVE",
"427 622 OFFCURVE",
"287 622 CURVE SMOOTH"
);
},
{
closed = 1;
nodes = (
"377 555 OFFCURVE",
"425 455 OFFCURVE",
"425 307 CURVE SMOOTH",
"425 159 OFFCURVE",
"377 57 OFFCURVE",
"287 57 CURVE SMOOTH",
"197 57 OFFCURVE",
"150 159 OFFCURVE",
"150 307 CURVE SMOOTH",
"150 455 OFFCURVE",
"197 555 OFFCURVE",
"287 555 CURVE SMOOTH"
);
}
);
width = 575;
}
);
unicode = 11136;
script = "";
category = Number;
subCategory = "Decimal Digit";
},
{
glyphname = one_chakma;
lastChange = "2018-05-08 16:46:17 +0000";
layers = (
{
layerId = "1D72C4DB-D20D-420D-B086-1F84B9DB7C9C";
paths = (
{
closed = 1;
nodes = (
"514 631 LINE",
"368 572 OFFCURVE",
"71 403 OFFCURVE",
"71 186 CURVE SMOOTH",
"71 67 OFFCURVE",
"163 -11 OFFCURVE",
"270 -11 CURVE SMOOTH",
"375 -11 OFFCURVE",
"466 63 OFFCURVE",
"466 186 CURVE SMOOTH",
"466 390 OFFCURVE",
"190 572 OFFCURVE",
"44 629 CURVE",
"44 543 LINE",
"162 503 OFFCURVE",
"376 358 OFFCURVE",
"376 186 CURVE SMOOTH",
"376 100 OFFCURVE",
"329 56 OFFCURVE",
"271 56 CURVE SMOOTH",
"210 56 OFFCURVE",
"161 103 OFFCURVE",
"161 186 CURVE SMOOTH",
"161 368 OFFCURVE",
"437 520 OFFCURVE",
"514 545 CURVE"
);
}
);
width = 558;
}
);
unicode = 11137;
script = "";
category = Number;
subCategory = "Decimal Digit";
},
{
glyphname = two_chakma;
lastChange = "2018-05-08 16:46:17 +0000";
layers = (
{
layerId = "1D72C4DB-D20D-420D-B086-1F84B9DB7C9C";
paths = (
{
closed = 1;
nodes = (
"535 -7 LINE",
"469 66 OFFCURVE",
"372 135 OFFCURVE",
"210 164 CURVE",
"212 149 LINE",
"392 224 OFFCURVE",
"540 374 OFFCURVE",
"540 500 CURVE SMOOTH",
"540 602 OFFCURVE",
"446 631 OFFCURVE",
"359 631 CURVE SMOOTH",
"179 631 OFFCURVE",
"99 496 OFFCURVE",
"108 386 CURVE",
"196 424 LINE",
"190 488 OFFCURVE",
"237 563 OFFCURVE",
"346 563 CURVE SMOOTH",
"399 563 OFFCURVE",
"450 545 OFFCURVE",
"450 490 CURVE SMOOTH",
"450 377 OFFCURVE",
"242 201 OFFCURVE",
"78 201 CURVE",
"60 134 LINE",
"246 107 OFFCURVE",
"392 26 OFFCURVE",
"479 -75 CURVE"
);
}
);
width = 590;
}
);
unicode = 11138;
script = "";
category = Number;
subCategory = "Decimal Digit";
},
{
glyphname = three_chakma;
lastChange = "2018-05-08 16:46:17 +0000";
layers = (
{
layerId = "1D72C4DB-D20D-420D-B086-1F84B9DB7C9C";
paths = (
{
closed = 1;
nodes = (
"422.358 390.936 OFFCURVE",
"447 359.6 OFFCURVE",
"447 327 CURVE SMOOTH",
"447 299 OFFCURVE",
"429 278 OFFCURVE",
"401 278 CURVE SMOOTH",
"376 278 OFFCURVE",
"355 295 OFFCURVE",
"355 326 CURVE SMOOTH",
"355 364 OFFCURVE",
"386 396 OFFCURVE",
"440 396 CURVE SMOOTH",
"521 396 OFFCURVE",
"554 325 OFFCURVE",
"554 255 CURVE SMOOTH",
"554 144 OFFCURVE",
"472 53 OFFCURVE",
"359 53 CURVE SMOOTH",
"230 53 OFFCURVE",
"150 169 OFFCURVE",
"150 298 CURVE SMOOTH",
"150 422 OFFCURVE",
"223 524 OFFCURVE",
"305 573 CURVE",
"269 630 LINE",
"195 592 OFFCURVE",
"60 475 OFFCURVE",
"60 288 CURVE SMOOTH",
"60 116 OFFCURVE",
"184 -14 OFFCURVE",
"366 -14 CURVE SMOOTH",
"550 -14 OFFCURVE",
"644 129 OFFCURVE",
"644 257 CURVE SMOOTH",
"644 374 OFFCURVE",
"565 471 OFFCURVE",
"439 467 CURVE SMOOTH",
"346 464 OFFCURVE",
"273 411 OFFCURVE",
"273 326 CURVE SMOOTH",
"273 253 OFFCURVE",
"327 211 OFFCURVE",
"399 211 CURVE SMOOTH",
"479 211 OFFCURVE",
"521 265 OFFCURVE",
"521 324 CURVE SMOOTH",
"521 385.918 OFFCURVE",
"472.851 429.781 OFFCURVE",
"410.574 450.862 CURVE",
"387.102 410.177 LINE"
);
}
);
width = 704;
}
);
leftMetricsKey = zero_chakma;
rightMetricsKey = zero_chakma;
unicode = 11139;
script = "";
category = Number;
subCategory = "Decimal Digit";
},
{
glyphname = four_chakma;
lastChange = "2018-05-08 16:46:17 +0000";
layers = (
{
layerId = "1D72C4DB-D20D-420D-B086-1F84B9DB7C9C";
paths = (
{
closed = 1;
nodes = (
"503 163 LINE",
"469 124 OFFCURVE",
"398 63 OFFCURVE",
"315 63 CURVE SMOOTH",
"216 63 OFFCURVE",
"150 152 OFFCURVE",
"150 262 CURVE SMOOTH",
"150 410 OFFCURVE",
"270 556 OFFCURVE",
"380 556 CURVE SMOOTH",
"409 556 OFFCURVE",
"442 546 OFFCURVE",
"442 517 CURVE SMOOTH",
"442 470 OFFCURVE",
"355 404 OFFCURVE",
"251 404 CURVE SMOOTH",
"225.241 404 OFFCURVE",
"197.187 408.018 OFFCURVE",
"169.01 418.228 CURVE",
"147.47 360.068 LINE",
"177.584 351 OFFCURVE",
"211.183 345 OFFCURVE",
"250 345 CURVE SMOOTH",
"415 345 OFFCURVE",
"520 452 OFFCURVE",
"520 536 CURVE SMOOTH",
"520 587 OFFCURVE",
"480 625 OFFCURVE",
"401 625 CURVE SMOOTH",
"242 625 OFFCURVE",
"60 470 OFFCURVE",
"60 259 CURVE SMOOTH",
"60 98 OFFCURVE",
"159 -5 OFFCURVE",
"303 -5 CURVE SMOOTH",
"401 -5 OFFCURVE",
"490 44 OFFCURVE",
"548 118 CURVE"
);
}
);
width = 608;
}
);
leftMetricsKey = zero_chakma;
unicode = 1113A;
script = "";
category = Number;
subCategory = "Decimal Digit";
},
{
glyphname = five_chakma;
lastChange = "2018-05-08 16:46:17 +0000";
layers = (
{
layerId = "1D72C4DB-D20D-420D-B086-1F84B9DB7C9C";
paths = (
{
closed = 1;
nodes = (
"122 553 LINE",
"135 558 OFFCURVE",
"156 564 OFFCURVE",
"186 564 CURVE SMOOTH",
"311 564 OFFCURVE",
"407 464 OFFCURVE",
"407 308 CURVE SMOOTH",
"407 161 OFFCURVE",
"317 57 OFFCURVE",
"222 57 CURVE SMOOTH",
"167 57 OFFCURVE",
"139 92 OFFCURVE",
"139 135 CURVE SMOOTH",
"139 238 OFFCURVE",
"286 295 OFFCURVE",
"286 350 CURVE SMOOTH",
"286 388 OFFCURVE",
"215 413 OFFCURVE",
"151 427 CURVE",
"158 421 LINE",
"161 456 OFFCURVE",
"196 494 OFFCURVE",
"215 512 CURVE",
"187 573 LINE",
"135 539 OFFCURVE",
"80 473 OFFCURVE",
"80 422 CURVE SMOOTH",
"80 352 OFFCURVE",
"184 330 OFFCURVE",
"211 324 CURVE",
"211 334 LINE",
"178 309 OFFCURVE",
"60 216 OFFCURVE",
"60 115 CURVE SMOOTH",
"60 46 OFFCURVE",
"117 -10 OFFCURVE",
"211 -10 CURVE SMOOTH",
"370 -10 OFFCURVE",
"497 137 OFFCURVE",
"497 313 CURVE SMOOTH",
"497 491 OFFCURVE",
"355 631 OFFCURVE",
"202 631 CURVE SMOOTH",
"161 631 OFFCURVE",
"132 621 OFFCURVE",
"110 610 CURVE"
);
}
);
width = 557;
}
);
rightMetricsKey = zero_chakma;
unicode = 1113B;
script = "";
category = Number;
subCategory = "Decimal Digit";
},
{
glyphname = six_chakma;
lastChange = "2018-05-08 16:46:17 +0000";
layers = (
{
layerId = "1D72C4DB-D20D-420D-B086-1F84B9DB7C9C";
paths = (
{
closed = 1;
nodes = (
"596 23 LINE",
"532 197 OFFCURVE",
"403 265 OFFCURVE",
"279 338 CURVE SMOOTH",
"199 385 OFFCURVE",
"155 419 OFFCURVE",
"155 475 CURVE SMOOTH",
"155 529 OFFCURVE",
"195 563 OFFCURVE",
"259 563 CURVE SMOOTH",
"358 563 OFFCURVE",
"416 483 OFFCURVE",
"416 306 CURVE SMOOTH",
"416 104 OFFCURVE",
"340 57 OFFCURVE",
"270 57 CURVE SMOOTH",
"197 57 OFFCURVE",
"150 107 OFFCURVE",
"150 169 CURVE SMOOTH",
"150 237 OFFCURVE",
"205 292 OFFCURVE",
"262 327 CURVE",
"174 346 LINE",
"94 286 OFFCURVE",
"60 221 OFFCURVE",
"60 160 CURVE SMOOTH",
"60 53 OFFCURVE",
"165 -10 OFFCURVE",
"269 -10 CURVE SMOOTH",
"433 -10 OFFCURVE",
"506 148 OFFCURVE",
"506 310 CURVE SMOOTH",
"506 500 OFFCURVE",
"400 631 OFFCURVE",
"252 631 CURVE SMOOTH",
"145 631 OFFCURVE",
"65 562 OFFCURVE",
"65 474 CURVE SMOOTH",
"65 377 OFFCURVE",
"167 313 OFFCURVE",
"275 251 CURVE SMOOTH",
"380 191 OFFCURVE",
"460 145 OFFCURVE",
"525 0 CURVE"
);
}
);
width = 650;
}
);
unicode = 1113C;
script = "";
category = Number;
subCategory = "Decimal Digit";
},
{
glyphname = seven_chakma;
lastChange = "2018-05-08 16:46:17 +0000";
layers = (
{
layerId = "1D72C4DB-D20D-420D-B086-1F84B9DB7C9C";
paths = (
{
closed = 1;
nodes = (
"177 -20 LINE",
"323 109 OFFCURVE",
"488 294 OFFCURVE",
"488 448 CURVE SMOOTH",
"488 561 OFFCURVE",
"403 631 OFFCURVE",
"290 631 CURVE SMOOTH",
"164 631 OFFCURVE",
"60 553 OFFCURVE",
"60 438 CURVE SMOOTH",
"60 338 OFFCURVE",
"147 278 OFFCURVE",
"248 278 CURVE SMOOTH",
"370.656 278 OFFCURVE",
"442.549 365.55 OFFCURVE",
"474.404 459.244 CURVE",
"414.614 446.348 LINE",
"385.83 389.232 OFFCURVE",
"331.244 345 OFFCURVE",
"260 345 CURVE SMOOTH",
"195 345 OFFCURVE",
"150 383 OFFCURVE",
"150 446 CURVE SMOOTH",
"150 517 OFFCURVE",
"207 564 OFFCURVE",
"280 564 CURVE SMOOTH",
"347 564 OFFCURVE",
"398 525 OFFCURVE",
"398 445 CURVE SMOOTH",
"398 312 OFFCURVE",
"257 145 OFFCURVE",
"127 24 CURVE"
);
}
);
width = 548;
}
);
rightMetricsKey = zero_chakma;
unicode = 1113D;
script = "";
category = Number;
subCategory = "Decimal Digit";
},
{
glyphname = eight_chakma;
lastChange = "2018-05-08 16:46:17 +0000";
layers = (
{
layerId = "1D72C4DB-D20D-420D-B086-1F84B9DB7C9C";
paths = (
{
closed = 1;
nodes = (
"510 491 LINE",
"494 377 OFFCURVE",
"378 375 OFFCURVE",
"235 385 CURVE",
"235 318 LINE",
"457 298 OFFCURVE",
"584 332 OFFCURVE",
"599 516 CURVE"
);
},
{
closed = 1;
nodes = (
"235 318 LINE",
"335 307 OFFCURVE",
"400 253 OFFCURVE",
"400 171 CURVE SMOOTH",
"400 104 OFFCURVE",
"357 57 OFFCURVE",
"297 57 CURVE SMOOTH",
"218 57 OFFCURVE",
"150 134 OFFCURVE",
"150 285 CURVE SMOOTH",
"150 377 OFFCURVE",
"181 518 OFFCURVE",
"226 610 CURVE",
"154 628 LINE",
"92 527 OFFCURVE",
"60 385 OFFCURVE",
"60 279 CURVE SMOOTH",
"60 95 OFFCURVE",
"163 -10 OFFCURVE",
"293 -10 CURVE SMOOTH",
"406 -10 OFFCURVE",
"490 63 OFFCURVE",
"490 171 CURVE SMOOTH",
"490 259 OFFCURVE",
"436 346 OFFCURVE",
"235 385 CURVE"
);
}
);
width = 649;
}
);
leftMetricsKey = zero_chakma;
unicode = 1113E;
script = "";
category = Number;
subCategory = "Decimal Digit";
},
{
glyphname = nine_chakma;
lastChange = "2018-05-08 16:46:17 +0000";
layers = (
{
components = (
{
name = zero_chakma;
}
);
layerId = "1D72C4DB-D20D-420D-B086-1F84B9DB7C9C";
paths = (
{
closed = 1;
nodes = (
"963 57 LINE",
"870 101 OFFCURVE",
"684 213 OFFCURVE",
"684 423 CURVE SMOOTH",
"684 504 OFFCURVE",
"712 555 OFFCURVE",
"750 555 CURVE SMOOTH",
"780 555 OFFCURVE",
"815 523 OFFCURVE",
"815 421 CURVE SMOOTH",
"815 317 OFFCURVE",
"780 67 OFFCURVE",
"673 67 CURVE SMOOTH",
"639 67 OFFCURVE",
"600 93 OFFCURVE",
"591 169 CURVE",
"411 169 LINE",
"411 102 LINE",
"538 102 LINE",
"566 25 OFFCURVE",
"625 0 OFFCURVE",
"672 0 CURVE SMOOTH",
"815 0 OFFCURVE",
"905 226 OFFCURVE",
"905 414 CURVE SMOOTH",
"905 588 OFFCURVE",
"807 622 OFFCURVE",
"752 622 CURVE SMOOTH",
"667 622 OFFCURVE",
"594 554 OFFCURVE",
"594 430 CURVE SMOOTH",
"594 253 OFFCURVE",
"743 49 OFFCURVE",
"932 -20 CURVE"
);
},
{
closed = 1;
nodes = (
"618 494 LINE",
"451 494 LINE",
"451 427 LINE",
"618 427 LINE"
);
}
);
width = 993;
}
);
leftMetricsKey = zero_chakma;
unicode = 1113F;
script = "";
category = Number;
subCategory = "Decimal Digit";
},
{
glyphname = section_chakma;
lastChange = "2018-05-08 16:46:17 +0000";
layers = (
{
layerId = "1D72C4DB-D20D-420D-B086-1F84B9DB7C9C";
paths = (
{
closed = 1;
nodes = (
"302 421 OFFCURVE",
"281 448 OFFCURVE",
"281 486 CURVE SMOOTH",
"281 524 OFFCURVE",
"302 545 OFFCURVE",
"332 545 CURVE SMOOTH",
"362 545 OFFCURVE",
"381 524 OFFCURVE",
"381 486 CURVE SMOOTH",
"381 448 OFFCURVE",
"362 421 OFFCURVE",
"332 421 CURVE SMOOTH"
);
},
{
closed = 1;
nodes = (
"399 361 OFFCURVE",
"440 408 OFFCURVE",
"440 486 CURVE SMOOTH",
"440 563 OFFCURVE",
"399 605 OFFCURVE",
"333 605 CURVE SMOOTH",
"268 605 OFFCURVE",
"222 563 OFFCURVE",
"222 486 CURVE SMOOTH",
"222 408 OFFCURVE",
"268 361 OFFCURVE",
"333 361 CURVE SMOOTH"
);
},
{
closed = 1;
nodes = (
"489 225 OFFCURVE",
"468 252 OFFCURVE",
"468 290 CURVE SMOOTH",
"468 328 OFFCURVE",
"489 349 OFFCURVE",
"519 349 CURVE SMOOTH",
"549 349 OFFCURVE",
"568 328 OFFCURVE",
"568 290 CURVE SMOOTH",
"568 252 OFFCURVE",
"549 225 OFFCURVE",
"519 225 CURVE SMOOTH"
);
},
{
closed = 1;
nodes = (
"586 165 OFFCURVE",
"627 212 OFFCURVE",
"627 290 CURVE SMOOTH",
"627 367 OFFCURVE",
"586 409 OFFCURVE",
"520 409 CURVE SMOOTH",
"455 409 OFFCURVE",
"409 367 OFFCURVE",
"409 290 CURVE SMOOTH",
"409 212 OFFCURVE",
"455 165 OFFCURVE",
"520 165 CURVE SMOOTH"
);
},
{
closed = 1;
nodes = (
"120 225 OFFCURVE",
"99 252 OFFCURVE",
"99 290 CURVE SMOOTH",
"99 328 OFFCURVE",
"120 349 OFFCURVE",
"150 349 CURVE SMOOTH",
"180 349 OFFCURVE",
"199 328 OFFCURVE",
"199 290 CURVE SMOOTH",
"199 252 OFFCURVE",
"180 225 OFFCURVE",
"150 225 CURVE SMOOTH"
);
},
{
closed = 1;
nodes = (
"217 165 OFFCURVE",
"258 212 OFFCURVE",
"258 290 CURVE SMOOTH",
"258 367 OFFCURVE",
"217 409 OFFCURVE",
"151 409 CURVE SMOOTH",
"86 409 OFFCURVE",
"40 367 OFFCURVE",
"40 290 CURVE SMOOTH",
"40 212 OFFCURVE",
"86 165 OFFCURVE",
"151 165 CURVE SMOOTH"
);
},
{
closed = 1;
nodes = (
"302 30 OFFCURVE",
"281 57 OFFCURVE",
"281 95 CURVE SMOOTH",
"281 133 OFFCURVE",
"302 154 OFFCURVE",
"332 154 CURVE SMOOTH",
"362 154 OFFCURVE",
"381 133 OFFCURVE",
"381 95 CURVE SMOOTH",
"381 57 OFFCURVE",
"362 30 OFFCURVE",
"332 30 CURVE SMOOTH"
);
},
{
closed = 1;
nodes = (
"399 -30 OFFCURVE",
"440 17 OFFCURVE",
"440 95 CURVE SMOOTH",
"440 172 OFFCURVE",
"399 214 OFFCURVE",
"333 214 CURVE SMOOTH",
"268 214 OFFCURVE",
"222 172 OFFCURVE",
"222 95 CURVE SMOOTH",
"222 17 OFFCURVE",
"268 -30 OFFCURVE",
"333 -30 CURVE SMOOTH"
);
}
);
width = 667;
}
);
unicode = 11140;
script = "";
category = Symbol;
subCategory = Composition;
},
{
glyphname = danda_chakma;
lastChange = "2018-05-08 16:46:17 +0000";
layers = (
{
layerId = "1D72C4DB-D20D-420D-B086-1F84B9DB7C9C";
paths = (
{
closed = 1;
nodes = (
"130 0 LINE",
"220 0 LINE",
"220 545 LINE",
"130 545 LINE"
);
}
);
width = 290;
}
);
unicode = 11141;
script = devanagari;
category = Punctuation;
subCategory = Composition;
},
{
glyphname = question_chakma;
lastChange = "2018-05-08 16:46:17 +0000";
layers = (
{
layerId = "1D72C4DB-D20D-420D-B086-1F84B9DB7C9C";
paths = (
{
closed = 1;
nodes = (
"152 -10 LINE",
"152 177 LINE",
"105 186 LINE",
"126 172 OFFCURVE",
"157 157 OFFCURVE",
"197 157 CURVE SMOOTH",
"287 157 OFFCURVE",
"342 234 OFFCURVE",
"342 329 CURVE SMOOTH",
"342 425 OFFCURVE",
"286 481 OFFCURVE",
"203 481 CURVE SMOOTH",
"164 481 OFFCURVE",
"132 469 OFFCURVE",
"105 447 CURVE",
"152 461 LINE",
"152 620 LINE",
"62 620 LINE",
"62 386 LINE",
"152 386 LINE",
"158 402 OFFCURVE",
"171 415 OFFCURVE",
"194 415 CURVE SMOOTH",
"224 415 OFFCURVE",
"252 396 OFFCURVE",
"252 330 CURVE SMOOTH",
"252 261 OFFCURVE",
"222 230 OFFCURVE",
"190 230 CURVE SMOOTH",
"174 230 OFFCURVE",
"161 238 OFFCURVE",
"152 246 CURVE",
"62 246 LINE",
"62 -10 LINE"
);
}
);
width = 384;
}
);
unicode = 11143;
script = "";
category = Punctuation;
subCategory = Composition;
},
{
glyphname = lhaa_chakma;
lastChange = "2018-05-08 16:47:40 +0000";
layers = (
{
components = (
{
name = waa_chakma;
}
);
layerId = "1D72C4DB-D20D-420D-B086-1F84B9DB7C9C";
paths = (
{
closed = 1;
nodes = (
"1053 27 LINE",
"970 57 OFFCURVE",
"784 143 OFFCURVE",
"784 352 CURVE SMOOTH",
"784 429 OFFCURVE",
"808 483 OFFCURVE",
"841 483 CURVE SMOOTH",
"876 483 OFFCURVE",
"899 419 OFFCURVE",
"899 340 CURVE SMOOTH",
"899 209 OFFCURVE",
"839 57 OFFCURVE",
"753 57 CURVE SMOOTH",
"694 57 OFFCURVE",
"657 130 OFFCURVE",
"664 199 CURVE",
"511 199 LINE",
"511 132 LINE",
"601 132 LINE",
"613 65 OFFCURVE",
"668 -10 OFFCURVE",
"749 -10 CURVE SMOOTH",
"877 -10 OFFCURVE",
"989 176 OFFCURVE",
"989 345 CURVE SMOOTH",
"989 488 OFFCURVE",
"912 550 OFFCURVE",
"845 550 CURVE SMOOTH",
"772 550 OFFCURVE",
"694 479 OFFCURVE",
"694 353 CURVE SMOOTH",
"694 188 OFFCURVE",
"827 19 OFFCURVE",
"1022 -50 CURVE"
);
},
{
closed = 1;
nodes = (
"728 444 LINE",
"511 444 LINE",
"511 377 LINE",
"728 377 LINE"
);
}
);
width = 1091;
}
);
unicode = 11144;
script = "";
category = Letter;
subCategory = Other;
},
{
glyphname = aaMatra_chakma;
lastChange = "2018-05-08 16:46:44 +0000";
layers = (
{
layerId = "1D72C4DB-D20D-420D-B086-1F84B9DB7C9C";
paths = (
{
closed = 1;
nodes = (
"273 66 LINE",
"259 52 OFFCURVE",
"238 35 OFFCURVE",
"218 35 CURVE SMOOTH",
"181 35 OFFCURVE",
"170 90 OFFCURVE",
"170 248 CURVE SMOOTH",
"170 426 LINE SMOOTH",
"170 540 OFFCURVE",
"124 570 OFFCURVE",
"65 570 CURVE SMOOTH",
"-9 570 OFFCURVE",
"-82 523 OFFCURVE",
"-146 436 CURVE",
"-98 388 LINE",
"-60 444 OFFCURVE",
"1 502 OFFCURVE",
"46 502 CURVE SMOOTH",
"70 502 OFFCURVE",
"80 484 OFFCURVE",
"80 424 CURVE SMOOTH",
"80 152 LINE SMOOTH",
"80 15 OFFCURVE",
"131 -32 OFFCURVE",
"200 -32 CURVE SMOOTH",
"256 -32 OFFCURVE",
"291 2 OFFCURVE",
"307 24 CURVE"
);
}
);
width = 0;
}
);
unicode = 11145;
script = chakma;
category = Mark;
subCategory = Nonspacing;
},
{
glyphname = eiMatra_chakma;
lastChange = "2018-05-08 16:46:44 +0000";
layers = (
{
layerId = "1D72C4DB-D20D-420D-B086-1F84B9DB7C9C";
paths = (
{
closed = 1;
nodes = (
"263 317 LINE",
"218 361 OFFCURVE",
"174 384 OFFCURVE",
"119 384 CURVE SMOOTH",
"36 384 OFFCURVE",
"-33 322 OFFCURVE",
"-33 253 CURVE SMOOTH",
"-33 198 OFFCURVE",
"11 153 OFFCURVE",
"64 153 CURVE SMOOTH",
"143 153 OFFCURVE",
"208 252 OFFCURVE",
"208 340 CURVE SMOOTH",
"208 435 OFFCURVE",
"134 489 OFFCURVE",
"43 489 CURVE SMOOTH",
"-43 489 OFFCURVE",
"-106 441 OFFCURVE",
"-146 382 CURVE",
"-146 319 LINE",
"-95 388 OFFCURVE",
"-35 427 OFFCURVE",
"24 427 CURVE SMOOTH",
"76 427 OFFCURVE",
"126 397 OFFCURVE",
"126 322 CURVE SMOOTH",
"126 273 OFFCURVE",
"105 220 OFFCURVE",
"70 220 CURVE SMOOTH",
"56 220 OFFCURVE",
"41 228 OFFCURVE",
"41 253 CURVE SMOOTH",
"41 290 OFFCURVE",
"73 317 OFFCURVE",
"120 317 CURVE SMOOTH",
"194 317 OFFCURVE",
"245 250 OFFCURVE",
"245 128 CURVE",
"322 128 LINE",
"322 310 OFFCURVE",
"359 524 OFFCURVE",
"466 656 CURVE",
"398 691 LINE",
"303 565 OFFCURVE",
"245 378 OFFCURVE",
"245 215 CURVE"
);
}
);
width = 0;
}
);
unicode = 11146;
script = chakma;
category = Mark;
subCategory = Nonspacing;
},
{
glyphname = u_chakma.below;
lastChange = "2018-05-08 16:47:03 +0000";
layers = (
{
layerId = "1D72C4DB-D20D-420D-B086-1F84B9DB7C9C";
paths = (
{
closed = 1;
nodes = (
"-128 -243 LINE",
"-132 -260 OFFCURVE",
"-149 -305 OFFCURVE",
"-233 -305 CURVE SMOOTH",
"-266 -305 OFFCURVE",
"-311 -298 OFFCURVE",
"-311 -266 CURVE SMOOTH",
"-311 -240 OFFCURVE",
"-280 -231 OFFCURVE",
"-218 -215 CURVE SMOOTH",
"-138 -194 OFFCURVE",
"-50 -168 OFFCURVE",
"-50 -95 CURVE SMOOTH",
"-50 -26 OFFCURVE",
"-128 0 OFFCURVE",
"-206 0 CURVE SMOOTH",
"-324 0 OFFCURVE",
"-383 -55 OFFCURVE",
"-383 -136 CURVE",
"-306 -124 LINE",
"-303 -100 OFFCURVE",
"-286 -60 OFFCURVE",
"-207 -60 CURVE SMOOTH",
"-160 -60 OFFCURVE",
"-132 -73 OFFCURVE",
"-132 -102 CURVE SMOOTH",
"-132 -130 OFFCURVE",
"-157 -140 OFFCURVE",
"-224 -161 CURVE SMOOTH",
"-310 -188 OFFCURVE",
"-393 -207 OFFCURVE",
"-393 -275 CURVE SMOOTH",
"-393 -342 OFFCURVE",
"-310 -365 OFFCURVE",
"-227 -365 CURVE SMOOTH",
"-72 -365 OFFCURVE",
"-44 -288 OFFCURVE",
"-44 -224 CURVE"
);
}
);
width = 0;
}
);
script = chakma;
category = Mark;
subCategory = Nonspacing;
},
{
glyphname = e_chakma.below;
lastChange = "2018-05-08 16:46:47 +0000";
layers = (
{
layerId = "1D72C4DB-D20D-420D-B086-1F84B9DB7C9C";
paths = (
{
closed = 1;
nodes = (
"138 683 LINE",
"152 671 OFFCURVE",
"176 635 OFFCURVE",
"176 574 CURVE SMOOTH",
"176 532 OFFCURVE",
"158 492 OFFCURVE",
"130 455 CURVE SMOOTH",
"70 376 OFFCURVE",
"-4 314 OFFCURVE",
"-4 236 CURVE SMOOTH",
"-4 165 OFFCURVE",
"54 142 OFFCURVE",
"98 142 CURVE SMOOTH",
"179 142 OFFCURVE",
"219 217 OFFCURVE",
"219 293 CURVE SMOOTH",
"219 415 OFFCURVE",
"133 476 OFFCURVE",
"49 476 CURVE SMOOTH",
"-10 476 OFFCURVE",
"-71 447 OFFCURVE",
"-121 395 CURVE",
"-121 323 LINE",
"-65 388 OFFCURVE",
"-13 409 OFFCURVE",
"29 409 CURVE SMOOTH",
"102 409 OFFCURVE",
"136 345 OFFCURVE",
"136 277 CURVE SMOOTH",
"136 225 OFFCURVE",
"119 203 OFFCURVE",
"101 203 CURVE SMOOTH",
"88 203 OFFCURVE",
"78 215 OFFCURVE",
"78 240 CURVE SMOOTH",
"78 298 OFFCURVE",
"133 352 OFFCURVE",
"175 408 CURVE SMOOTH",
"214 460 OFFCURVE",
"248 520 OFFCURVE",
"248 584 CURVE SMOOTH",
"248 654 OFFCURVE",
"225 695 OFFCURVE",
"184 738 CURVE"
);
}
);
width = 0;
}
);
script = chakma;
category = Mark;
subCategory = Nonspacing;
},
{
glyphname = kaa_chakma.below;
lastChange = "2018-05-08 16:47:19 +0000";
layers = (
{
layerId = "1D72C4DB-D20D-420D-B086-1F84B9DB7C9C";
paths = (
{
closed = 1;
nodes = (
"-399 -323 LINE",
"-439 -287 OFFCURVE",
"-466 -233 OFFCURVE",
"-466 -175 CURVE SMOOTH",
"-466 -106 OFFCURVE",
"-428 -60 OFFCURVE",
"-372 -60 CURVE SMOOTH",
"-317 -60 OFFCURVE",
"-276 -103 OFFCURVE",
"-276 -187 CURVE",
"-194 -187 LINE",
"-194 -106 OFFCURVE",
"-155 -60 OFFCURVE",
"-100 -60 CURVE SMOOTH",
"-44 -60 OFFCURVE",
"-2 -109 OFFCURVE",
"-2 -178 CURVE SMOOTH",
"-2 -234 OFFCURVE",
"-30 -287 OFFCURVE",
"-70 -323 CURVE",
"-17 -362 LINE",
"36 -319 OFFCURVE",
"80 -243 OFFCURVE",
"80 -172 CURVE SMOOTH",
"80 -77 OFFCURVE",
"2 0 OFFCURVE",
"-91 0 CURVE SMOOTH",
"-151 0 OFFCURVE",
"-215 -32 OFFCURVE",
"-242 -113 CURVE",
"-227 -113 LINE",
"-250 -38 OFFCURVE",
"-319 0 OFFCURVE",
"-382 0 CURVE SMOOTH",
"-474 0 OFFCURVE",
"-548 -79 OFFCURVE",
"-548 -175 CURVE SMOOTH",
"-548 -249 OFFCURVE",
"-503 -321 OFFCURVE",
"-451 -362 CURVE"
);
}
);
width = 0;
}
);
script = chakma;
category = Mark;
subCategory = Nonspacing;
},
{
glyphname = khaa_chakma.below;
lastChange = "2018-05-08 16:46:34 +0000";
layers = (
{
layerId = "1D72C4DB-D20D-420D-B086-1F84B9DB7C9C";
paths = (
{
closed = 1;
nodes = (
"-18 -62 OFFCURVE",
"-116 -1 OFFCURVE",
"-226 -1 CURVE SMOOTH",
"-351 -1 OFFCURVE",
"-436 -76 OFFCURVE",
"-436 -183 CURVE SMOOTH",
"-436 -260 OFFCURVE",
"-391 -318 OFFCURVE",
"-339 -352 CURVE",
"-288 -313 LINE",
"-328 -280 OFFCURVE",
"-354 -236 OFFCURVE",
"-354 -186 CURVE SMOOTH",
"-354 -114 OFFCURVE",
"-296 -61 OFFCURVE",
"-227 -61 CURVE SMOOTH",
"-157 -61 OFFCURVE",
"-100 -115 OFFCURVE",
"-100 -204 CURVE SMOOTH",
"-100 -246 OFFCURVE",
"-113 -308 OFFCURVE",
"-143 -308 CURVE SMOOTH",
"-160 -308 OFFCURVE",
"-170 -289 OFFCURVE",
"-170 -266 CURVE SMOOTH",
"-170 -233 OFFCURVE",
"-149 -214 OFFCURVE",
"-117 -214 CURVE SMOOTH",
"-92.093 -214 OFFCURVE",
"-64.343 -225.886 OFFCURVE",
"-42.814 -239.806 CURVE",
"-36.549 -197.297 LINE",
"-59.263 -181.878 OFFCURVE",
"-89.149 -168 OFFCURVE",
"-123 -168 CURVE SMOOTH",
"-180 -168 OFFCURVE",
"-232 -207 OFFCURVE",
"-232 -268 CURVE SMOOTH",
"-232 -317 OFFCURVE",
"-194 -353 OFFCURVE",
"-145 -353 CURVE SMOOTH",
"-71 -353 OFFCURVE",
"-18 -265 OFFCURVE",
"-18 -178 CURVE SMOOTH"
);
}
);
width = 0;
}
);
script = chakma;
category = Mark;
subCategory = Nonspacing;
},
{
glyphname = gaa_chakma.below;
lastChange = "2018-05-08 16:46:34 +0000";
layers = (
{
layerId = "1D72C4DB-D20D-420D-B086-1F84B9DB7C9C";
paths = (
{
closed = 1;
nodes = (
"-286 -313 LINE",
"-326 -280 OFFCURVE",
"-352 -238 OFFCURVE",
"-352 -187 CURVE SMOOTH",
"-352 -112 OFFCURVE",
"-291 -60 OFFCURVE",
"-225 -60 CURVE SMOOTH",
"-159 -60 OFFCURVE",
"-98 -112 OFFCURVE",
"-98 -187 CURVE SMOOTH",
"-98 -238 OFFCURVE",
"-124 -280 OFFCURVE",
"-164 -313 CURVE",
"-105 -352 LINE",
"-53 -318 OFFCURVE",
"-16 -265 OFFCURVE",
"-16 -190 CURVE SMOOTH",
"-16 -87 OFFCURVE",
"-101 0 OFFCURVE",
"-225 0 CURVE SMOOTH",
"-349 0 OFFCURVE",
"-434 -87 OFFCURVE",
"-434 -190 CURVE SMOOTH",
"-434 -265 OFFCURVE",
"-389 -318 OFFCURVE",
"-337 -352 CURVE"
);
}
);
width = 0;
}
);
script = chakma;
category = Mark;
subCategory = Nonspacing;
},
{
glyphname = ghaa_chakma.below;
lastChange = "2018-05-08 16:46:34 +0000";
layers = (
{
layerId = "1D72C4DB-D20D-420D-B086-1F84B9DB7C9C";
paths = (
{
closed = 1;
nodes = (
"-17 -352 OFFCURVE",
"56 -262 OFFCURVE",
"56 -163 CURVE SMOOTH",
"56 -63 OFFCURVE",
"-21 10 OFFCURVE",
"-116 10 CURVE",
"-116 -50 LINE",
"-69 -57 OFFCURVE",
"-26 -96 OFFCURVE",
"-26 -167 CURVE SMOOTH",
"-26 -241 OFFCURVE",
"-76 -292 OFFCURVE",
"-148 -292 CURVE SMOOTH",
"-221 -292 OFFCURVE",
"-259 -246 OFFCURVE",
"-270 -228 CURVE",
"-310 -279 LINE",
"-267 -321 OFFCURVE",
"-219 -352 OFFCURVE",
"-146 -352 CURVE SMOOTH"
);
},
{
closed = 1;
nodes = (
"-620 -76 LINE",
"-604 -70 OFFCURVE",
"-589 -67 OFFCURVE",
"-575 -67 CURVE SMOOTH",
"-535 -67 OFFCURVE",
"-515 -92 OFFCURVE",
"-515 -133 CURVE SMOOTH",
"-515 -196 OFFCURVE",
"-562 -221 OFFCURVE",
"-619 -256 CURVE",
"-640 -307 LINE",
"-608 -323 OFFCURVE",
"-543 -351 OFFCURVE",
"-461 -351 CURVE SMOOTH",
"-328 -351 OFFCURVE",
"-220 -276 OFFCURVE",
"-220 -151 CURVE SMOOTH",
"-220 -101 OFFCURVE",
"-237 -49 OFFCURVE",
"-276 -10 CURVE",
"-353 -25 LINE",
"-317 -69 OFFCURVE",
"-302 -107 OFFCURVE",
"-302 -150 CURVE SMOOTH",
"-302 -241 OFFCURVE",
"-370 -291 OFFCURVE",
"-458 -291 CURVE SMOOTH",
"-494 -291 OFFCURVE",
"-519 -283 OFFCURVE",
"-537 -273 CURVE",
"-534 -278 LINE",
"-465 -235 OFFCURVE",
"-434 -189 OFFCURVE",
"-434 -129 CURVE SMOOTH",
"-434 -58 OFFCURVE",
"-479 -11 OFFCURVE",
"-558 -11 CURVE SMOOTH",
"-578 -11 OFFCURVE",
"-598 -14 OFFCURVE",
"-620 -22 CURVE"
);
}
);
width = 0;
}
);
script = chakma;
category = Mark;
subCategory = Nonspacing;
},
{
glyphname = ngaa_chakma.below;
lastChange = "2018-05-08 16:46:34 +0000";
layers = (
{
layerId = "1D72C4DB-D20D-420D-B086-1F84B9DB7C9C";
paths = (
{
closed = 1;
nodes = (
"-68 -239 LINE",
"-86 -277 OFFCURVE",
"-123 -304 OFFCURVE",
"-190 -304 CURVE SMOOTH",
"-242 -304 OFFCURVE",
"-282 -288 OFFCURVE",
"-282 -247 CURVE SMOOTH",
"-282 -217 OFFCURVE",
"-261 -195 OFFCURVE",
"-207 -195 CURVE SMOOTH",
"-191 -195 LINE",
"-191 -151 LINE",
"-204 -151 LINE SMOOTH",
"-239 -151 OFFCURVE",
"-271 -137 OFFCURVE",
"-271 -108 CURVE SMOOTH",
"-271 -76 OFFCURVE",
"-235 -59 OFFCURVE",
"-179 -59 CURVE SMOOTH",
"-112 -59 OFFCURVE",
"-85 -84 OFFCURVE",
"-71 -102 CURVE",
"-25 -74 LINE",
"-53 -39 OFFCURVE",
"-96 -1 OFFCURVE",
"-191 -1 CURVE SMOOTH",
"-292 -1 OFFCURVE",
"-353 -44 OFFCURVE",
"-353 -104 CURVE SMOOTH",
"-353 -131 OFFCURVE",
"-340 -160 OFFCURVE",
"-297 -178 CURVE",
"-297 -169 LINE",
"-341 -181 OFFCURVE",
"-363 -215 OFFCURVE",
"-363 -252 CURVE SMOOTH",
"-363 -315 OFFCURVE",
"-298 -364 OFFCURVE",
"-194 -364 CURVE SMOOTH",
"-73 -364 OFFCURVE",
"-37 -295 OFFCURVE",
"-12 -247 CURVE"
);
}
);
width = 0;
}
);
script = chakma;
category = Mark;
subCategory = Nonspacing;
},
{
glyphname = caa_chakma.below;
lastChange = "2018-05-08 16:46:34 +0000";
layers = (
{
layerId = "1D72C4DB-D20D-420D-B086-1F84B9DB7C9C";
paths = (
{
closed = 1;
nodes = (
"-397 -74 LINE",
"-381 -68 OFFCURVE",
"-367 -66 OFFCURVE",
"-356 -66 CURVE SMOOTH",
"-313 -66 OFFCURVE",
"-288 -97 OFFCURVE",
"-288 -139 CURVE SMOOTH",
"-288 -199 OFFCURVE",
"-343 -243 OFFCURVE",
"-398 -268 CURVE",
"-417 -317 LINE",
"-385 -333 OFFCURVE",
"-320 -361 OFFCURVE",
"-237 -361 CURVE SMOOTH",
"-105 -361 OFFCURVE",
"3 -286 OFFCURVE",
"3 -151 CURVE SMOOTH",
"3 -101 OFFCURVE",
"-13 -46 OFFCURVE",
"-53 0 CURVE",
"-130 -15 LINE",
"-94 -59 OFFCURVE",
"-79 -107 OFFCURVE",
"-79 -152 CURVE SMOOTH",
"-79 -251 OFFCURVE",
"-152 -301 OFFCURVE",
"-232 -301 CURVE SMOOTH",
"-257 -301 OFFCURVE",
"-285 -296 OFFCURVE",
"-310 -279 CURVE",
"-307 -284 LINE",
"-229 -241 OFFCURVE",
"-206 -193 OFFCURVE",
"-206 -135 CURVE SMOOTH",
"-206 -51 OFFCURVE",
"-257 -10 OFFCURVE",
"-334 -10 CURVE SMOOTH",
"-355 -10 OFFCURVE",
"-375 -13 OFFCURVE",
"-397 -21 CURVE"
);
}
);
width = 0;
}
);
script = chakma;
category = Mark;
subCategory = Nonspacing;
},
{
glyphname = chaa_chakma.below;
lastChange = "2018-05-08 16:46:34 +0000";
layers = (
{
layerId = "1D72C4DB-D20D-420D-B086-1F84B9DB7C9C";
paths = (
{
closed = 1;
nodes = (
"-398 -74 LINE",
"-382 -68 OFFCURVE",
"-370 -66 OFFCURVE",
"-360 -66 CURVE SMOOTH",
"-317 -66 OFFCURVE",
"-288 -101 OFFCURVE",
"-288 -161 CURVE SMOOTH",
"-288 -223 OFFCURVE",
"-319 -305 OFFCURVE",
"-365 -305 CURVE SMOOTH",
"-382 -305 OFFCURVE",
"-398 -294 OFFCURVE",
"-398 -270 CURVE SMOOTH",
"-398 -246 OFFCURVE",
"-381 -230 OFFCURVE",
"-358 -230 CURVE SMOOTH",
"-292 -230 OFFCURVE",
"-296 -362 OFFCURVE",
"-168 -362 CURVE SMOOTH",
"-43 -362 OFFCURVE",
"7 -240 OFFCURVE",
"7 -154 CURVE SMOOTH",
"7 -96 OFFCURVE",
"-15 -41 OFFCURVE",
"-55 0 CURVE",
"-130 -15 LINE",
"-98 -49 OFFCURVE",
"-75 -99 OFFCURVE",
"-75 -156 CURVE SMOOTH",
"-75 -223 OFFCURVE",
"-108 -302 OFFCURVE",
"-165 -302 CURVE SMOOTH",
"-237 -302 OFFCURVE",
"-255 -174 OFFCURVE",
"-363 -174 CURVE SMOOTH",
"-417 -174 OFFCURVE",
"-463 -206 OFFCURVE",
"-463 -269 CURVE SMOOTH",
"-463 -336 OFFCURVE",
"-415 -362 OFFCURVE",
"-369 -362 CURVE SMOOTH",
"-261 -362 OFFCURVE",
"-206 -218 OFFCURVE",
"-206 -142 CURVE SMOOTH",
"-206 -68 OFFCURVE",
"-257 -10 OFFCURVE",
"-335 -10 CURVE SMOOTH",
"-356 -10 OFFCURVE",
"-377 -14 OFFCURVE",
"-398 -21 CURVE"
);
}
);
width = 0;
}
);
script = chakma;
category = Mark;
subCategory = Nonspacing;
},
{
glyphname = jaa_chakma.below;
lastChange = "2018-05-08 16:46:34 +0000";
layers = (
{
layerId = "1D72C4DB-D20D-420D-B086-1F84B9DB7C9C";
paths = (
{
closed = 1;
nodes = (
"-381 -245 LINE",
"-350 -313 OFFCURVE",
"-271 -355 OFFCURVE",
"-180 -355 CURVE SMOOTH",
"-78 -355 OFFCURVE",
"1 -296 OFFCURVE",
"1 -224 CURVE SMOOTH",
"1 -161 OFFCURVE",
"-59 -109 OFFCURVE",
"-117 -109 CURVE SMOOTH",
"-162 -109 OFFCURVE",
"-197 -140 OFFCURVE",
"-197 -179 CURVE SMOOTH",
"-197 -214 OFFCURVE",
"-165 -242 OFFCURVE",
"-125 -242 CURVE SMOOTH",
"-65 -242 OFFCURVE",
"2 -178 OFFCURVE",
"2 -113 CURVE SMOOTH",
"2 -44 OFFCURVE",
"-72 0 OFFCURVE",
"-174 0 CURVE SMOOTH",
"-276 0 OFFCURVE",
"-364 -45 OFFCURVE",
"-364 -113 CURVE SMOOTH",
"-364 -157 OFFCURVE",
"-329 -181 OFFCURVE",
"-292 -181 CURVE SMOOTH",
"-247 -181 OFFCURVE",
"-210 -145 OFFCURVE",
"-210 -108 CURVE SMOOTH",
"-210 -75 OFFCURVE",
"-238 -47 OFFCURVE",
"-281 -47 CURVE SMOOTH",
"-303.01 -47 OFFCURVE",
"-319.924 -55.918 OFFCURVE",
"-333 -66.744 CURVE",
"-333 -96.171 LINE",
"-316.932 -85.717 OFFCURVE",
"-298.2 -79 OFFCURVE",
"-285 -79 CURVE SMOOTH",
"-267 -79 OFFCURVE",
"-259 -94 OFFCURVE",
"-259 -109 CURVE SMOOTH",
"-259 -128 OFFCURVE",
"-271 -136 OFFCURVE",
"-285 -136 CURVE SMOOTH",
"-301 -136 OFFCURVE",
"-310 -125 OFFCURVE",
"-310 -110 CURVE SMOOTH",
"-310 -66 OFFCURVE",
"-234 -60 OFFCURVE",
"-191 -60 CURVE SMOOTH",
"-112 -60 OFFCURVE",
"-76 -93 OFFCURVE",
"-76 -133 CURVE SMOOTH",
"-76 -165 OFFCURVE",
"-99 -198 OFFCURVE",
"-125 -198 CURVE SMOOTH",
"-141 -198 OFFCURVE",
"-148 -187 OFFCURVE",
"-148 -177 CURVE SMOOTH",
"-148 -165 OFFCURVE",
"-137 -156 OFFCURVE",
"-122 -156 CURVE SMOOTH",
"-96 -156 OFFCURVE",
"-77 -181 OFFCURVE",
"-77 -213 CURVE SMOOTH",
"-77 -271 OFFCURVE",
"-138 -295 OFFCURVE",
"-197 -295 CURVE SMOOTH",
"-268 -295 OFFCURVE",
"-300 -260 OFFCURVE",
"-311 -245 CURVE"
);
}
);
width = 0;
}
);
script = chakma;
category = Mark;
subCategory = Nonspacing;
},
{
glyphname = jhaa_chakma.below;
lastChange = "2018-05-08 16:46:34 +0000";
layers = (
{
layerId = "1D72C4DB-D20D-420D-B086-1F84B9DB7C9C";
paths = (
{
closed = 1;
nodes = (
"-184 -45 LINE",
"-169 -68 OFFCURVE",
"-131 -116 OFFCURVE",
"-65 -116 CURVE SMOOTH",
"20 -116 OFFCURVE",
"66 -36 OFFCURVE",
"76 13 CURVE",
"17 -1 LINE",
"6 -25 OFFCURVE",
"-14 -59 OFFCURVE",
"-53 -59 CURVE SMOOTH",
"-95 -59 OFFCURVE",
"-126 -20 OFFCURVE",
"-138 -2 CURVE"
);
},
{
closed = 1;
nodes = (
"-98 -97 LINE",
"-98 -104 OFFCURVE",
"-98 -120 OFFCURVE",
"-98 -127 CURVE SMOOTH",
"-98 -243 OFFCURVE",
"-163 -288 OFFCURVE",
"-255 -288 CURVE SMOOTH",
"-296 -288 OFFCURVE",
"-321 -279 OFFCURVE",
"-337 -271 CURVE",
"-334 -276 LINE",
"-265 -235 OFFCURVE",
"-224 -188 OFFCURVE",
"-224 -120 CURVE SMOOTH",
"-224 -43 OFFCURVE",
"-275 -3 OFFCURVE",
"-352 -3 CURVE SMOOTH",
"-373 -3 OFFCURVE",
"-393 -6 OFFCURVE",
"-415 -14 CURVE",
"-412 -65 LINE",
"-396 -59 OFFCURVE",
"-384 -57 OFFCURVE",
"-374 -57 CURVE SMOOTH",
"-331 -57 OFFCURVE",
"-306 -92 OFFCURVE",
"-306 -134 CURVE SMOOTH",
"-306 -198 OFFCURVE",
"-362 -232 OFFCURVE",
"-410 -250 CURVE",
"-435 -307 LINE",
"-403 -322 OFFCURVE",
"-338 -349 OFFCURVE",
"-261 -349 CURVE SMOOTH",
"-133 -349 OFFCURVE",
"-16 -277 OFFCURVE",
"-16 -128 CURVE SMOOTH",
"-16 -121 OFFCURVE",
"-16 -104 OFFCURVE",
"-16 -97 CURVE"
);
}
);
width = 0;
}
);
script = chakma;
category = Mark;
subCategory = Nonspacing;
},
{
glyphname = nyaa_chakma.below;
lastChange = "2018-05-08 16:46:34 +0000";
layers = (
{
layerId = "1D72C4DB-D20D-420D-B086-1F84B9DB7C9C";
paths = (
{
closed = 1;
nodes = (
"-189 -250 LINE",
"-198 -266 OFFCURVE",
"-226 -285 OFFCURVE",
"-273 -285 CURVE SMOOTH",
"-316 -285 OFFCURVE",
"-344 -268 OFFCURVE",
"-344 -243 CURVE SMOOTH",
"-344 -180 OFFCURVE",
"-174 -165 OFFCURVE",
"-174 -73 CURVE SMOOTH",
"-174 -19 OFFCURVE",
"-234 0 OFFCURVE",
"-288 0 CURVE SMOOTH",
"-372 0 OFFCURVE",
"-434 -46 OFFCURVE",
"-440 -106 CURVE",
"-363 -94 LINE",
"-355 -74 OFFCURVE",
"-332 -60 OFFCURVE",
"-302 -60 CURVE SMOOTH",
"-275 -60 OFFCURVE",
"-255 -72 OFFCURVE",
"-255 -89 CURVE SMOOTH",
"-255 -138 OFFCURVE",
"-426 -156 OFFCURVE",
"-426 -253 CURVE SMOOTH",
"-426 -316 OFFCURVE",
"-356 -345 OFFCURVE",
"-286 -345 CURVE SMOOTH",
"-188 -345 OFFCURVE",
"-130 -289 OFFCURVE",
"-120 -233 CURVE"
);
},
{
closed = 1;
nodes = (
"-102 -41 LINE",
"-79 -54 OFFCURVE",
"-69 -71 OFFCURVE",
"-69 -92 CURVE SMOOTH",
"-69 -127 OFFCURVE",
"-99 -150 OFFCURVE",
"-143 -150 CURVE SMOOTH",
"-187 -150 OFFCURVE",
"-209 -126 OFFCURVE",
"-219 -110 CURVE",
"-265 -146 LINE",
"-242 -174 OFFCURVE",
"-207 -202 OFFCURVE",
"-137 -202 CURVE SMOOTH",
"-54 -202 OFFCURVE",
"5 -162 OFFCURVE",
"5 -91 CURVE SMOOTH",
"5 -53 OFFCURVE",
"-10 -25 OFFCURVE",
"-40 -4 CURVE"
);
}
);
width = 0;
}
);
script = chakma;
category = Mark;
subCategory = Nonspacing;
},
{
glyphname = ttaa_chakma.below;
lastChange = "2018-05-08 16:46:34 +0000";
layers = (
{
layerId = "1D72C4DB-D20D-420D-B086-1F84B9DB7C9C";
paths = (
{
closed = 1;
nodes = (
"18 -297 LINE",
"-117 -297 LINE",
"-111 -300 LINE",
"11 -183 LINE",
"11 -135 LINE",
"-196 -135 LINE",
"-196 -183 LINE",
"-48 -183 LINE",
"-54 -180 LINE",
"-198 -312 LINE",
"-198 -345 LINE",
"18 -345 LINE"
);
},
{
closed = 1;
nodes = (
"-396 -74 LINE",
"-320 -74 OFFCURVE",
"-260 -96 OFFCURVE",
"-260 -178 CURVE SMOOTH",
"-260 -231 OFFCURVE",
"-290 -266 OFFCURVE",
"-346 -266 CURVE SMOOTH",
"-403 -266 OFFCURVE",
"-437 -230 OFFCURVE",
"-437 -178 CURVE SMOOTH",
"-437 -75 OFFCURVE",
"-315 -60 OFFCURVE",
"-236 -60 CURVE SMOOTH",
"-141 -60 OFFCURVE",
"-63 -78 OFFCURVE",
"19 -116 CURVE",
"19 -56 LINE",
"-23 -35 OFFCURVE",
"-99 0 OFFCURVE",
"-226 0 CURVE SMOOTH",
"-379 0 OFFCURVE",
"-519 -39 OFFCURVE",
"-519 -175 CURVE SMOOTH",
"-519 -275 OFFCURVE",
"-440 -326 OFFCURVE",
"-350 -326 CURVE SMOOTH",
"-239 -326 OFFCURVE",
"-178 -249 OFFCURVE",
"-178 -173 CURVE SMOOTH",
"-178 -93 OFFCURVE",
"-245 -30 OFFCURVE",
"-376 -30 CURVE"
);
}
);
width = 0;
}
);
script = chakma;
category = Mark;
subCategory = Nonspacing;
},
{
glyphname = tthaa_chakma.below;
lastChange = "2018-05-08 16:46:34 +0000";
layers = (
{
layerId = "1D72C4DB-D20D-420D-B086-1F84B9DB7C9C";
paths = (
{
closed = 1;
nodes = (
"-396 -74 LINE",
"-320 -74 OFFCURVE",
"-260 -96 OFFCURVE",
"-260 -178 CURVE SMOOTH",
"-260 -231 OFFCURVE",
"-290 -266 OFFCURVE",
"-346 -266 CURVE SMOOTH",
"-403 -266 OFFCURVE",
"-437 -230 OFFCURVE",
"-437 -178 CURVE SMOOTH",
"-437 -75 OFFCURVE",
"-315 -60 OFFCURVE",
"-236 -60 CURVE SMOOTH",
"-141 -60 OFFCURVE",
"-63 -78 OFFCURVE",
"19 -116 CURVE",
"19 -56 LINE",
"-23 -35 OFFCURVE",
"-99 0 OFFCURVE",
"-226 0 CURVE SMOOTH",
"-379 0 OFFCURVE",
"-519 -39 OFFCURVE",
"-519 -175 CURVE SMOOTH",
"-519 -275 OFFCURVE",
"-440 -326 OFFCURVE",
"-350 -326 CURVE SMOOTH",
"-239 -326 OFFCURVE",
"-178 -249 OFFCURVE",
"-178 -173 CURVE SMOOTH",
"-178 -93 OFFCURVE",
"-245 -30 OFFCURVE",
"-376 -30 CURVE"
);
},
{
closed = 1;
nodes = (
"23.186 -243.814 LINE",
"-6.413 -219.342 OFFCURVE",
"-41.952 -202 OFFCURVE",
"-82 -202 CURVE SMOOTH",
"-142 -202 OFFCURVE",
"-181 -242 OFFCURVE",
"-181 -287 CURVE SMOOTH",
"-181 -332 OFFCURVE",
"-142 -365 OFFCURVE",
"-90 -365 CURVE SMOOTH",
"-26 -365 OFFCURVE",
"26 -315 OFFCURVE",
"26 -244 CURVE SMOOTH",
"26 -176 OFFCURVE",
"-24 -135 OFFCURVE",
"-96 -135 CURVE SMOOTH",
"-202 -135 LINE",
"-202 -183 LINE",
"-111 -183 LINE SMOOTH",
"-55 -183 OFFCURVE",
"-36 -212 OFFCURVE",
"-36 -255 CURVE SMOOTH",
"-36 -306 OFFCURVE",
"-63 -318 OFFCURVE",
"-85 -318 CURVE SMOOTH",
"-110 -318 OFFCURVE",
"-120 -303 OFFCURVE",
"-120 -286 CURVE SMOOTH",
"-120 -266 OFFCURVE",
"-105 -246 OFFCURVE",
"-74 -246 CURVE SMOOTH",
"-50.015 -246 OFFCURVE",
"-26.22 -257.41 OFFCURVE",
"-6.265 -273.265 CURVE"
);
}
);
width = 0;
}
);
script = chakma;
category = Mark;
subCategory = Nonspacing;
},
{
glyphname = ddaa_chakma.below;
lastChange = "2018-05-08 16:46:34 +0000";
layers = (
{
layerId = "1D72C4DB-D20D-420D-B086-1F84B9DB7C9C";
paths = (
{
closed = 1;
nodes = (
"-41 -284 LINE",
"-277 -284 LINE",
"-276 -304 LINE",
"-150 -227 OFFCURVE",
"-42 -164 OFFCURVE",
"-42 -89 CURVE SMOOTH",
"-42 -30 OFFCURVE",
"-107 0 OFFCURVE",
"-181 0 CURVE SMOOTH",
"-310 0 OFFCURVE",
"-363 -86 OFFCURVE",
"-357 -150 CURVE",
"-289 -129 LINE",
"-284 -84 OFFCURVE",
"-252 -49 OFFCURVE",
"-194 -49 CURVE SMOOTH",
"-157 -49 OFFCURVE",
"-122 -63 OFFCURVE",
"-122 -94 CURVE SMOOTH",
"-122 -158 OFFCURVE",
"-277 -268 OFFCURVE",
"-378 -284 CURVE",
"-378 -344 LINE",
"-41 -344 LINE"
);
}
);
width = 0;
}
);
script = chakma;
category = Mark;
subCategory = Nonspacing;
},
{
glyphname = ddhaa_chakma.below;
lastChange = "2018-05-08 16:46:34 +0000";
layers = (
{
layerId = "1D72C4DB-D20D-420D-B086-1F84B9DB7C9C";
paths = (
{
closed = 1;
nodes = (
"-309 -293 OFFCURVE",
"-343 -278 OFFCURVE",
"-357 -271 CURVE",
"-348 -277 LINE",
"-269 -240 OFFCURVE",
"-247 -187 OFFCURVE",
"-247 -138 CURVE SMOOTH",
"-247 -68 OFFCURVE",
"-298 -18 OFFCURVE",
"-374 -18 CURVE SMOOTH",
"-397 -18 OFFCURVE",
"-418 -22 OFFCURVE",
"-439 -29 CURVE",
"-436 -77 LINE",
"-420 -71 OFFCURVE",
"-406 -69 OFFCURVE",
"-394 -69 CURVE SMOOTH",
"-350 -69 OFFCURVE",
"-329 -96 OFFCURVE",
"-329 -138 CURVE SMOOTH",
"-329 -205 OFFCURVE",
"-383 -238 OFFCURVE",
"-440 -260 CURVE",
"-459 -304 LINE",
"-426 -323 OFFCURVE",
"-362 -354 OFFCURVE",
"-279 -354 CURVE SMOOTH",
"-124 -354 OFFCURVE",
"16 -247 OFFCURVE",
"16 -116 CURVE SMOOTH",
"16 -36 OFFCURVE",
"-33 0 OFFCURVE",
"-97 0 CURVE SMOOTH",
"-163 0 OFFCURVE",
"-196 -36 OFFCURVE",
"-196 -83 CURVE SMOOTH",
"-196 -138 OFFCURVE",
"-149 -161 OFFCURVE",
"-109 -161 CURVE SMOOTH",
"-61 -161 OFFCURVE",
"-24.308 -133.417 OFFCURVE",
"5.047 -107.872 CURVE",
"-6.861 -66.688 LINE",
"-32.012 -88.862 OFFCURVE",
"-65.767 -111 OFFCURVE",
"-97 -111 CURVE SMOOTH",
"-112 -111 OFFCURVE",
"-134 -106 OFFCURVE",
"-134 -82 CURVE SMOOTH",
"-134 -64 OFFCURVE",
"-122 -49 OFFCURVE",
"-101 -49 CURVE SMOOTH",
"-82 -49 OFFCURVE",
"-67 -61 OFFCURVE",
"-67 -103 CURVE SMOOTH",
"-67 -235 OFFCURVE",
"-170 -293 OFFCURVE",
"-262 -293 CURVE SMOOTH"
);
}
);
width = 0;
}
);
script = chakma;
category = Mark;
subCategory = Nonspacing;
},
{
glyphname = nnaa_chakma.below;
lastChange = "2018-05-08 16:46:34 +0000";
layers = (
{
layerId = "1D72C4DB-D20D-420D-B086-1F84B9DB7C9C";
paths = (
{
closed = 1;
nodes = (
"-114 -354 LINE",
"-42 -309 OFFCURVE",
"11 -243 OFFCURVE",
"11 -160 CURVE SMOOTH",
"11 -53 OFFCURVE",
"-66 0 OFFCURVE",
"-154 0 CURVE SMOOTH",
"-223 0 OFFCURVE",
"-288 -31 OFFCURVE",
"-288 -103 CURVE SMOOTH",
"-288 -140 OFFCURVE",
"-272 -159 OFFCURVE",
"-272 -190 CURVE SMOOTH",
"-272 -215 OFFCURVE",
"-284 -229 OFFCURVE",
"-314 -229 CURVE SMOOTH",
"-345 -229 OFFCURVE",
"-356 -213 OFFCURVE",
"-356 -190 CURVE SMOOTH",
"-356 -158 OFFCURVE",
"-340 -142 OFFCURVE",
"-340 -103 CURVE SMOOTH",
"-340 -31 OFFCURVE",
"-401 0 OFFCURVE",
"-469 0 CURVE SMOOTH",
"-558 0 OFFCURVE",
"-639 -51 OFFCURVE",
"-639 -161 CURVE SMOOTH",
"-639 -241 OFFCURVE",
"-590 -309 OFFCURVE",
"-518 -354 CURVE",
"-475 -310 LINE",
"-514 -276 OFFCURVE",
"-557 -233 OFFCURVE",
"-557 -161 CURVE SMOOTH",
"-557 -92 OFFCURVE",
"-518 -60 OFFCURVE",
"-469 -60 CURVE SMOOTH",
"-438 -60 OFFCURVE",
"-411 -73 OFFCURVE",
"-411 -110 CURVE SMOOTH",
"-411 -144 OFFCURVE",
"-428 -168 OFFCURVE",
"-428 -199 CURVE SMOOTH",
"-428 -255 OFFCURVE",
"-367 -289 OFFCURVE",
"-314 -289 CURVE SMOOTH",
"-258 -289 OFFCURVE",
"-200 -254 OFFCURVE",
"-200 -198 CURVE SMOOTH",
"-200 -166 OFFCURVE",
"-217 -146 OFFCURVE",
"-217 -109 CURVE SMOOTH",
"-217 -74 OFFCURVE",
"-188 -60 OFFCURVE",
"-157 -60 CURVE SMOOTH",
"-109 -60 OFFCURVE",
"-71 -92 OFFCURVE",
"-71 -158 CURVE SMOOTH",
"-71 -233 OFFCURVE",
"-113 -277 OFFCURVE",
"-157 -310 CURVE"
);
}
);
width = 0;
}
);
script = chakma;
category = Mark;
subCategory = Nonspacing;
},
{
glyphname = taa_chakma.below;
lastChange = "2018-05-08 16:46:34 +0000";
layers = (
{
components = (
{
name = waa_chakma.below;
transform = "{1, 0, 0, 1, -234, 0}";
}
);
layerId = "1D72C4DB-D20D-420D-B086-1F84B9DB7C9C";
paths = (
{
closed = 1;
nodes = (
"-289 -179 LINE",
"-284 -104 OFFCURVE",
"-243 -60 OFFCURVE",
"-189 -60 CURVE SMOOTH",
"-131 -60 OFFCURVE",
"-85 -111 OFFCURVE",
"-85 -175 CURVE SMOOTH",
"-85 -239 OFFCURVE",
"-131 -292 OFFCURVE",
"-189 -292 CURVE SMOOTH",
"-205 -292 OFFCURVE",
"-220 -288 OFFCURVE",
"-234 -280 CURVE",
"-276 -332 LINE",
"-252 -345 OFFCURVE",
"-222 -352 OFFCURVE",
"-189 -352 CURVE SMOOTH",
"-74 -352 OFFCURVE",
"-3 -267 OFFCURVE",
"-3 -175 CURVE SMOOTH",
"-3 -83 OFFCURVE",
"-74 0 OFFCURVE",
"-189 0 CURVE SMOOTH",
"-277 0 OFFCURVE",
"-338 -49 OFFCURVE",
"-361 -122 CURVE"
);
}
);
width = 0;
}
);
script = chakma;
category = Mark;
subCategory = Nonspacing;
},
{
glyphname = thaa_chakma.below;
lastChange = "2018-05-08 16:46:34 +0000";
layers = (
{
layerId = "1D72C4DB-D20D-420D-B086-1F84B9DB7C9C";
paths = (
{
closed = 1;
nodes = (
"-571 0 OFFCURVE",
"-639 -83 OFFCURVE",
"-639 -175 CURVE SMOOTH",
"-639 -267 OFFCURVE",
"-571 -352 OFFCURVE",
"-461 -352 CURVE SMOOTH",
"-351 -352 OFFCURVE",
"-280 -267 OFFCURVE",
"-280 -175 CURVE SMOOTH",
"-280 -83 OFFCURVE",
"-351 0 OFFCURVE",
"-461 0 CURVE SMOOTH"
);
},
{
closed = 1;
nodes = (
"-524 -292 OFFCURVE",
"-557 -239 OFFCURVE",
"-557 -175 CURVE SMOOTH",
"-557 -111 OFFCURVE",
"-524 -60 OFFCURVE",
"-461 -60 CURVE SMOOTH",
"-398 -60 OFFCURVE",
"-362 -111 OFFCURVE",
"-362 -175 CURVE SMOOTH",
"-362 -239 OFFCURVE",
"-398 -292 OFFCURVE",
"-461 -292 CURVE SMOOTH"
);
},
{
closed = 1;
nodes = (
"-293 0 OFFCURVE",
"-361 -83 OFFCURVE",
"-361 -175 CURVE SMOOTH",
"-361 -267 OFFCURVE",
"-293 -352 OFFCURVE",
"-183 -352 CURVE SMOOTH",
"-73 -352 OFFCURVE",
"-2 -267 OFFCURVE",
"-2 -175 CURVE SMOOTH",
"-2 -83 OFFCURVE",
"-73 0 OFFCURVE",
"-183 0 CURVE SMOOTH"
);
},
{
closed = 1;
nodes = (
"-246 -292 OFFCURVE",
"-279 -239 OFFCURVE",
"-279 -175 CURVE SMOOTH",
"-279 -111 OFFCURVE",
"-246 -60 OFFCURVE",
"-183 -60 CURVE SMOOTH",
"-120 -60 OFFCURVE",
"-84 -111 OFFCURVE",
"-84 -175 CURVE SMOOTH",
"-84 -239 OFFCURVE",
"-120 -292 OFFCURVE",
"-183 -292 CURVE SMOOTH"
);
}
);
width = 0;
}
);
script = chakma;
category = Mark;
subCategory = Nonspacing;
},
{
glyphname = daa_chakma.below;
lastChange = "2018-05-08 16:46:34 +0000";
layers = (
{
layerId = "1D72C4DB-D20D-420D-B086-1F84B9DB7C9C";
paths = (
{
closed = 1;
nodes = (
"-80 -356 OFFCURVE",
"-8 -273 OFFCURVE",
"-8 -179 CURVE SMOOTH",
"-8 -84 OFFCURVE",
"-81 0 OFFCURVE",
"-198 0 CURVE SMOOTH",
"-292 0 OFFCURVE",
"-356 -49 OFFCURVE",
"-378 -124 CURVE",
"-299 -133 LINE",
"-288 -91 OFFCURVE",
"-252 -60 OFFCURVE",
"-200 -60 CURVE SMOOTH",
"-136 -60 OFFCURVE",
"-90 -109 OFFCURVE",
"-90 -177 CURVE SMOOTH",
"-90 -242 OFFCURVE",
"-133 -296 OFFCURVE",
"-201 -296 CURVE SMOOTH",
"-241 -296 OFFCURVE",
"-281 -276 OFFCURVE",
"-299 -224 CURVE",
"-378 -242 LINE",
"-354 -310 OFFCURVE",
"-295 -356 OFFCURVE",
"-201 -356 CURVE SMOOTH"
);
}
);
width = 0;
}
);
script = chakma;
category = Mark;
subCategory = Nonspacing;
},
{
glyphname = dhaa_chakma.below;
lastChange = "2018-05-08 16:46:34 +0000";
layers = (
{
layerId = "1D72C4DB-D20D-420D-B086-1F84B9DB7C9C";
paths = (
{
closed = 1;
nodes = (
"-344 0 OFFCURVE",
"-427 -78 OFFCURVE",
"-427 -196 CURVE SMOOTH",
"-427 -273 OFFCURVE",
"-391 -334 OFFCURVE",
"-324 -365 CURVE",
"-297 -337 OFFCURVE",
"-272 -311 OFFCURVE",
"-225 -311 CURVE SMOOTH",
"-178 -311 OFFCURVE",
"-148 -337 OFFCURVE",
"-121 -365 CURVE",
"-57 -333 OFFCURVE",
"-23 -273 OFFCURVE",
"-23 -196 CURVE SMOOTH",
"-23 -78 OFFCURVE",
"-105 0 OFFCURVE",
"-225 0 CURVE SMOOTH"
);
},
{
closed = 1;
nodes = (
"-119 -292 LINE",
"-139 -276 OFFCURVE",
"-174 -251 OFFCURVE",
"-225 -251 CURVE SMOOTH",
"-276 -251 OFFCURVE",
"-311 -276 OFFCURVE",
"-329 -292 CURVE",
"-317 -295 LINE",
"-335 -271 OFFCURVE",
"-345 -238 OFFCURVE",
"-345 -194 CURVE SMOOTH",
"-345 -96 OFFCURVE",
"-291 -60 OFFCURVE",
"-225 -60 CURVE SMOOTH",
"-158 -60 OFFCURVE",
"-105 -96 OFFCURVE",
"-105 -194 CURVE SMOOTH",
"-105 -237 OFFCURVE",
"-115 -272 OFFCURVE",
"-131 -295 CURVE"
);
}
);
width = 0;
}
);
script = chakma;
category = Mark;
subCategory = Nonspacing;
},
{
glyphname = naa_chakma.below;
lastChange = "2018-05-08 16:46:34 +0000";
layers = (
{
layerId = "1D72C4DB-D20D-420D-B086-1F84B9DB7C9C";
paths = (
{
closed = 1;
nodes = (
"-91 -349 LINE",
"-19 -305 OFFCURVE",
"23 -243 OFFCURVE",
"23 -164 CURVE SMOOTH",
"23 -77 OFFCURVE",
"-31 0 OFFCURVE",
"-135 0 CURVE SMOOTH",
"-237 0 OFFCURVE",
"-313 -77 OFFCURVE",
"-313 -190 CURVE SMOOTH",
"-313 -279 OFFCURVE",
"-281 -324 OFFCURVE",
"-227 -324 CURVE SMOOTH",
"-173 -324 OFFCURVE",
"-131 -273 OFFCURVE",
"-131 -213 CURVE SMOOTH",
"-131 -132 OFFCURVE",
"-207 -82 OFFCURVE",
"-283 -82 CURVE SMOOTH",
"-358 -82 OFFCURVE",
"-433 -132 OFFCURVE",
"-433 -214 CURVE SMOOTH",
"-433 -274 OFFCURVE",
"-398 -324 OFFCURVE",
"-338 -324 CURVE SMOOTH",
"-286 -324 OFFCURVE",
"-251 -288 OFFCURVE",
"-251 -190 CURVE SMOOTH",
"-251 -77 OFFCURVE",
"-330 0 OFFCURVE",
"-432 0 CURVE SMOOTH",
"-536 0 OFFCURVE",
"-593 -71 OFFCURVE",
"-593 -164 CURVE SMOOTH",
"-593 -243 OFFCURVE",
"-554 -305 OFFCURVE",
"-482 -349 CURVE",
"-448 -315 LINE",
"-483 -282 OFFCURVE",
"-511 -230 OFFCURVE",
"-511 -173 CURVE SMOOTH",
"-511 -105 OFFCURVE",
"-472 -60 OFFCURVE",
"-419 -60 CURVE SMOOTH",
"-368 -60 OFFCURVE",
"-314 -104 OFFCURVE",
"-314 -185 CURVE SMOOTH",
"-314 -214 OFFCURVE",
"-321 -262 OFFCURVE",
"-333 -268 CURVE",
"-346 -268 OFFCURVE",
"-367 -250 OFFCURVE",
"-367 -213 CURVE SMOOTH",
"-367 -161 OFFCURVE",
"-326 -133 OFFCURVE",
"-283 -133 CURVE SMOOTH",
"-239 -133 OFFCURVE",
"-197 -161 OFFCURVE",
"-197 -213 CURVE SMOOTH",
"-197 -249 OFFCURVE",
"-216 -268 OFFCURVE",
"-227 -268 CURVE",
"-239 -262 OFFCURVE",
"-250 -224 OFFCURVE",
"-250 -185 CURVE SMOOTH",
"-250 -104 OFFCURVE",
"-197 -60 OFFCURVE",
"-146 -60 CURVE SMOOTH",
"-94 -60 OFFCURVE",
"-59 -105 OFFCURVE",
"-59 -169 CURVE SMOOTH",
"-59 -230 OFFCURVE",
"-89 -282 OFFCURVE",
"-125 -315 CURVE"
);
}
);
width = 0;
}
);
script = chakma;
category = Mark;
subCategory = Nonspacing;
},
{
glyphname = paa_chakma.below;
lastChange = "2018-05-08 16:46:34 +0000";
layers = (
{
layerId = "1D72C4DB-D20D-420D-B086-1F84B9DB7C9C";
paths = (
{
closed = 1;
nodes = (
"-97 -349 OFFCURVE",
"-14 -266 OFFCURVE",
"-14 -167 CURVE SMOOTH",
"-14 -103 OFFCURVE",
"-50 -38 OFFCURVE",
"-109 0 CURVE",
"-167 -30 LINE",
"-123 -68 OFFCURVE",
"-96 -113 OFFCURVE",
"-96 -166 CURVE SMOOTH",
"-96 -238 OFFCURVE",
"-149 -289 OFFCURVE",
"-216 -289 CURVE SMOOTH",
"-282 -289 OFFCURVE",
"-336 -239 OFFCURVE",
"-336 -166 CURVE SMOOTH",
"-336 -113 OFFCURVE",
"-311 -68 OFFCURVE",
"-271 -30 CURVE",
"-328 0 LINE",
"-384 -39 OFFCURVE",
"-418 -100 OFFCURVE",
"-418 -167 CURVE SMOOTH",
"-418 -266 OFFCURVE",
"-335 -349 OFFCURVE",
"-216 -349 CURVE SMOOTH"
);
}
);
width = 0;
}
);
script = chakma;
category = Mark;
subCategory = Nonspacing;
},
{
glyphname = phaa_chakma.below;
lastChange = "2018-05-08 16:46:34 +0000";
layers = (
{
layerId = "1D72C4DB-D20D-420D-B086-1F84B9DB7C9C";
paths = (
{
closed = 1;
nodes = (
"-56.487 -81.447 OFFCURVE",
"-88.744 -113 OFFCURVE",
"-121 -113 CURVE SMOOTH",
"-144 -113 OFFCURVE",
"-159 -98 OFFCURVE",
"-159 -80 CURVE SMOOTH",
"-159 -59 OFFCURVE",
"-140 -49 OFFCURVE",
"-122 -49 CURVE SMOOTH",
"-89 -49 OFFCURVE",
"-68 -85 OFFCURVE",
"-68 -144 CURVE SMOOTH",
"-68 -246 OFFCURVE",
"-126 -295 OFFCURVE",
"-198 -295 CURVE SMOOTH",
"-270 -295 OFFCURVE",
"-332 -238 OFFCURVE",
"-332 -160 CURVE SMOOTH",
"-332 -111 OFFCURVE",
"-307 -62 OFFCURVE",
"-267 -29 CURVE",
"-324 -3 LINE",
"-380 -37 OFFCURVE",
"-414 -99 OFFCURVE",
"-414 -165 CURVE SMOOTH",
"-414 -272 OFFCURVE",
"-324 -355 OFFCURVE",
"-197 -355 CURVE SMOOTH",
"-70 -355 OFFCURVE",
"14 -269 OFFCURVE",
"14 -153 CURVE SMOOTH",
"14 -70 OFFCURVE",
"-28 0 OFFCURVE",
"-118 0 CURVE SMOOTH",
"-175 0 OFFCURVE",
"-221 -30 OFFCURVE",
"-221 -85 CURVE SMOOTH",
"-221 -136 OFFCURVE",
"-179 -162 OFFCURVE",
"-135 -162 CURVE SMOOTH",
"-80.442 -162 OFFCURVE",
"-37.276 -121.945 OFFCURVE",
"-10.402 -88.17 CURVE",
"-34.972 -52.475 LINE"
);
}
);
width = 0;
}
);
script = chakma;
category = Mark;
subCategory = Nonspacing;
},
{
glyphname = baa_chakma.below;
lastChange = "2018-05-08 16:46:34 +0000";
layers = (
{
layerId = "1D72C4DB-D20D-420D-B086-1F84B9DB7C9C";
paths = (
{
closed = 1;
nodes = (
"-135 -31 OFFCURVE",
"-167 -54 OFFCURVE",
"-208 -54 CURVE SMOOTH",
"-249 -54 OFFCURVE",
"-281 -31 OFFCURVE",
"-311 0 CURVE",
"-368 -35 OFFCURVE",
"-408 -91 OFFCURVE",
"-408 -173 CURVE SMOOTH",
"-408 -295 OFFCURVE",
"-322 -365 OFFCURVE",
"-208 -365 CURVE SMOOTH",
"-95 -365 OFFCURVE",
"-8 -290 OFFCURVE",
"-8 -174 CURVE SMOOTH",
"-8 -92 OFFCURVE",
"-48 -35 OFFCURVE",
"-105 0 CURVE"
);
},
{
closed = 1;
nodes = (
"-270 -305 OFFCURVE",
"-326 -267 OFFCURVE",
"-326 -181 CURVE SMOOTH",
"-326 -143 OFFCURVE",
"-315 -113 OFFCURVE",
"-293 -81 CURVE",
"-309 -81 LINE",
"-288 -94 OFFCURVE",
"-251 -114 OFFCURVE",
"-208 -114 CURVE SMOOTH",
"-165 -114 OFFCURVE",
"-128 -94 OFFCURVE",
"-107 -81 CURVE",
"-123 -81 LINE",
"-101 -113 OFFCURVE",
"-90 -143 OFFCURVE",
"-90 -181 CURVE SMOOTH",
"-90 -267 OFFCURVE",
"-145 -305 OFFCURVE",
"-208 -305 CURVE SMOOTH"
);
}
);
width = 0;
}
);
script = chakma;
category = Mark;
subCategory = Nonspacing;
},
{
glyphname = bhaa_chakma.below;
lastChange = "2018-05-08 16:46:34 +0000";
layers = (
{
components = (
{
name = daa_chakma.below;
transform = "{1, 0, 0, 1, -185, -4}";
}
);
layerId = "1D72C4DB-D20D-420D-B086-1F84B9DB7C9C";
paths = (
{
closed = 1;
nodes = (
"-22 -173 LINE",
"17 -159 OFFCURVE",
"53 -118 OFFCURVE",
"53 -82 CURVE SMOOTH",
"53 -57 OFFCURVE",
"36 0 OFFCURVE",
"-83 0 CURVE SMOOTH",
"-141 0 OFFCURVE",
"-204 -16 OFFCURVE",
"-271 -53 CURVE",
"-238 -109 LINE",
"-196 -77 OFFCURVE",
"-143 -58 OFFCURVE",
"-89 -58 CURVE SMOOTH",
"-37 -58 OFFCURVE",
"-20 -78 OFFCURVE",
"-20 -92 CURVE SMOOTH",
"-20 -109 OFFCURVE",
"-43 -121 OFFCURVE",
"-59 -126 CURVE"
);
},
{
closed = 1;
nodes = (
"-139 -357 LINE",
"-120 -374 OFFCURVE",
"-96 -385 OFFCURVE",
"-66 -385 CURVE SMOOTH",
"-2 -385 OFFCURVE",
"43 -335 OFFCURVE",
"43 -283 CURVE SMOOTH",
"43 -233 OFFCURVE",
"2 -189 OFFCURVE",
"-95 -189 CURVE SMOOTH",
"-141 -189 OFFCURVE",
"-191 -199 OFFCURVE",
"-244 -220 CURVE",
"-254 -278 LINE",
"-201 -256 OFFCURVE",
"-149 -247 OFFCURVE",
"-114 -247 CURVE SMOOTH",
"-55 -247 OFFCURVE",
"-30 -270 OFFCURVE",
"-30 -291 CURVE SMOOTH",
"-30 -309 OFFCURVE",
"-49 -328 OFFCURVE",
"-73 -328 CURVE SMOOTH",
"-85 -328 OFFCURVE",
"-96 -323 OFFCURVE",
"-108 -311 CURVE"
);
}
);
width = 0;
}
);
script = chakma;
category = Mark;
subCategory = Nonspacing;
},
{
glyphname = maa_chakma.below;
lastChange = "2018-05-08 16:46:34 +0000";
layers = (
{
layerId = "1D72C4DB-D20D-420D-B086-1F84B9DB7C9C";
paths = (
{
closed = 1;
nodes = (
"-136 -39 LINE",
"-89 -71 OFFCURVE",
"-47 -127 OFFCURVE",
"-47 -185 CURVE SMOOTH",
"-47 -243 OFFCURVE",
"-87 -288 OFFCURVE",
"-134 -288 CURVE SMOOTH",
"-181 -288 OFFCURVE",
"-226 -243 OFFCURVE",
"-226 -201 CURVE SMOOTH",
"-226 -180 OFFCURVE",
"-215 -165 OFFCURVE",
"-203 -165 CURVE SMOOTH",
"-191 -165 OFFCURVE",
"-180 -180 OFFCURVE",
"-180 -199 CURVE SMOOTH",
"-180 -246 OFFCURVE",
"-243 -288 OFFCURVE",
"-290 -288 CURVE SMOOTH",
"-335 -288 OFFCURVE",
"-370 -250 OFFCURVE",
"-370 -192 CURVE SMOOTH",
"-370 -127 OFFCURVE",
"-326 -73 OFFCURVE",
"-281 -39 CURVE",
"-334 0 LINE",
"-401 -42 OFFCURVE",
"-452 -108 OFFCURVE",
"-452 -187 CURVE SMOOTH",
"-452 -267 OFFCURVE",
"-400 -348 OFFCURVE",
"-303 -348 CURVE SMOOTH",
"-213 -348 OFFCURVE",
"-114 -281 OFFCURVE",
"-114 -202 CURVE SMOOTH",
"-114 -153 OFFCURVE",
"-151 -111 OFFCURVE",
"-203 -111 CURVE SMOOTH",
"-255 -111 OFFCURVE",
"-292 -152 OFFCURVE",
"-292 -203 CURVE SMOOTH",
"-292 -277 OFFCURVE",
"-213 -348 OFFCURVE",
"-123 -348 CURVE SMOOTH",
"-26 -348 OFFCURVE",
"35 -266 OFFCURVE",
"35 -186 CURVE SMOOTH",
"35 -108 OFFCURVE",
"-16 -42 OFFCURVE",
"-83 0 CURVE"
);
}
);
width = 0;
}
);
script = chakma;
category = Mark;
subCategory = Nonspacing;
},
{
glyphname = yyaa_chakma.below;
lastChange = "2018-05-08 16:46:44 +0000";
layers = (
{
layerId = "1D72C4DB-D20D-420D-B086-1F84B9DB7C9C";
paths = (
{
closed = 1;
nodes = (
"-160 86 LINE",
"-124 33 OFFCURVE",
"-62 -15 OFFCURVE",
"21 -15 CURVE SMOOTH",
"122 -15 OFFCURVE",
"199 56 OFFCURVE",
"199 159 CURVE SMOOTH",
"199 700 LINE",
"109 700 LINE",
"109 175 LINE SMOOTH",
"109 102 OFFCURVE",
"66 52 OFFCURVE",
"11 52 CURVE SMOOTH",
"-45 52 OFFCURVE",
"-92 104 OFFCURVE",
"-114 135 CURVE"
);
}
);
width = 0;
}
);
script = chakma;
category = Mark;
subCategory = Nonspacing;
},
{
glyphname = yaa_chakma.below;
lastChange = "2018-05-08 16:46:34 +0000";
layers = (
{
layerId = "1D72C4DB-D20D-420D-B086-1F84B9DB7C9C";
paths = (
{
closed = 1;
nodes = (
"-192 -227 LINE",
"-163 -206 OFFCURVE",
"-132 -194 OFFCURVE",
"-97 -194 CURVE SMOOTH",
"-69 -194 OFFCURVE",
"-40 -202 OFFCURVE",
"-40 -240 CURVE SMOOTH",
"-40 -283 OFFCURVE",
"-74 -334 OFFCURVE",
"-107 -366 CURVE",
"-74 -403 LINE",
"-23 -360 OFFCURVE",
"43 -295 OFFCURVE",
"43 -231 CURVE SMOOTH",
"43 -172 OFFCURVE",
"-12 -143 OFFCURVE",
"-78 -143 CURVE SMOOTH",
"-137 -143 OFFCURVE",
"-186 -164 OFFCURVE",
"-223 -191 CURVE"
);
},
{
closed = 1;
nodes = (
"-91 -84 LINE",
"-120 -33 OFFCURVE",
"-168 -8 OFFCURVE",
"-233 -8 CURVE SMOOTH",
"-317 -8 OFFCURVE",
"-378 -46 OFFCURVE",
"-378 -99 CURVE SMOOTH",
"-378 -145 OFFCURVE",
"-332 -178 OFFCURVE",
"-283 -213 CURVE SMOOTH",
"-236 -247 OFFCURVE",
"-216 -260 OFFCURVE",
"-216 -295 CURVE SMOOTH",
"-216 -326 OFFCURVE",
"-235 -343 OFFCURVE",
"-273 -343 CURVE SMOOTH",
"-329 -343 OFFCURVE",
"-355 -304 OFFCURVE",
"-368 -280 CURVE",
"-442 -280 LINE",
"-413 -339 OFFCURVE",
"-364 -397 OFFCURVE",
"-273 -397 CURVE SMOOTH",
"-186 -397 OFFCURVE",
"-134 -346 OFFCURVE",
"-134 -291 CURVE SMOOTH",
"-134 -228 OFFCURVE",
"-198 -196 OFFCURVE",
"-244 -164 CURVE SMOOTH",
"-285 -135 OFFCURVE",
"-296 -119 OFFCURVE",
"-296 -101 CURVE SMOOTH",
"-296 -81 OFFCURVE",
"-281 -62 OFFCURVE",
"-230 -62 CURVE SMOOTH",
"-190 -62 OFFCURVE",
"-170 -73 OFFCURVE",
"-155 -97 CURVE"
);
}
);
width = 0;
}
);
script = chakma;
category = Mark;
subCategory = Nonspacing;
},
{
glyphname = raa_chakma.below;
lastChange = "2018-05-08 16:47:03 +0000";
layers = (
{
layerId = "1D72C4DB-D20D-420D-B086-1F84B9DB7C9C";
paths = (
{
closed = 1;
nodes = (
"-779 -139 LINE",
"-733 -239 OFFCURVE",
"-640 -293 OFFCURVE",
"-451 -293 CURVE SMOOTH",
"-212 -293 OFFCURVE",
"-116 -210 OFFCURVE",
"-116 -99 CURVE SMOOTH",
"-116 -74 OFFCURVE",
"-121 -31 OFFCURVE",
"-153 9 CURVE",
"-226 -22 LINE",
"-204 -52 OFFCURVE",
"-197 -78 OFFCURVE",
"-197 -99 CURVE SMOOTH",
"-197 -175 OFFCURVE",
"-284 -233 OFFCURVE",
"-442 -233 CURVE SMOOTH",
"-620 -233 OFFCURVE",
"-678 -165 OFFCURVE",
"-699 -121 CURVE"
);
}
);
width = 0;
}
);
script = chakma;
category = Mark;
subCategory = Nonspacing;
},
{
glyphname = raa_chakma.below.curve;
lastChange = "2018-05-08 16:47:03 +0000";
layers = (
{
layerId = "1D72C4DB-D20D-420D-B086-1F84B9DB7C9C";
paths = (
{
closed = 1;
nodes = (
"-639 -139 LINE",
"-605 -248 OFFCURVE",
"-511 -293 OFFCURVE",
"-396 -293 CURVE SMOOTH",
"-223 -293 OFFCURVE",
"-116 -202 OFFCURVE",
"-116 -88 CURVE SMOOTH",
"-116 -67 OFFCURVE",
"-120 -3 OFFCURVE",
"-177 56 CURVE",
"-250 18 LINE",
"-206 -27 OFFCURVE",
"-197 -69 OFFCURVE",
"-197 -95 CURVE SMOOTH",
"-197 -178 OFFCURVE",
"-286 -233 OFFCURVE",
"-387 -233 CURVE SMOOTH",
"-482 -233 OFFCURVE",
"-539 -185 OFFCURVE",
"-559 -121 CURVE"
);
}
);
width = 0;
}
);
script = chakma;
category = Mark;
subCategory = Nonspacing;
},
{
glyphname = raa.below_oMark;
lastChange = "2018-05-08 16:47:03 +0000";
layers = (
{
components = (
{
name = oMark_chakma;
transform = "{1, 0, 0, 1, 74, -9}";
}
);
layerId = "1D72C4DB-D20D-420D-B086-1F84B9DB7C9C";
paths = (
{
closed = 1;
nodes = (
"-879 -194 LINE",
"-833 -294 OFFCURVE",
"-740 -348 OFFCURVE",
"-591 -348 CURVE SMOOTH",
"-392 -348 OFFCURVE",
"-296 -275 OFFCURVE",
"-296 -164 CURVE SMOOTH",
"-296 -139 OFFCURVE",
"-301 -96 OFFCURVE",
"-333 -56 CURVE",
"-345 -87 LINE",
"-362 -125 OFFCURVE",
"-362 -143 OFFCURVE",
"-362 -164 CURVE SMOOTH",
"-362 -240 OFFCURVE",
"-464 -288 OFFCURVE",
"-582 -288 CURVE SMOOTH",
"-720 -288 OFFCURVE",
"-778 -220 OFFCURVE",
"-799 -176 CURVE"
);
}
);
width = 0;
}
);
script = "";
category = Mark;
subCategory = Nonspacing;
},
{
glyphname = raa.below_oMark.curve;
lastChange = "2018-05-08 16:47:03 +0000";
layers = (
{
components = (
{
name = oMark_chakma;
transform = "{1, 0, 0, 1, 85, -24}";
}
);
layerId = "1D72C4DB-D20D-420D-B086-1F84B9DB7C9C";
paths = (
{
closed = 1;
nodes = (
"-329 -83 LINE",
"-337 -100 OFFCURVE",
"-349 -124 OFFCURVE",
"-349 -140 CURVE SMOOTH",
"-349 -218 OFFCURVE",
"-430 -273 OFFCURVE",
"-521 -273 CURVE SMOOTH",
"-606 -273 OFFCURVE",
"-663 -225 OFFCURVE",
"-683 -161 CURVE",
"-763 -179 LINE",
"-729 -288 OFFCURVE",
"-635 -333 OFFCURVE",
"-530 -333 CURVE SMOOTH",
"-367 -333 OFFCURVE",
"-285 -242 OFFCURVE",
"-285 -145 CURVE SMOOTH",
"-285 -115 OFFCURVE",
"-274 -106 OFFCURVE",
"-238 -72 CURVE"
);
}
);
width = 0;
}
);
script = "";
category = Mark;
subCategory = Nonspacing;
},
{
glyphname = laa_chakma.below;
lastChange = "2018-05-08 16:47:19 +0000";
layers = (
{
layerId = "1D72C4DB-D20D-420D-B086-1F84B9DB7C9C";
paths = (
{
closed = 1;
nodes = (
"-360 -292 LINE",
"-424 -271 OFFCURVE",
"-478 -229 OFFCURVE",
"-478 -161 CURVE SMOOTH",
"-478 -108 OFFCURVE",
"-446 -60 OFFCURVE",
"-393 -60 CURVE SMOOTH",
"-336 -60 OFFCURVE",
"-324 -115 OFFCURVE",
"-281 -201 CURVE SMOOTH",
"-229 -305 OFFCURVE",
"-179 -352 OFFCURVE",
"-99 -352 CURVE SMOOTH",
"11 -352 OFFCURVE",
"81 -264 OFFCURVE",
"81 -178 CURVE SMOOTH",
"81 -85 OFFCURVE",
"-2 -16 OFFCURVE",
"-94 0 CURVE",
"-117 -56 LINE",
"-60 -70 OFFCURVE",
"-1 -110 OFFCURVE",
"-1 -186 CURVE SMOOTH",
"-1 -231 OFFCURVE",
"-21 -292 OFFCURVE",
"-94 -292 CURVE SMOOTH",
"-136 -292 OFFCURVE",
"-163 -271 OFFCURVE",
"-204 -178 CURVE SMOOTH",
"-242 -93 OFFCURVE",
"-273 0 OFFCURVE",
"-390 0 CURVE SMOOTH",
"-502 0 OFFCURVE",
"-560 -79 OFFCURVE",
"-560 -163 CURVE SMOOTH",
"-560 -258 OFFCURVE",
"-482 -335 OFFCURVE",
"-380 -352 CURVE"
);
}
);
width = 0;
}
);
script = chakma;
category = Mark;
subCategory = Nonspacing;
},
{
glyphname = laa_chakma.below.alt;
lastChange = "2018-05-08 16:47:19 +0000";
layers = (
{
layerId = "1D72C4DB-D20D-420D-B086-1F84B9DB7C9C";
paths = (
{
closed = 1;
nodes = (
"-404 -292 LINE",
"-454 -271 OFFCURVE",
"-496 -229 OFFCURVE",
"-496 -161 CURVE SMOOTH",
"-496 -108 OFFCURVE",
"-471 -60 OFFCURVE",
"-432 -60 CURVE SMOOTH",
"-389 -60 OFFCURVE",
"-376 -123 OFFCURVE",
"-353 -185 CURVE SMOOTH",
"-309 -304 OFFCURVE",
"-264 -352 OFFCURVE",
"-193 -352 CURVE SMOOTH",
"-104 -352 OFFCURVE",
"-42 -274 OFFCURVE",
"-42 -178 CURVE SMOOTH",
"-42 -65 OFFCURVE",
"-124 -16 OFFCURVE",
"-196 0 CURVE",
"-214 -56 LINE",
"-170 -70 OFFCURVE",
"-124 -110 OFFCURVE",
"-124 -186 CURVE SMOOTH",
"-124 -231 OFFCURVE",
"-138 -292 OFFCURVE",
"-193 -292 CURVE SMOOTH",
"-228 -292 OFFCURVE",
"-238 -266 OFFCURVE",
"-274 -167 CURVE SMOOTH",
"-302 -89 OFFCURVE",
"-337 0 OFFCURVE",
"-433 0 CURVE SMOOTH",
"-516 0 OFFCURVE",
"-578 -69 OFFCURVE",
"-578 -163 CURVE SMOOTH",
"-578 -278 OFFCURVE",
"-499 -335 OFFCURVE",
"-420 -352 CURVE"
);
}
);
width = 0;
}
);
script = chakma;
category = Mark;
subCategory = Nonspacing;
},
{
glyphname = waa_chakma.below;
lastChange = "2018-05-08 16:46:39 +0000";
layers = (
{
layerId = "1D72C4DB-D20D-420D-B086-1F84B9DB7C9C";
paths = (
{
closed = 1;
nodes = (
"-345 0 OFFCURVE",
"-413 -83 OFFCURVE",
"-413 -175 CURVE SMOOTH",
"-413 -267 OFFCURVE",
"-345 -352 OFFCURVE",
"-235 -352 CURVE SMOOTH",
"-125 -352 OFFCURVE",
"-54 -267 OFFCURVE",
"-54 -175 CURVE SMOOTH",
"-54 -83 OFFCURVE",
"-125 0 OFFCURVE",
"-235 0 CURVE SMOOTH"
);
},
{
closed = 1;
nodes = (
"-298 -292 OFFCURVE",
"-331 -239 OFFCURVE",
"-331 -175 CURVE SMOOTH",
"-331 -111 OFFCURVE",
"-298 -60 OFFCURVE",
"-235 -60 CURVE SMOOTH",
"-172 -60 OFFCURVE",
"-136 -111 OFFCURVE",
"-136 -175 CURVE SMOOTH",
"-136 -239 OFFCURVE",
"-172 -292 OFFCURVE",
"-235 -292 CURVE SMOOTH"
);
}
);
width = 0;
}
);
script = chakma;
category = Mark;
subCategory = Nonspacing;
},
{
glyphname = saa_chakma.below;
lastChange = "2018-05-08 16:46:34 +0000";
layers = (
{
components = (
{
name = daa_chakma.below;
transform = "{1, 0, 0, 1, -276, 0}";
}
);
layerId = "1D72C4DB-D20D-420D-B086-1F84B9DB7C9C";
paths = (
{
closed = 1;
nodes = (
"-226 -73 LINE",
"-212 -65 OFFCURVE",
"-196 -60 OFFCURVE",
"-178 -60 CURVE SMOOTH",
"-122 -60 OFFCURVE",
"-76 -110 OFFCURVE",
"-76 -175 CURVE SMOOTH",
"-76 -240 OFFCURVE",
"-123 -293 OFFCURVE",
"-187 -293 CURVE SMOOTH",
"-241 -293 OFFCURVE",
"-292 -255 OFFCURVE",
"-312 -191 CURVE",
"-348 -249 LINE",
"-324 -307 OFFCURVE",
"-268 -353 OFFCURVE",
"-184 -353 CURVE SMOOTH",
"-69 -353 OFFCURVE",
"6 -265 OFFCURVE",
"6 -171 CURVE SMOOTH",
"6 -79 OFFCURVE",
"-66 0 OFFCURVE",
"-177 0 CURVE SMOOTH",
"-213 0 OFFCURVE",
"-246 -9 OFFCURVE",
"-272 -25 CURVE"
);
}
);
width = 0;
}
);
script = chakma;
category = Mark;
subCategory = Nonspacing;
},
{
glyphname = haa_chakma.below;
lastChange = "2018-05-08 16:47:19 +0000";
layers = (
{
layerId = "1D72C4DB-D20D-420D-B086-1F84B9DB7C9C";
paths = (
{
closed = 1;
nodes = (
"-458 -3 LINE",
"-549 -15 OFFCURVE",
"-644 -90 OFFCURVE",
"-644 -193 CURVE SMOOTH",
"-644 -284 OFFCURVE",
"-572 -352 OFFCURVE",
"-488 -352 CURVE SMOOTH",
"-393 -352 OFFCURVE",
"-343 -266 OFFCURVE",
"-290 -175 CURVE SMOOTH",
"-244 -96 OFFCURVE",
"-221 -60 OFFCURVE",
"-170 -60 CURVE SMOOTH",
"-115 -60 OFFCURVE",
"-99 -100 OFFCURVE",
"-99 -141 CURVE SMOOTH",
"-99 -209 OFFCURVE",
"-142 -259 OFFCURVE",
"-193 -295 CURVE",
"-160 -351 LINE",
"-72 -295 OFFCURVE",
"-17 -216 OFFCURVE",
"-17 -143 CURVE SMOOTH",
"-17 -72 OFFCURVE",
"-70 0 OFFCURVE",
"-170 0 CURVE SMOOTH",
"-262 0 OFFCURVE",
"-304 -57 OFFCURVE",
"-358 -145 CURVE SMOOTH",
"-420 -246 OFFCURVE",
"-438 -292 OFFCURVE",
"-487 -292 CURVE SMOOTH",
"-540 -292 OFFCURVE",
"-562 -241 OFFCURVE",
"-562 -192 CURVE SMOOTH",
"-562 -113 OFFCURVE",
"-506 -76 OFFCURVE",
"-447 -62 CURVE"
);
}
);
width = 0;
}
);
script = chakma;
category = Mark;
subCategory = Nonspacing;
},
{
glyphname = haa_chakma.below.alt;
lastChange = "2018-05-08 16:47:19 +0000";
layers = (
{
layerId = "1D72C4DB-D20D-420D-B086-1F84B9DB7C9C";
paths = (
{
closed = 1;
nodes = (
"-413 -3 LINE",
"-489 -15 OFFCURVE",
"-582 -75 OFFCURVE",
"-582 -193 CURVE SMOOTH",
"-582 -294 OFFCURVE",
"-518 -352 OFFCURVE",
"-443 -352 CURVE SMOOTH",
"-349 -352 OFFCURVE",
"-311 -263 OFFCURVE",
"-275 -175 CURVE SMOOTH",
"-240 -90 OFFCURVE",
"-218 -60 OFFCURVE",
"-180 -60 CURVE SMOOTH",
"-136 -60 OFFCURVE",
"-127 -101 OFFCURVE",
"-127 -137 CURVE SMOOTH",
"-127 -210 OFFCURVE",
"-163 -259 OFFCURVE",
"-205 -295 CURVE",
"-178 -351 LINE",
"-105 -305 OFFCURVE",
"-45 -229 OFFCURVE",
"-45 -143 CURVE SMOOTH",
"-45 -59 OFFCURVE",
"-98 0 OFFCURVE",
"-181 0 CURVE SMOOTH",
"-258 0 OFFCURVE",
"-298 -51 OFFCURVE",
"-341 -145 CURVE SMOOTH",
"-385 -241 OFFCURVE",
"-394 -292 OFFCURVE",
"-441 -292 CURVE SMOOTH",
"-490 -292 OFFCURVE",
"-500 -238 OFFCURVE",
"-500 -197 CURVE SMOOTH",
"-500 -110 OFFCURVE",
"-453 -76 OFFCURVE",
"-404 -62 CURVE"
);
}
);
width = 0;
}
);
script = chakma;
category = Mark;
subCategory = Nonspacing;
},
{
glyphname = lhaa_chakma.below;
lastChange = "2018-05-08 16:46:34 +0000";
layers = (
{
layerId = "1D72C4DB-D20D-420D-B086-1F84B9DB7C9C";
paths = (
{
closed = 1;
nodes = (
"83 -320 LINE",
"22 -298 OFFCURVE",
"-114 -265 OFFCURVE",
"-114 -143 CURVE SMOOTH",
"-114 -86 OFFCURVE",
"-95 -59 OFFCURVE",
"-72 -59 CURVE SMOOTH",
"-45 -59 OFFCURVE",
"-30 -94 OFFCURVE",
"-30 -149 CURVE SMOOTH",
"-30 -247 OFFCURVE",
"-80 -292 OFFCURVE",
"-136 -292 CURVE SMOOTH",
"-186 -292 OFFCURVE",
"-202 -233 OFFCURVE",
"-202 -195 CURVE",
"-321 -195 LINE",
"-321 -255 LINE",
"-253 -255 LINE",
"-239 -295 OFFCURVE",
"-198 -351 OFFCURVE",
"-135 -351 CURVE SMOOTH",
"-45 -351 OFFCURVE",
"36 -270 OFFCURVE",
"36 -144 CURVE SMOOTH",
"36 -42 OFFCURVE",
"-20 0 OFFCURVE",
"-69 0 CURVE SMOOTH",
"-122 0 OFFCURVE",
"-180 -50 OFFCURVE",
"-180 -142 CURVE SMOOTH",
"-180 -263 OFFCURVE",
"-82 -326 OFFCURVE",
"60 -376 CURVE"
);
},
{
closed = 1;
nodes = (
"-162 -79 LINE",
"-329 -79 LINE",
"-329 -139 LINE",
"-162 -139 LINE"
);
},
{
closed = 1;
nodes = (
"-525 0 OFFCURVE",
"-588 -83 OFFCURVE",
"-588 -175 CURVE SMOOTH",
"-588 -267 OFFCURVE",
"-525 -352 OFFCURVE",
"-435 -352 CURVE SMOOTH",
"-345 -352 OFFCURVE",
"-279 -267 OFFCURVE",
"-279 -175 CURVE SMOOTH",
"-279 -83 OFFCURVE",
"-345 0 OFFCURVE",
"-435 0 CURVE SMOOTH"
);
},
{
closed = 1;
nodes = (
"-478 -292 OFFCURVE",
"-506 -239 OFFCURVE",
"-506 -175 CURVE SMOOTH",
"-506 -111 OFFCURVE",
"-478 -60 OFFCURVE",
"-435 -60 CURVE SMOOTH",
"-392 -60 OFFCURVE",
"-361 -111 OFFCURVE",
"-361 -175 CURVE SMOOTH",
"-361 -239 OFFCURVE",
"-392 -292 OFFCURVE",
"-435 -292 CURVE SMOOTH"
);
}
);
width = 0;
}
);
script = "";
category = Mark;
subCategory = Nonspacing;
},
{
glyphname = raa_chakma.below_uuMatra;
lastChange = "2018-05-08 16:46:37 +0000";
layers = (
{
layerId = "1D72C4DB-D20D-420D-B086-1F84B9DB7C9C";
paths = (
{
closed = 1;
nodes = (
"-709 -121 LINE",
"-709 -204 OFFCURVE",
"-652 -283 OFFCURVE",
"-529 -283 CURVE SMOOTH",
"-397 -283 OFFCURVE",
"-343 -193 OFFCURVE",
"-343 -65 CURVE SMOOTH",
"-343 51 LINE",
"-425 51 LINE",
"-425 -65 LINE SMOOTH",
"-425 -160 OFFCURVE",
"-460 -216 OFFCURVE",
"-529 -216 CURVE SMOOTH",
"-586 -216 OFFCURVE",
"-627 -177 OFFCURVE",
"-627 -121 CURVE"
);
},
{
closed = 1;
nodes = (
"-307 51 LINE",
"-307 -263 LINE",
"-225 -263 LINE",
"-225 51 LINE"
);
},
{
closed = 1;
nodes = (
"-40 -186 LINE",
"-107 -186 LINE",
"-107 51 LINE",
"-189 51 LINE",
"-189 -263 LINE",
"-40 -263 LINE"
);
}
);
width = 0;
}
);
script = chakma;
category = Mark;
subCategory = Nonspacing;
},
{
glyphname = aa.below_raa.below;
lastChange = "2018-05-08 16:46:44 +0000";
layers = (
{
layerId = "1D72C4DB-D20D-420D-B086-1F84B9DB7C9C";
paths = (
{
closed = 1;
nodes = (
"-158 156 LINE",
"-140 113 OFFCURVE",
"-53 -58 OFFCURVE",
"139 -58 CURVE SMOOTH",
"322 -58 OFFCURVE",
"463 76 OFFCURVE",
"463 578 CURVE SMOOTH",
"463 700 LINE",
"373 700 LINE",
"373 492 LINE SMOOTH",
"373 217 OFFCURVE",
"326 9 OFFCURVE",
"145 9 CURVE SMOOTH",
"-22 9 OFFCURVE",
"-89 146 OFFCURVE",
"-104 197 CURVE"
);
},
{
closed = 1;
nodes = (
"253 186 LINE",
"241 172 OFFCURVE",
"221 155 OFFCURVE",
"199 155 CURVE SMOOTH",
"164 155 OFFCURVE",
"150 200 OFFCURVE",
"150 298 CURVE SMOOTH",
"150 426 LINE SMOOTH",
"150 540 OFFCURVE",
"94 570 OFFCURVE",
"35 570 CURVE SMOOTH",
"-39 570 OFFCURVE",
"-105 523 OFFCURVE",
"-166 436 CURVE",
"-118 388 LINE",
"-93 434 OFFCURVE",
"-38 502 OFFCURVE",
"14 502 CURVE SMOOTH",
"40 502 OFFCURVE",
"60 484 OFFCURVE",
"60 424 CURVE SMOOTH",
"60 272 LINE SMOOTH",
"60 135 OFFCURVE",
"111 88 OFFCURVE",
"180 88 CURVE SMOOTH",
"236 88 OFFCURVE",
"271 122 OFFCURVE",
"287 144 CURVE"
);
}
);
width = 0;
}
);
script = latin;
category = Mark;
subCategory = Nonspacing;
},
{
glyphname = i.below_raa.below;
lastChange = "2018-05-08 16:46:44 +0000";
layers = (
{
components = (
{
name = eiMatra_chakma;
}
);
layerId = "1D72C4DB-D20D-420D-B086-1F84B9DB7C9C";
paths = (
{
closed = 1;
nodes = (
"-158 156 LINE",
"-136 113 OFFCURVE",
"-48 -48 OFFCURVE",
"171 -48 CURVE SMOOTH",
"500 -48 OFFCURVE",
"603 236 OFFCURVE",
"603 617 CURVE SMOOTH",
"603 700 LINE",
"513 700 LINE",
"513 595 LINE SMOOTH",
"513 312 OFFCURVE",
"456 19 OFFCURVE",
"171 19 CURVE SMOOTH",
"-25 19 OFFCURVE",
"-87 161 OFFCURVE",
"-104 207 CURVE"
);
}
);
width = 0;
}
);
script = latin;
category = Mark;
subCategory = Nonspacing;
},
{
glyphname = e.below_raa.below;
lastChange = "2018-05-08 16:46:44 +0000";
layers = (
{
components = (
{
name = e_chakma.below;
}
);
layerId = "1D72C4DB-D20D-420D-B086-1F84B9DB7C9C";
paths = (
{
closed = 1;
nodes = (
"-158 156 LINE",
"-141 113 OFFCURVE",
"-79 -25 OFFCURVE",
"107 -25 CURVE SMOOTH",
"339 -25 OFFCURVE",
"452 186 OFFCURVE",
"452 662 CURVE SMOOTH",
"452 700 LINE",
"362 700 LINE",
"362 629 LINE SMOOTH",
"362 232 OFFCURVE",
"302 42 OFFCURVE",
"106 42 CURVE SMOOTH",
"-49 42 OFFCURVE",
"-91 153 OFFCURVE",
"-104 207 CURVE"
);
}
);
width = 0;
}
);
script = latin;
category = Mark;
subCategory = Nonspacing;
},
{
glyphname = raa.below_uMatra;
lastChange = "2018-05-08 16:46:37 +0000";
layers = (
{
layerId = "1D72C4DB-D20D-420D-B086-1F84B9DB7C9C";
paths = (
{
closed = 1;
nodes = (
"-611 -121 LINE",
"-611 -204 OFFCURVE",
"-554 -283 OFFCURVE",
"-431 -283 CURVE SMOOTH",
"-299 -283 OFFCURVE",
"-245 -193 OFFCURVE",
"-245 -65 CURVE SMOOTH",
"-245 51 LINE",
"-327 51 LINE",
"-327 -65 LINE SMOOTH",
"-327 -160 OFFCURVE",
"-366 -216 OFFCURVE",
"-435 -216 CURVE SMOOTH",
"-492 -216 OFFCURVE",
"-529 -177 OFFCURVE",
"-529 -121 CURVE"
);
},
{
closed = 1;
nodes = (
"-49 -186 LINE",
"-116 -186 LINE",
"-116 51 LINE",
"-198 51 LINE",
"-198 -263 LINE",
"-49 -263 LINE"
);
}
);
width = 0;
}
);
script = "";
category = Mark;
subCategory = Nonspacing;
},
{
glyphname = ngaa_aaMatra;
lastChange = "2018-05-08 16:47:15 +0000";
layers = (
{
layerId = "1D72C4DB-D20D-420D-B086-1F84B9DB7C9C";
paths = (
{
closed = 1;
nodes = (
"400 483 OFFCURVE",
"434 427 OFFCURVE",
"502 427 CURVE SMOOTH",
"581 427 OFFCURVE",
"634 502 OFFCURVE",
"667 502 CURVE SMOOTH",
"687 502 OFFCURVE",
"690 475 OFFCURVE",
"690 434 CURVE SMOOTH",
"690 152 LINE SMOOTH",
"690 15 OFFCURVE",
"741 -32 OFFCURVE",
"810 -32 CURVE SMOOTH",
"866 -32 OFFCURVE",
"901 2 OFFCURVE",
"917 24 CURVE",
"883 66 LINE",
"868 53 OFFCURVE",
"848 35 OFFCURVE",
"827 35 CURVE SMOOTH",
"791 35 OFFCURVE",
"780 90 OFFCURVE",
"780 248 CURVE SMOOTH",
"780 436 LINE SMOOTH",
"780 530 OFFCURVE",
"735 570 OFFCURVE",
"687 570 CURVE SMOOTH",
"619 570 OFFCURVE",
"573 493 OFFCURVE",
"511 493 CURVE SMOOTH",
"457 493 OFFCURVE",
"423 550 OFFCURVE",
"296 550 CURVE SMOOTH",
"154 550 OFFCURVE",
"69 478 OFFCURVE",
"69 389 CURVE SMOOTH",
"69 345 OFFCURVE",
"90 304 OFFCURVE",
"147 277 CURVE",
"147 291 LINE",
"89 272 OFFCURVE",
"60 220 OFFCURVE",
"60 163 CURVE SMOOTH",
"60 66 OFFCURVE",
"148 -10 OFFCURVE",
"288 -10 CURVE SMOOTH",
"447 -10 OFFCURVE",
"521 82 OFFCURVE",
"554 156 CURVE",
"480 167 LINE",
"451 109 OFFCURVE",
"385 57 OFFCURVE",
"297 57 CURVE SMOOTH",
"226 57 OFFCURVE",
"150 91 OFFCURVE",
"150 167 CURVE SMOOTH",
"150 223 OFFCURVE",
"195 251 OFFCURVE",
"268 251 CURVE SMOOTH",
"289 251 LINE",
"289 318 LINE",
"271 318 LINE SMOOTH",
"225 318 OFFCURVE",
"159 339 OFFCURVE",
"159 395 CURVE SMOOTH",
"159 453 OFFCURVE",
"231 483 OFFCURVE",
"303 483 CURVE SMOOTH"
);
}
);
width = 981;
}
);
leftMetricsKey = ngaa_chakma;
script = "";
category = Letter;
subCategory = "";
},
{
glyphname = ngaa_eiMatra;
lastChange = "2018-05-08 16:47:15 +0000";
layers = (
{
layerId = "1D72C4DB-D20D-420D-B086-1F84B9DB7C9C";
paths = (
{
closed = 1;
nodes = (
"154 550 OFFCURVE",
"69 478 OFFCURVE",
"69 389 CURVE SMOOTH",
"69 345 OFFCURVE",
"90 304 OFFCURVE",
"147 277 CURVE",
"147 291 LINE",
"89 272 OFFCURVE",
"60 220 OFFCURVE",
"60 163 CURVE SMOOTH",
"60 66 OFFCURVE",
"148 -10 OFFCURVE",
"288 -10 CURVE SMOOTH",
"447 -10 OFFCURVE",
"521 82 OFFCURVE",
"554 156 CURVE",
"480 167 LINE",
"451 109 OFFCURVE",
"385 57 OFFCURVE",
"297 57 CURVE SMOOTH",
"226 57 OFFCURVE",
"150 91 OFFCURVE",
"150 167 CURVE SMOOTH",
"150 223 OFFCURVE",
"195 251 OFFCURVE",
"268 251 CURVE SMOOTH",
"289 251 LINE",
"289 318 LINE",
"271 318 LINE SMOOTH",
"225 318 OFFCURVE",
"159 339 OFFCURVE",
"159 395 CURVE SMOOTH",
"159 453 OFFCURVE",
"232 483 OFFCURVE",
"304 483 CURVE SMOOTH",
"409 483 OFFCURVE",
"446 404 OFFCURVE",
"530 404 CURVE SMOOTH",
"585 404 OFFCURVE",
"631 437 OFFCURVE",
"682 437 CURVE SMOOTH",
"722 437 OFFCURVE",
"769 417 OFFCURVE",
"769 330 CURVE SMOOTH",
"769 273 OFFCURVE",
"748 219 OFFCURVE",
"713 219 CURVE SMOOTH",
"699 219 OFFCURVE",
"684 228 OFFCURVE",
"684 253 CURVE SMOOTH",
"684 290 OFFCURVE",
"716 317 OFFCURVE",
"760 317 CURVE SMOOTH",
"815 317 OFFCURVE",
"888 276 OFFCURVE",
"888 152 CURVE SMOOTH",
"888 128 LINE",
"965 128 LINE",
"952 208 OFFCURVE",
"958 280 OFFCURVE",
"965 323 CURVE SMOOTH",
"977 399 OFFCURVE",
"1016 560 OFFCURVE",
"1079 656 CURVE",
"1022 685 LINE",
"955 591 OFFCURVE",
"895 410 OFFCURVE",
"884 295 CURVE",
"893 316 LINE",
"861 361 OFFCURVE",
"815 376 OFFCURVE",
"764 376 CURVE SMOOTH",
"668 376 OFFCURVE",
"610 323 OFFCURVE",
"610 256 CURVE SMOOTH",
"610 199 OFFCURVE",
"655 162 OFFCURVE",
"705 162 CURVE SMOOTH",
"787 162 OFFCURVE",
"841 252 OFFCURVE",
"841 335 CURVE SMOOTH",
"841 435 OFFCURVE",
"771 499 OFFCURVE",
"684 499 CURVE SMOOTH",
"620 499 OFFCURVE",
"581 465 OFFCURVE",
"539 465 CURVE SMOOTH",
"472 465 OFFCURVE",
"442 550 OFFCURVE",
"296 550 CURVE SMOOTH"
);
}
);
width = 1099;
}
);
leftMetricsKey = ngaa_chakma;
script = "";
category = Letter;
subCategory = "";
},
{
glyphname = ngaa_e.below;
lastChange = "2018-05-08 16:47:15 +0000";
layers = (
{
layerId = "1D72C4DB-D20D-420D-B086-1F84B9DB7C9C";
paths = (
{
closed = 1;
nodes = (
"740 429 OFFCURVE",
"782 345 OFFCURVE",
"782 277 CURVE SMOOTH",
"782 225 OFFCURVE",
"765 203 OFFCURVE",
"747 203 CURVE SMOOTH",
"734 203 OFFCURVE",
"724 215 OFFCURVE",
"724 240 CURVE SMOOTH",
"724 298 OFFCURVE",
"779 352 OFFCURVE",
"821 408 CURVE SMOOTH",
"860 460 OFFCURVE",
"894 520 OFFCURVE",
"894 584 CURVE SMOOTH",
"894 654 OFFCURVE",
"871 695 OFFCURVE",
"830 738 CURVE",
"784 683 LINE",
"798 671 OFFCURVE",
"822 635 OFFCURVE",
"822 574 CURVE SMOOTH",
"822 532 OFFCURVE",
"804 492 OFFCURVE",
"776 455 CURVE SMOOTH",
"716 376 OFFCURVE",
"642 314 OFFCURVE",
"642 236 CURVE SMOOTH",
"642 165 OFFCURVE",
"700 142 OFFCURVE",
"744 142 CURVE SMOOTH",
"825 142 OFFCURVE",
"865 217 OFFCURVE",
"865 293 CURVE SMOOTH",
"865 415 OFFCURVE",
"769 490 OFFCURVE",
"685 490 CURVE SMOOTH",
"630 490 OFFCURVE",
"596 469 OFFCURVE",
"550 469 CURVE SMOOTH",
"459 469 OFFCURVE",
"441 550 OFFCURVE",
"289 550 CURVE SMOOTH",
"157 550 OFFCURVE",
"69 478 OFFCURVE",
"69 389 CURVE SMOOTH",
"69 345 OFFCURVE",
"90 304 OFFCURVE",
"147 277 CURVE",
"147 291 LINE",
"89 272 OFFCURVE",
"60 220 OFFCURVE",
"60 163 CURVE SMOOTH",
"60 66 OFFCURVE",
"148 -10 OFFCURVE",
"288 -10 CURVE SMOOTH",
"447 -10 OFFCURVE",
"521 82 OFFCURVE",
"554 156 CURVE",
"480 167 LINE",
"451 109 OFFCURVE",
"385 57 OFFCURVE",
"297 57 CURVE SMOOTH",
"226 57 OFFCURVE",
"150 91 OFFCURVE",
"150 167 CURVE SMOOTH",
"150 223 OFFCURVE",
"195 251 OFFCURVE",
"268 251 CURVE SMOOTH",
"289 251 LINE",
"289 318 LINE",
"271 318 LINE SMOOTH",
"225 318 OFFCURVE",
"159 340 OFFCURVE",
"159 397 CURVE SMOOTH",
"159 454 OFFCURVE",
"233 483 OFFCURVE",
"304 483 CURVE SMOOTH",
"414 483 OFFCURVE",
"436 408 OFFCURVE",
"542 408 CURVE SMOOTH",
"598 408 OFFCURVE",
"624 429 OFFCURVE",
"667 429 CURVE SMOOTH"
);
}
);
width = 954;
}
);
leftMetricsKey = ngaa_chakma;
rightMetricsKey = kaa_chakma;
script = "";
category = Letter;
subCategory = "";
},
{
glyphname = jhaa_aaMatra;
lastChange = "2018-05-08 16:47:40 +0000";
layers = (
{
layerId = "1D72C4DB-D20D-420D-B086-1F84B9DB7C9C";
paths = (
{
closed = 1;
nodes = (
"753 338 OFFCURVE",
"795 502 OFFCURVE",
"844 502 CURVE SMOOTH",
"860 502 OFFCURVE",
"864 485 OFFCURVE",
"864 471 CURVE SMOOTH",
"864 152 LINE SMOOTH",
"864 15 OFFCURVE",
"915 -32 OFFCURVE",
"984 -32 CURVE SMOOTH",
"1040 -32 OFFCURVE",
"1075 2 OFFCURVE",
"1091 24 CURVE",
"1057 66 LINE",
"1042 53 OFFCURVE",
"1022 35 OFFCURVE",
"1001 35 CURVE SMOOTH",
"965 35 OFFCURVE",
"954 90 OFFCURVE",
"954 248 CURVE SMOOTH",
"954 476 LINE SMOOTH",
"954 540 OFFCURVE",
"911 570 OFFCURVE",
"858 570 CURVE SMOOTH",
"734 570 OFFCURVE",
"704 411 OFFCURVE",
"607 411 CURVE SMOOTH",
"550 411 OFFCURVE",
"504 465 OFFCURVE",
"484 507 CURVE",
"419 444 LINE",
"439 410 OFFCURVE",
"493 338 OFFCURVE",
"600 338 CURVE SMOOTH"
);
},
{
closed = 1;
nodes = (
"646 330 OFFCURVE",
"645 341 OFFCURVE",
"645 351 CURVE",
"555 351 LINE",
"555 341 OFFCURVE",
"556 332 OFFCURVE",
"556 322 CURVE SMOOTH",
"556 148 OFFCURVE",
"436 58 OFFCURVE",
"306 58 CURVE SMOOTH",
"246 58 OFFCURVE",
"197 77 OFFCURVE",
"172 88 CURVE",
"176 82 LINE",
"274 143 OFFCURVE",
"349 223 OFFCURVE",
"349 332 CURVE SMOOTH",
"349 439 OFFCURVE",
"276 511 OFFCURVE",
"176 511 CURVE SMOOTH",
"149 511 OFFCURVE",
"120 506 OFFCURVE",
"89 495 CURVE",
"89 433 LINE",
"112 441 OFFCURVE",
"136 445 OFFCURVE",
"155 445 CURVE SMOOTH",
"226 445 OFFCURVE",
"259 393 OFFCURVE",
"259 324 CURVE SMOOTH",
"259 216 OFFCURVE",
"182 174 OFFCURVE",
"87 125 CURVE",
"60 55 LINE",
"105 32 OFFCURVE",
"199 -9 OFFCURVE",
"308 -9 CURVE SMOOTH",
"491 -9 OFFCURVE",
"645 98 OFFCURVE",
"646 320 CURVE SMOOTH"
);
}
);
width = 1155;
}
);
leftMetricsKey = jhaa_chakma;
script = "";
category = Letter;
subCategory = "";
},
{
glyphname = jhaa_eiMatra;
lastChange = "2018-05-08 16:47:40 +0000";
layers = (
{
layerId = "1D72C4DB-D20D-420D-B086-1F84B9DB7C9C";
paths = (
{
closed = 1;
nodes = (
"731 338 OFFCURVE",
"762 437 OFFCURVE",
"854 437 CURVE SMOOTH",
"895 437 OFFCURVE",
"947 417 OFFCURVE",
"947 330 CURVE SMOOTH",
"947 273 OFFCURVE",
"926 219 OFFCURVE",
"891 219 CURVE SMOOTH",
"877 219 OFFCURVE",
"862 228 OFFCURVE",
"862 253 CURVE SMOOTH",
"862 290 OFFCURVE",
"894 317 OFFCURVE",
"938 317 CURVE SMOOTH",
"993 317 OFFCURVE",
"1066 276 OFFCURVE",
"1066 152 CURVE SMOOTH",
"1066 128 LINE",
"1143 128 LINE",
"1130 208 OFFCURVE",
"1136 280 OFFCURVE",
"1143 323 CURVE SMOOTH",
"1155 399 OFFCURVE",
"1194 560 OFFCURVE",
"1257 656 CURVE",
"1200 685 LINE",
"1133 591 OFFCURVE",
"1073 410 OFFCURVE",
"1062 295 CURVE",
"1071 316 LINE",
"1039 361 OFFCURVE",
"993 376 OFFCURVE",
"942 376 CURVE SMOOTH",
"846 376 OFFCURVE",
"788 323 OFFCURVE",
"788 256 CURVE SMOOTH",
"788 199 OFFCURVE",
"833 162 OFFCURVE",
"883 162 CURVE SMOOTH",
"965 162 OFFCURVE",
"1009 252 OFFCURVE",
"1009 335 CURVE SMOOTH",
"1009 435 OFFCURVE",
"950 498 OFFCURVE",
"853 498 CURVE SMOOTH",
"739 498 OFFCURVE",
"703 411 OFFCURVE",
"617 411 CURVE SMOOTH",
"551 411 OFFCURVE",
"507 462 OFFCURVE",
"484 507 CURVE",
"419 444 LINE",
"440 410 OFFCURVE",
"493 338 OFFCURVE",
"601 338 CURVE SMOOTH"
);
},
{
closed = 1;
nodes = (
"646 330 OFFCURVE",
"645 341 OFFCURVE",
"645 351 CURVE",
"555 351 LINE",
"555 341 OFFCURVE",
"556 332 OFFCURVE",
"556 322 CURVE SMOOTH",
"556 149 OFFCURVE",
"436 58 OFFCURVE",
"306 58 CURVE SMOOTH",
"246 58 OFFCURVE",
"197 77 OFFCURVE",
"172 88 CURVE",
"176 82 LINE",
"274 143 OFFCURVE",
"349 223 OFFCURVE",
"349 332 CURVE SMOOTH",
"349 439 OFFCURVE",
"276 511 OFFCURVE",
"176 511 CURVE SMOOTH",
"149 511 OFFCURVE",
"120 506 OFFCURVE",
"89 495 CURVE",
"89 433 LINE",
"112 441 OFFCURVE",
"136 445 OFFCURVE",
"155 445 CURVE SMOOTH",
"226 445 OFFCURVE",
"259 393 OFFCURVE",
"259 324 CURVE SMOOTH",
"259 216 OFFCURVE",
"182 174 OFFCURVE",
"87 125 CURVE",
"60 55 LINE",
"105 32 OFFCURVE",
"199 -9 OFFCURVE",
"308 -9 CURVE SMOOTH",
"491 -9 OFFCURVE",
"646 98 OFFCURVE",
"646 320 CURVE SMOOTH"
);
}
);
width = 1277;
}
);
leftMetricsKey = jhaa_chakma;
script = "";
category = Letter;
subCategory = "";
},
{
glyphname = jhaa_e.below;
lastChange = "2018-05-08 16:47:40 +0000";
layers = (
{
layerId = "1D72C4DB-D20D-420D-B086-1F84B9DB7C9C";
paths = (
{
closed = 1;
nodes = (
"646 330 OFFCURVE",
"645 341 OFFCURVE",
"645 351 CURVE",
"555 351 LINE",
"555 341 OFFCURVE",
"556 332 OFFCURVE",
"556 322 CURVE SMOOTH",
"556 149 OFFCURVE",
"436 58 OFFCURVE",
"306 58 CURVE SMOOTH",
"246 58 OFFCURVE",
"197 77 OFFCURVE",
"172 88 CURVE",
"176 82 LINE",
"274 143 OFFCURVE",
"349 223 OFFCURVE",
"349 332 CURVE SMOOTH",
"349 439 OFFCURVE",
"276 511 OFFCURVE",
"176 511 CURVE SMOOTH",
"149 511 OFFCURVE",
"120 506 OFFCURVE",
"89 495 CURVE",
"89 433 LINE",
"112 441 OFFCURVE",
"136 445 OFFCURVE",
"155 445 CURVE SMOOTH",
"226 445 OFFCURVE",
"259 393 OFFCURVE",
"259 324 CURVE SMOOTH",
"259 216 OFFCURVE",
"182 174 OFFCURVE",
"87 125 CURVE",
"60 55 LINE",
"105 32 OFFCURVE",
"199 -9 OFFCURVE",
"308 -9 CURVE SMOOTH",
"491 -9 OFFCURVE",
"646 98 OFFCURVE",
"646 320 CURVE SMOOTH"
);
},
{
closed = 1;
nodes = (
"775 470 OFFCURVE",
"732 411 OFFCURVE",
"634 411 CURVE SMOOTH",
"539 411 OFFCURVE",
"500 470 OFFCURVE",
"484 507 CURVE",
"419 444 LINE",
"435 410 OFFCURVE",
"493 338 OFFCURVE",
"617 338 CURVE SMOOTH",
"755 338 OFFCURVE",
"779 409 OFFCURVE",
"871 409 CURVE SMOOTH",
"944 409 OFFCURVE",
"978 345 OFFCURVE",
"978 277 CURVE SMOOTH",
"978 225 OFFCURVE",
"961 203 OFFCURVE",
"943 203 CURVE SMOOTH",
"930 203 OFFCURVE",
"920 215 OFFCURVE",
"920 240 CURVE SMOOTH",
"920 298 OFFCURVE",
"975 352 OFFCURVE",
"1017 408 CURVE SMOOTH",
"1056 460 OFFCURVE",
"1090 520 OFFCURVE",
"1090 584 CURVE SMOOTH",
"1090 654 OFFCURVE",
"1067 695 OFFCURVE",
"1026 738 CURVE",
"980 683 LINE",
"994 671 OFFCURVE",
"1018 635 OFFCURVE",
"1018 574 CURVE SMOOTH",
"1018 532 OFFCURVE",
"1000 492 OFFCURVE",
"972 455 CURVE SMOOTH",
"912 376 OFFCURVE",
"838 314 OFFCURVE",
"838 236 CURVE SMOOTH",
"838 165 OFFCURVE",
"896 142 OFFCURVE",
"940 142 CURVE SMOOTH",
"1021 142 OFFCURVE",
"1061 217 OFFCURVE",
"1061 293 CURVE SMOOTH",
"1061 415 OFFCURVE",
"965 470 OFFCURVE",
"881 470 CURVE SMOOTH"
);
}
);
width = 1150;
}
);
leftMetricsKey = jhaa_chakma;
rightMetricsKey = kaa_chakma;
script = "";
category = Letter;
subCategory = "";
},
{
glyphname = jhaa_yyaa.below;
lastChange = "2018-05-08 16:47:40 +0000";
layers = (
{
components = (
{
name = jhaa_chakma;
}
);
layerId = "1D72C4DB-D20D-420D-B086-1F84B9DB7C9C";
paths = (
{
closed = 1;
nodes = (
"560 120 LINE",
"591 67 OFFCURVE",
"663 -15 OFFCURVE",
"784 -15 CURVE SMOOTH",
"897 -15 OFFCURVE",
"981 56 OFFCURVE",
"981 159 CURVE SMOOTH",
"981 700 LINE",
"891 700 LINE",
"891 175 LINE SMOOTH",
"891 102 OFFCURVE",
"842 52 OFFCURVE",
"776 52 CURVE SMOOTH",
"701 52 OFFCURVE",
"636 116 OFFCURVE",
"606 169 CURVE"
);
}
);
width = 1041;
}
);
leftMetricsKey = jhaa_chakma;
script = "";
category = Letter;
subCategory = "";
},
{
glyphname = nyaa_raa.below;
lastChange = "2018-05-08 16:47:15 +0000";
layers = (
{
components = (
{
name = nyaa_chakma;
}
);
layerId = "1D72C4DB-D20D-420D-B086-1F84B9DB7C9C";
paths = (
{
closed = 1;
nodes = (
"99 -70 LINE",
"142 -159 OFFCURVE",
"228 -224 OFFCURVE",
"388 -224 CURVE SMOOTH",
"586 -224 OFFCURVE",
"662 -125 OFFCURVE",
"662 -26 CURVE SMOOTH",
"662 25 OFFCURVE",
"642 82 OFFCURVE",
"579 130 CURVE",
"519 80 LINE",
"566 40 OFFCURVE",
"581 1 OFFCURVE",
"581 -33 CURVE SMOOTH",
"581 -105 OFFCURVE",
"514 -164 OFFCURVE",
"387 -164 CURVE SMOOTH",
"248 -164 OFFCURVE",
"197 -88 OFFCURVE",
"179 -52 CURVE"
);
}
);
width = 756;
}
);
leftMetricsKey = nyaa_chakma;
rightMetricsKey = nyaa_chakma;
script = "";
category = Letter;
subCategory = "";
},
{
glyphname = nyaa_yyaa.below;
lastChange = "2018-05-08 16:47:15 +0000";
layers = (
{
components = (
{
name = nyaa_chakma;
}
);
layerId = "1D72C4DB-D20D-420D-B086-1F84B9DB7C9C";
paths = (
{
closed = 1;
nodes = (
"406 70 LINE",
"483 2 OFFCURVE",
"569 -15 OFFCURVE",
"632 -15 CURVE SMOOTH",
"763 -15 OFFCURVE",
"862 56 OFFCURVE",
"862 159 CURVE SMOOTH",
"862 700 LINE",
"772 700 LINE",
"772 175 LINE SMOOTH",
"772 102 OFFCURVE",
"717 52 OFFCURVE",
"628 52 CURVE SMOOTH",
"577 52 OFFCURVE",
"505 69 OFFCURVE",
"452 119 CURVE"
);
}
);
width = 922;
}
);
leftMetricsKey = nyaa_chakma;
script = "";
category = Letter;
subCategory = "";
},
{
glyphname = ttaa_aaMatra;
lastChange = "2018-05-08 16:47:40 +0000";
layers = (
{
components = (
{
name = bottom11111;
transform = "{1, 0, 0, 1, 400, 0}";
}
);
layerId = "1D72C4DB-D20D-420D-B086-1F84B9DB7C9C";
paths = (
{
closed = 1;
nodes = (
"802 479 LINE SMOOTH",
"952 479 OFFCURVE",
"963 381 OFFCURVE",
"963 346 CURVE SMOOTH",
"963 152 LINE SMOOTH",
"963 15 OFFCURVE",
"1014 -32 OFFCURVE",
"1083 -32 CURVE SMOOTH",
"1139 -32 OFFCURVE",
"1174 2 OFFCURVE",
"1190 24 CURVE",
"1156 66 LINE",
"1141 53 OFFCURVE",
"1121 35 OFFCURVE",
"1100 35 CURVE SMOOTH",
"1064 35 OFFCURVE",
"1053 90 OFFCURVE",
"1053 248 CURVE SMOOTH",
"1053 342 LINE SMOOTH",
"1053 426 OFFCURVE",
"1008 546 OFFCURVE",
"817 546 CURVE SMOOTH",
"484 546 LINE SMOOTH",
"279 546 OFFCURVE",
"60 485 OFFCURVE",
"60 264 CURVE SMOOTH",
"60 110 OFFCURVE",
"172 30 OFFCURVE",
"290 30 CURVE SMOOTH",
"433 30 OFFCURVE",
"520 151 OFFCURVE",
"520 270 CURVE SMOOTH",
"520 399 OFFCURVE",
"424 499 OFFCURVE",
"249 499 CURVE",
"221 450 LINE",
"330 450 OFFCURVE",
"430 405 OFFCURVE",
"430 267 CURVE SMOOTH",
"430 181 OFFCURVE",
"387 97 OFFCURVE",
"290 97 CURVE SMOOTH",
"198 97 OFFCURVE",
"150 168 OFFCURVE",
"150 264 CURVE SMOOTH",
"150 451 OFFCURVE",
"344 479 OFFCURVE",
"470 479 CURVE SMOOTH"
);
}
);
width = 1254;
}
);
leftMetricsKey = ttaa_chakma;
script = "";
category = Letter;
subCategory = "";
},
{
glyphname = ttaa_eiMatra;
lastChange = "2018-05-08 16:47:15 +0000";
layers = (
{
components = (
{
name = bottom11111;
transform = "{1, 0, 0, 1, 400, 0}";
}
);
layerId = "1D72C4DB-D20D-420D-B086-1F84B9DB7C9C";
paths = (
{
closed = 1;
nodes = (
"840 479 OFFCURVE",
"1010 447 OFFCURVE",
"1010 303 CURVE SMOOTH",
"1010 253 OFFCURVE",
"989 199 OFFCURVE",
"954 199 CURVE SMOOTH",
"940 199 OFFCURVE",
"925 208 OFFCURVE",
"925 233 CURVE SMOOTH",
"925 270 OFFCURVE",
"957 297 OFFCURVE",
"1001 297 CURVE SMOOTH",
"1056 297 OFFCURVE",
"1129 256 OFFCURVE",
"1129 132 CURVE SMOOTH",
"1129 108 LINE",
"1206 108 LINE",
"1193 188 OFFCURVE",
"1199 260 OFFCURVE",
"1206 303 CURVE SMOOTH",
"1218 379 OFFCURVE",
"1257 560 OFFCURVE",
"1320 656 CURVE",
"1263 685 LINE",
"1196 591 OFFCURVE",
"1136 390 OFFCURVE",
"1125 275 CURVE",
"1134 296 LINE",
"1102 341 OFFCURVE",
"1056 356 OFFCURVE",
"1005 356 CURVE SMOOTH",
"909 356 OFFCURVE",
"851 303 OFFCURVE",
"851 236 CURVE SMOOTH",
"851 179 OFFCURVE",
"896 142 OFFCURVE",
"946 142 CURVE SMOOTH",
"1028 142 OFFCURVE",
"1086 223 OFFCURVE",
"1086 309 CURVE SMOOTH",
"1086 461 OFFCURVE",
"957 546 OFFCURVE",
"554 546 CURVE SMOOTH",
"259 546 OFFCURVE",
"60 485 OFFCURVE",
"60 264 CURVE SMOOTH",
"60 110 OFFCURVE",
"172 30 OFFCURVE",
"290 30 CURVE SMOOTH",
"433 30 OFFCURVE",
"520 151 OFFCURVE",
"520 270 CURVE SMOOTH",
"520 399 OFFCURVE",
"424 499 OFFCURVE",
"249 499 CURVE",
"221 450 LINE",
"330 450 OFFCURVE",
"430 405 OFFCURVE",
"430 267 CURVE SMOOTH",
"430 181 OFFCURVE",
"387 97 OFFCURVE",
"290 97 CURVE SMOOTH",
"198 97 OFFCURVE",
"150 168 OFFCURVE",
"150 264 CURVE SMOOTH",
"150 451 OFFCURVE",
"324 479 OFFCURVE",
"570 479 CURVE SMOOTH"
);
}
);
width = 1340;
}
);
leftMetricsKey = ttaa_chakma;
script = "";
category = Letter;
subCategory = "";
},
{
glyphname = ttaa_e.below;
lastChange = "2018-05-08 16:47:15 +0000";
layers = (
{
components = (
{
name = bottom11111;
transform = "{1, 0, 0, 1, 400, 0}";
}
);
layerId = "1D72C4DB-D20D-420D-B086-1F84B9DB7C9C";
paths = (
{
closed = 1;
nodes = (
"1077 458 OFFCURVE",
"740 546 OFFCURVE",
"512 546 CURVE SMOOTH",
"259 546 OFFCURVE",
"60 485 OFFCURVE",
"60 264 CURVE SMOOTH",
"60 110 OFFCURVE",
"172 30 OFFCURVE",
"290 30 CURVE SMOOTH",
"433 30 OFFCURVE",
"520 151 OFFCURVE",
"520 270 CURVE SMOOTH",
"520 399 OFFCURVE",
"424 499 OFFCURVE",
"249 499 CURVE",
"221 450 LINE",
"330 450 OFFCURVE",
"430 405 OFFCURVE",
"430 267 CURVE SMOOTH",
"430 181 OFFCURVE",
"387 97 OFFCURVE",
"290 97 CURVE SMOOTH",
"198 97 OFFCURVE",
"150 168 OFFCURVE",
"150 264 CURVE SMOOTH",
"150 451 OFFCURVE",
"344 479 OFFCURVE",
"502 479 CURVE SMOOTH",
"680 479 OFFCURVE",
"995 433 OFFCURVE",
"994 238 CURVE SMOOTH",
"994 192 OFFCURVE",
"977 169 OFFCURVE",
"959 169 CURVE SMOOTH",
"946 169 OFFCURVE",
"936 181 OFFCURVE",
"936 206 CURVE SMOOTH",
"936 264 OFFCURVE",
"991 318 OFFCURVE",
"1033 374 CURVE SMOOTH",
"1072 426 OFFCURVE",
"1106 486 OFFCURVE",
"1106 550 CURVE SMOOTH",
"1106 620 OFFCURVE",
"1083 661 OFFCURVE",
"1042 704 CURVE",
"996 649 LINE",
"1010 637 OFFCURVE",
"1034 601 OFFCURVE",
"1034 540 CURVE SMOOTH",
"1034 498 OFFCURVE",
"1016 458 OFFCURVE",
"988 421 CURVE SMOOTH",
"928 342 OFFCURVE",
"854 280 OFFCURVE",
"854 202 CURVE SMOOTH",
"854 131 OFFCURVE",
"912 108 OFFCURVE",
"956 108 CURVE SMOOTH",
"1037 108 OFFCURVE",
"1077 183 OFFCURVE",
"1077 252 CURVE SMOOTH"
);
}
);
width = 1166;
}
);
leftMetricsKey = ttaa_chakma;
rightMetricsKey = kaa_chakma;
script = "";
category = Letter;
subCategory = "";
},
{
glyphname = ttaa_yyaa.below;
lastChange = "2018-05-08 16:47:40 +0000";
layers = (
{
components = (
{
name = ttaa_chakma;
}
);
layerId = "1D72C4DB-D20D-420D-B086-1F84B9DB7C9C";
paths = (
{
closed = 1;
nodes = (
"708 4 LINE",
"744 -49 OFFCURVE",
"806 -97 OFFCURVE",
"889 -97 CURVE SMOOTH",
"990 -97 OFFCURVE",
"1067 -26 OFFCURVE",
"1067 77 CURVE SMOOTH",
"1067 700 LINE",
"977 700 LINE",
"977 93 LINE SMOOTH",
"977 20 OFFCURVE",
"934 -30 OFFCURVE",
"879 -30 CURVE SMOOTH",
"823 -30 OFFCURVE",
"776 22 OFFCURVE",
"754 53 CURVE"
);
}
);
width = 1127;
}
);
leftMetricsKey = ttaa_chakma;
script = "";
category = Letter;
subCategory = "";
},
{
glyphname = tthaa_aaMatra;
lastChange = "2018-05-08 16:47:40 +0000";
layers = (
{
components = (
{
name = bottom11112;
transform = "{1, 0, 0, 1, 400, 0}";
}
);
layerId = "1D72C4DB-D20D-420D-B086-1F84B9DB7C9C";
paths = (
{
closed = 1;
nodes = (
"802 479 LINE SMOOTH",
"952 479 OFFCURVE",
"963 381 OFFCURVE",
"963 346 CURVE SMOOTH",
"963 152 LINE SMOOTH",
"963 15 OFFCURVE",
"1014 -32 OFFCURVE",
"1083 -32 CURVE SMOOTH",
"1139 -32 OFFCURVE",
"1174 2 OFFCURVE",
"1190 24 CURVE",
"1156 66 LINE",
"1141 53 OFFCURVE",
"1121 35 OFFCURVE",
"1100 35 CURVE SMOOTH",
"1064 35 OFFCURVE",
"1053 90 OFFCURVE",
"1053 248 CURVE SMOOTH",
"1053 342 LINE SMOOTH",
"1053 426 OFFCURVE",
"1008 546 OFFCURVE",
"817 546 CURVE SMOOTH",
"464 546 LINE SMOOTH",
"259 546 OFFCURVE",
"60 485 OFFCURVE",
"60 264 CURVE SMOOTH",
"60 110 OFFCURVE",
"172 30 OFFCURVE",
"290 30 CURVE SMOOTH",
"433 30 OFFCURVE",
"520 151 OFFCURVE",
"520 270 CURVE SMOOTH",
"520 399 OFFCURVE",
"424 499 OFFCURVE",
"249 499 CURVE",
"221 450 LINE",
"330 450 OFFCURVE",
"430 405 OFFCURVE",
"430 267 CURVE SMOOTH",
"430 181 OFFCURVE",
"387 97 OFFCURVE",
"290 97 CURVE SMOOTH",
"198 97 OFFCURVE",
"150 168 OFFCURVE",
"150 264 CURVE SMOOTH",
"150 451 OFFCURVE",
"324 479 OFFCURVE",
"450 479 CURVE SMOOTH"
);
}
);
width = 1254;
}
);
leftMetricsKey = ttaa_chakma;
script = "";
category = Letter;
subCategory = "";
},
{
glyphname = tthaa_eiMatra;
lastChange = "2018-05-08 16:47:40 +0000";
layers = (
{
components = (
{
name = bottom11112;
transform = "{1, 0, 0, 1, 400, 0}";
}
);
layerId = "1D72C4DB-D20D-420D-B086-1F84B9DB7C9C";
paths = (
{
closed = 1;
nodes = (
"840 479 OFFCURVE",
"1010 467 OFFCURVE",
"1010 310 CURVE SMOOTH",
"1010 253 OFFCURVE",
"989 199 OFFCURVE",
"954 199 CURVE SMOOTH",
"940 199 OFFCURVE",
"925 208 OFFCURVE",
"925 233 CURVE SMOOTH",
"925 270 OFFCURVE",
"957 297 OFFCURVE",
"1001 297 CURVE SMOOTH",
"1056 297 OFFCURVE",
"1129 256 OFFCURVE",
"1129 132 CURVE SMOOTH",
"1129 108 LINE",
"1206 108 LINE",
"1193 188 OFFCURVE",
"1199 260 OFFCURVE",
"1206 303 CURVE SMOOTH",
"1218 379 OFFCURVE",
"1257 560 OFFCURVE",
"1320 656 CURVE",
"1263 685 LINE",
"1196 591 OFFCURVE",
"1136 390 OFFCURVE",
"1125 275 CURVE",
"1134 296 LINE",
"1102 341 OFFCURVE",
"1056 356 OFFCURVE",
"1005 356 CURVE SMOOTH",
"909 356 OFFCURVE",
"851 303 OFFCURVE",
"851 236 CURVE SMOOTH",
"851 179 OFFCURVE",
"896 142 OFFCURVE",
"946 142 CURVE SMOOTH",
"1028 142 OFFCURVE",
"1079 229 OFFCURVE",
"1079 327 CURVE SMOOTH",
"1079 487 OFFCURVE",
"917 546 OFFCURVE",
"554 546 CURVE SMOOTH",
"259 546 OFFCURVE",
"60 485 OFFCURVE",
"60 264 CURVE SMOOTH",
"60 110 OFFCURVE",
"172 30 OFFCURVE",
"290 30 CURVE SMOOTH",
"433 30 OFFCURVE",
"520 151 OFFCURVE",
"520 270 CURVE SMOOTH",
"520 399 OFFCURVE",
"424 499 OFFCURVE",
"249 499 CURVE",
"221 450 LINE",
"330 450 OFFCURVE",
"430 405 OFFCURVE",
"430 267 CURVE SMOOTH",
"430 181 OFFCURVE",
"387 97 OFFCURVE",
"290 97 CURVE SMOOTH",
"198 97 OFFCURVE",
"150 168 OFFCURVE",
"150 264 CURVE SMOOTH",
"150 451 OFFCURVE",
"324 479 OFFCURVE",
"570 479 CURVE SMOOTH"
);
}
);
width = 1340;
}
);
leftMetricsKey = ttaa_chakma;
script = "";
category = Letter;
subCategory = "";
},
{
glyphname = tthaa_e.below;
lastChange = "2018-05-08 16:47:40 +0000";
layers = (
{
components = (
{
name = bottom11112;
transform = "{1, 0, 0, 1, 400, 0}";
}
);
layerId = "1D72C4DB-D20D-420D-B086-1F84B9DB7C9C";
paths = (
{
closed = 1;
nodes = (
"1077 458 OFFCURVE",
"740 546 OFFCURVE",
"512 546 CURVE SMOOTH",
"259 546 OFFCURVE",
"60 485 OFFCURVE",
"60 264 CURVE SMOOTH",
"60 110 OFFCURVE",
"172 30 OFFCURVE",
"290 30 CURVE SMOOTH",
"433 30 OFFCURVE",
"520 151 OFFCURVE",
"520 270 CURVE SMOOTH",
"520 399 OFFCURVE",
"424 499 OFFCURVE",
"249 499 CURVE",
"221 450 LINE",
"330 450 OFFCURVE",
"430 405 OFFCURVE",
"430 267 CURVE SMOOTH",
"430 181 OFFCURVE",
"387 97 OFFCURVE",
"290 97 CURVE SMOOTH",
"198 97 OFFCURVE",
"150 168 OFFCURVE",
"150 264 CURVE SMOOTH",
"150 451 OFFCURVE",
"344 479 OFFCURVE",
"502 479 CURVE SMOOTH",
"680 479 OFFCURVE",
"995 433 OFFCURVE",
"994 238 CURVE SMOOTH",
"994 192 OFFCURVE",
"977 169 OFFCURVE",
"959 169 CURVE SMOOTH",
"946 169 OFFCURVE",
"936 181 OFFCURVE",
"936 206 CURVE SMOOTH",
"936 264 OFFCURVE",
"991 318 OFFCURVE",
"1033 374 CURVE SMOOTH",
"1072 426 OFFCURVE",
"1106 486 OFFCURVE",
"1106 550 CURVE SMOOTH",
"1106 620 OFFCURVE",
"1083 661 OFFCURVE",
"1042 704 CURVE",
"996 649 LINE",
"1010 637 OFFCURVE",
"1034 601 OFFCURVE",
"1034 540 CURVE SMOOTH",
"1034 498 OFFCURVE",
"1016 458 OFFCURVE",
"988 421 CURVE SMOOTH",
"928 342 OFFCURVE",
"854 280 OFFCURVE",
"854 202 CURVE SMOOTH",
"854 131 OFFCURVE",
"912 108 OFFCURVE",
"956 108 CURVE SMOOTH",
"1037 108 OFFCURVE",
"1077 183 OFFCURVE",
"1077 252 CURVE SMOOTH"
);
}
);
width = 1166;
}
);
leftMetricsKey = ttaa_chakma;
rightMetricsKey = kaa_chakma;
script = "";
category = Letter;
subCategory = "";
},
{
glyphname = ddaa_yyaa.below;
lastChange = "2018-05-08 16:47:15 +0000";
layers = (
{
layerId = "1D72C4DB-D20D-420D-B086-1F84B9DB7C9C";
paths = (
{
closed = 1;
nodes = (
"463 -8 OFFCURVE",
"370 73 OFFCURVE",
"192 77 CURVE",
"192 58 LINE",
"372 183 OFFCURVE",
"528 296 OFFCURVE",
"528 420 CURVE SMOOTH",
"528 514 OFFCURVE",
"437 549 OFFCURVE",
"338 549 CURVE SMOOTH",
"158 549 OFFCURVE",
"87 437 OFFCURVE",
"86 346 CURVE",
"176 366 LINE",
"172 430 OFFCURVE",
"225 483 OFFCURVE",
"330 483 CURVE SMOOTH",
"387 483 OFFCURVE",
"438 467 OFFCURVE",
"438 413 CURVE SMOOTH",
"438 299 OFFCURVE",
"204 110 OFFCURVE",
"60 87 CURVE",
"60 20 LINE",
"317 22 OFFCURVE",
"428 -75 OFFCURVE",
"564 -75 CURVE SMOOTH",
"719 -75 OFFCURVE",
"800 56 OFFCURVE",
"800 159 CURVE SMOOTH",
"800 700 LINE",
"710 700 LINE",
"710 175 LINE SMOOTH",
"710 102 OFFCURVE",
"672 -8 OFFCURVE",
"560 -8 CURVE SMOOTH"
);
}
);
width = 860;
}
);
leftMetricsKey = ddaa_chakma;
script = "";
category = Letter;
subCategory = "";
},
{
glyphname = ddhaa_yyaa.below;
lastChange = "2018-05-08 16:47:40 +0000";
layers = (
{
components = (
{
name = ddhaa_chakma;
}
);
layerId = "1D72C4DB-D20D-420D-B086-1F84B9DB7C9C";
paths = (
{
closed = 1;
nodes = (
"560 120 LINE",
"591 67 OFFCURVE",
"663 -15 OFFCURVE",
"784 -15 CURVE SMOOTH",
"897 -15 OFFCURVE",
"981 56 OFFCURVE",
"981 159 CURVE SMOOTH",
"981 700 LINE",
"891 700 LINE",
"891 175 LINE SMOOTH",
"891 102 OFFCURVE",
"842 52 OFFCURVE",
"776 52 CURVE SMOOTH",
"701 52 OFFCURVE",
"636 116 OFFCURVE",
"606 169 CURVE"
);
}
);
width = 1041;
}
);
leftMetricsKey = ddhaa_chakma;
script = "";
category = Letter;
subCategory = "";
},
{
glyphname = ghaa_chakma.alt;
lastChange = "2018-05-08 16:47:40 +0000";
layers = (
{
layerId = "1D72C4DB-D20D-420D-B086-1F84B9DB7C9C";
paths = (
{
closed = 1;
nodes = (
"561 478 LINE",
"570 482 OFFCURVE",
"580 484 OFFCURVE",
"591 484 CURVE SMOOTH",
"665 484 OFFCURVE",
"726 395 OFFCURVE",
"726 270 CURVE SMOOTH",
"726 151 OFFCURVE",
"659 57 OFFCURVE",
"581 57 CURVE SMOOTH",
"526 57 OFFCURVE",
"474 105 OFFCURVE",
"459 178 CURVE",
"373 153 LINE",
"408 56 OFFCURVE",
"472 -10 OFFCURVE",
"578 -10 CURVE SMOOTH",
"714 -10 OFFCURVE",
"816 108 OFFCURVE",
"816 269 CURVE SMOOTH",
"816 432 OFFCURVE",
"715 551 OFFCURVE",
"583 551 CURVE SMOOTH",
"566 551 OFFCURVE",
"549 549 OFFCURVE",
"533 545 CURVE"
);
},
{
closed = 1;
nodes = (
"901 478 LINE",
"910 482 OFFCURVE",
"920 484 OFFCURVE",
"931 484 CURVE SMOOTH",
"1006 484 OFFCURVE",
"1067 395 OFFCURVE",
"1067 270 CURVE SMOOTH",
"1067 151 OFFCURVE",
"1000 57 OFFCURVE",
"922 57 CURVE SMOOTH",
"867 57 OFFCURVE",
"815 104 OFFCURVE",
"800 178 CURVE",
"714 153 LINE",
"749 56 OFFCURVE",
"815 -10 OFFCURVE",
"920 -10 CURVE SMOOTH",
"1057 -10 OFFCURVE",
"1157 108 OFFCURVE",
"1157 269 CURVE SMOOTH",
"1157 432 OFFCURVE",
"1056 551 OFFCURVE",
"924 551 CURVE SMOOTH",
"907 551 OFFCURVE",
"890 549 OFFCURVE",
"874 545 CURVE"
);
},
{
closed = 1;
nodes = (
"133 417 LINE",
"160 463 OFFCURVE",
"198 484 OFFCURVE",
"238 484 CURVE SMOOTH",
"321 484 OFFCURVE",
"385 395 OFFCURVE",
"385 270 CURVE SMOOTH",
"385 151 OFFCURVE",
"328 57 OFFCURVE",
"240 57 CURVE SMOOTH",
"175 57 OFFCURVE",
"131 108 OFFCURVE",
"118 178 CURVE",
"32 153 LINE",
"57 56 OFFCURVE",
"135 -10 OFFCURVE",
"240 -10 CURVE SMOOTH",
"377 -10 OFFCURVE",
"475 108 OFFCURVE",
"475 269 CURVE SMOOTH",
"475 432 OFFCURVE",
"380 551 OFFCURVE",
"242 551 CURVE SMOOTH",
"179 551 OFFCURVE",
"116 526 OFFCURVE",
"79 472 CURVE"
);
}
);
width = 1217;
}
);
rightMetricsKey = waa_chakma;
script = chakma;
category = Letter;
subCategory = Other;
},
{
glyphname = chaa_chakma.alt;
lastChange = "2018-05-08 16:47:40 +0000";
layers = (
{
layerId = "1D72C4DB-D20D-420D-B086-1F84B9DB7C9C";
paths = (
{
closed = 1;
nodes = (
"241 67 LINE",
"230 60 OFFCURVE",
"219 57 OFFCURVE",
"209 57 CURVE SMOOTH",
"173 57 OFFCURVE",
"150 96 OFFCURVE",
"150 139 CURVE SMOOTH",
"150 198 OFFCURVE",
"194 257 OFFCURVE",
"356 257 CURVE SMOOTH",
"447 257 OFFCURVE",
"555 238 OFFCURVE",
"555 149 CURVE SMOOTH",
"555 106 OFFCURVE",
"530 57 OFFCURVE",
"477 57 CURVE SMOOTH",
"440 57 OFFCURVE",
"423 81 OFFCURVE",
"423 118 CURVE SMOOTH",
"423 241 OFFCURVE",
"623 356 OFFCURVE",
"623 465 CURVE SMOOTH",
"623 540 OFFCURVE",
"531 561 OFFCURVE",
"437 561 CURVE SMOOTH",
"278 561 OFFCURVE",
"165 507 OFFCURVE",
"165 417 CURVE SMOOTH",
"165 386 OFFCURVE",
"178 359 OFFCURVE",
"211 336 CURVE",
"278 363 LINE",
"263 378 OFFCURVE",
"255 395 OFFCURVE",
"255 412 CURVE SMOOTH",
"255 467 OFFCURVE",
"335 494 OFFCURVE",
"418 494 CURVE SMOOTH",
"486 494 OFFCURVE",
"534 476 OFFCURVE",
"534 443 CURVE SMOOTH",
"534 376 OFFCURVE",
"333 245 OFFCURVE",
"333 109 CURVE SMOOTH",
"333 40 OFFCURVE",
"380 -10 OFFCURVE",
"472 -10 CURVE SMOOTH",
"585 -10 OFFCURVE",
"645 65 OFFCURVE",
"645 145 CURVE SMOOTH",
"645 260 OFFCURVE",
"525 324 OFFCURVE",
"364 324 CURVE SMOOTH",
"172 324 OFFCURVE",
"60 228 OFFCURVE",
"60 124 CURVE SMOOTH",
"60 48 OFFCURVE",
"119 -10 OFFCURVE",
"193 -10 CURVE SMOOTH",
"237 -10 OFFCURVE",
"272 11 OFFCURVE",
"292 26 CURVE"
);
}
);
width = 705;
}
);
script = chakma;
category = Letter;
subCategory = Other;
},
{
glyphname = jaa_chakma.alt;
lastChange = "2018-05-08 16:47:40 +0000";
layers = (
{
layerId = "1D72C4DB-D20D-420D-B086-1F84B9DB7C9C";
paths = (
{
closed = 1;
nodes = (
"607 189 OFFCURVE",
"582 241 OFFCURVE",
"524 260 CURVE",
"524 246 LINE",
"581 273 OFFCURVE",
"602 316 OFFCURVE",
"602 366 CURVE SMOOTH",
"602 505 OFFCURVE",
"443 550 OFFCURVE",
"334 550 CURVE SMOOTH",
"198 550 OFFCURVE",
"70 483 OFFCURVE",
"70 375 CURVE SMOOTH",
"70 300 OFFCURVE",
"134 254 OFFCURVE",
"203 254 CURVE SMOOTH",
"287 254 OFFCURVE",
"338 320 OFFCURVE",
"338 378 CURVE SMOOTH",
"338 431 OFFCURVE",
"296 480 OFFCURVE",
"225 480 CURVE SMOOTH",
"182.258 480 OFFCURVE",
"146.58 462.611 OFFCURVE",
"117.116 441.854 CURVE",
"110.604 401.855 LINE",
"137.071 418.775 OFFCURVE",
"169.141 431 OFFCURVE",
"202 431 CURVE SMOOTH",
"242 431 OFFCURVE",
"268 413 OFFCURVE",
"268 377 CURVE SMOOTH",
"268 342 OFFCURVE",
"242 321 OFFCURVE",
"213 321 CURVE SMOOTH",
"183 321 OFFCURVE",
"156 342 OFFCURVE",
"156 376 CURVE SMOOTH",
"156 433 OFFCURVE",
"231 483 OFFCURVE",
"337 483 CURVE SMOOTH",
"407 483 OFFCURVE",
"512 460 OFFCURVE",
"512 371 CURVE SMOOTH",
"512 307 OFFCURVE",
"460 287 OFFCURVE",
"420 287 CURVE SMOOTH",
"412 287 LINE",
"412 220 LINE",
"423 220 LINE SMOOTH",
"476 220 OFFCURVE",
"517 184 OFFCURVE",
"517 138 CURVE SMOOTH",
"517 71 OFFCURVE",
"431 7 OFFCURVE",
"309 7 CURVE SMOOTH",
"224 7 OFFCURVE",
"147 38 OFFCURVE",
"147 86 CURVE SMOOTH",
"147 112 OFFCURVE",
"169 132 OFFCURVE",
"204 132 CURVE SMOOTH",
"288 132 OFFCURVE",
"374 16 OFFCURVE",
"384 -122 CURVE",
"460 -122 LINE",
"440 20 OFFCURVE",
"364 196 OFFCURVE",
"195 196 CURVE SMOOTH",
"95 196 OFFCURVE",
"57 139 OFFCURVE",
"57 86 CURVE SMOOTH",
"57 -11 OFFCURVE",
"185 -60 OFFCURVE",
"305 -60 CURVE SMOOTH",
"475 -60 OFFCURVE",
"607 32 OFFCURVE",
"607 140 CURVE SMOOTH"
);
}
);
width = 646;
}
);
script = chakma;
category = Letter;
subCategory = Other;
},
{
glyphname = nnaa_chakma.alt;
lastChange = "2018-05-08 16:47:15 +0000";
layers = (
{
layerId = "1D72C4DB-D20D-420D-B086-1F84B9DB7C9C";
paths = (
{
closed = 1;
nodes = (
"155 267 LINE",
"138 305 OFFCURVE",
"131 333 OFFCURVE",
"131 369 CURVE SMOOTH",
"131 446 OFFCURVE",
"177 483 OFFCURVE",
"238 483 CURVE SMOOTH",
"303 483 OFFCURVE",
"331 440 OFFCURVE",
"331 374 CURVE SMOOTH",
"331 281 OFFCURVE",
"277 231 OFFCURVE",
"277 152 CURVE SMOOTH",
"277 43 OFFCURVE",
"375 0 OFFCURVE",
"481 0 CURVE SMOOTH",
"591 0 OFFCURVE",
"685 46 OFFCURVE",
"685 154 CURVE SMOOTH",
"685 234 OFFCURVE",
"631 278 OFFCURVE",
"631 372 CURVE SMOOTH",
"631 437 OFFCURVE",
"659 483 OFFCURVE",
"729 483 CURVE SMOOTH",
"782 483 OFFCURVE",
"832 457 OFFCURVE",
"832 376 CURVE SMOOTH",
"832 343 OFFCURVE",
"824 306 OFFCURVE",
"807 268 CURVE",
"887 268 LINE",
"907 308 OFFCURVE",
"917 340 OFFCURVE",
"917 377 CURVE SMOOTH",
"916 475 OFFCURVE",
"845 550 OFFCURVE",
"731 550 CURVE SMOOTH",
"622 550 OFFCURVE",
"544 491 OFFCURVE",
"544 380 CURVE SMOOTH",
"544 288 OFFCURVE",
"597 247 OFFCURVE",
"597 174 CURVE SMOOTH",
"597 91 OFFCURVE",
"534 67 OFFCURVE",
"481 67 CURVE SMOOTH",
"426 67 OFFCURVE",
"365 93 OFFCURVE",
"365 174 CURVE SMOOTH",
"365 249 OFFCURVE",
"418 286 OFFCURVE",
"418 382 CURVE SMOOTH",
"418 491 OFFCURVE",
"347 550 OFFCURVE",
"236 550 CURVE SMOOTH",
"113 550 OFFCURVE",
"46 469 OFFCURVE",
"46 377 CURVE SMOOTH",
"46 344 OFFCURVE",
"55 308 OFFCURVE",
"75 267 CURVE"
);
}
);
width = 964;
}
);
script = chakma;
category = Letter;
subCategory = Other;
},
{
glyphname = naa_chakma.alt;
lastChange = "2018-05-08 16:47:15 +0000";
layers = (
{
layerId = "1D72C4DB-D20D-420D-B086-1F84B9DB7C9C";
paths = (
{
closed = 1;
nodes = (
"192 217 LINE",
"172 268 OFFCURVE",
"165 310 OFFCURVE",
"165 341 CURVE SMOOTH",
"165 430 OFFCURVE",
"221 483 OFFCURVE",
"300 483 CURVE SMOOTH",
"409 483 OFFCURVE",
"468 383 OFFCURVE",
"468 243 CURVE SMOOTH",
"468 187 OFFCURVE",
"460 68 OFFCURVE",
"412 68 CURVE SMOOTH",
"381 68 OFFCURVE",
"351 114 OFFCURVE",
"351 165 CURVE SMOOTH",
"351 248 OFFCURVE",
"429 291 OFFCURVE",
"511 291 CURVE SMOOTH",
"593 291 OFFCURVE",
"674 249 OFFCURVE",
"674 166 CURVE SMOOTH",
"674 118 OFFCURVE",
"647 67 OFFCURVE",
"612 67 CURVE SMOOTH",
"563 67 OFFCURVE",
"556 172 OFFCURVE",
"556 243 CURVE SMOOTH",
"556 383 OFFCURVE",
"620 483 OFFCURVE",
"724 483 CURVE SMOOTH",
"809 483 OFFCURVE",
"856 413 OFFCURVE",
"856 324 CURVE SMOOTH",
"856 288 OFFCURVE",
"848 254 OFFCURVE",
"833 218 CURVE",
"912 218 LINE",
"937 262 OFFCURVE",
"943 308 OFFCURVE",
"943 344 CURVE SMOOTH",
"943 475 OFFCURVE",
"857 550 OFFCURVE",
"727 550 CURVE SMOOTH",
"566 550 OFFCURVE",
"468 434 OFFCURVE",
"468 232 CURVE SMOOTH",
"468 100 OFFCURVE",
"514 0 OFFCURVE",
"615 0 CURVE SMOOTH",
"705 0 OFFCURVE",
"764 62 OFFCURVE",
"764 162 CURVE SMOOTH",
"764 277 OFFCURVE",
"649 358 OFFCURVE",
"511 358 CURVE SMOOTH",
"373 358 OFFCURVE",
"261 272 OFFCURVE",
"261 162 CURVE SMOOTH",
"261 54 OFFCURVE",
"331 0 OFFCURVE",
"415 0 CURVE SMOOTH",
"508 0 OFFCURVE",
"556 89 OFFCURVE",
"556 231 CURVE SMOOTH",
"556 437 OFFCURVE",
"454 550 OFFCURVE",
"300 550 CURVE SMOOTH",
"176 550 OFFCURVE",
"82 473 OFFCURVE",
"82 340 CURVE SMOOTH",
"82 309 OFFCURVE",
"87 263 OFFCURVE",
"113 217 CURVE"
);
}
);
width = 991;
}
);
script = chakma;
category = Letter;
subCategory = Other;
},
{
glyphname = yaa_chakma.alt;
lastChange = "2018-05-08 16:47:40 +0000";
layers = (
{
layerId = "1D72C4DB-D20D-420D-B086-1F84B9DB7C9C";
paths = (
{
closed = 1;
nodes = (
"244 345 LINE",
"192 355 OFFCURVE",
"170 390 OFFCURVE",
"170 425 CURVE SMOOTH",
"170 466 OFFCURVE",
"200 492 OFFCURVE",
"237 492 CURVE SMOOTH",
"251 492 OFFCURVE",
"271 488 OFFCURVE",
"292 473 CURVE",
"330 533 LINE",
"312 543 OFFCURVE",
"285 556 OFFCURVE",
"242 556 CURVE SMOOTH",
"153 556 OFFCURVE",
"80 496 OFFCURVE",
"80 417 CURVE SMOOTH",
"80 353 OFFCURVE",
"129 312 OFFCURVE",
"199 291 CURVE"
);
},
{
closed = 1;
nodes = (
"257 419 OFFCURVE",
"86 303 OFFCURVE",
"86 149 CURVE SMOOTH",
"86 35 OFFCURVE",
"189 -10 OFFCURVE",
"284 -10 CURVE SMOOTH",
"407 -10 OFFCURVE",
"482 65 OFFCURVE",
"516 149 CURVE",
"449 158 LINE",
"424 98 OFFCURVE",
"366 57 OFFCURVE",
"296 57 CURVE SMOOTH",
"236 57 OFFCURVE",
"176 87 OFFCURVE",
"176 163 CURVE SMOOTH",
"176 269 OFFCURVE",
"286 352 OFFCURVE",
"372 352 CURVE SMOOTH",
"407 352 OFFCURVE",
"418 338 OFFCURVE",
"418 324 CURVE SMOOTH",
"418 306 OFFCURVE",
"401 290 OFFCURVE",
"383 280 CURVE",
"416 233 LINE",
"451 253 OFFCURVE",
"508 296 OFFCURVE",
"508 345 CURVE SMOOTH",
"508 384 OFFCURVE",
"472 419 OFFCURVE",
"398 419 CURVE SMOOTH"
);
}
);
width = 605;
}
);
script = chakma;
category = Letter;
subCategory = Other;
},
{
glyphname = yaa_chakma.alt2;
lastChange = "2018-05-08 16:47:40 +0000";
layers = (
{
layerId = "1D72C4DB-D20D-420D-B086-1F84B9DB7C9C";
paths = (
{
closed = 1;
nodes = (
"365 140 LINE",
"383 127 OFFCURVE",
"409 116 OFFCURVE",
"440 116 CURVE SMOOTH",
"502 116 OFFCURVE",
"565 159 OFFCURVE",
"565 231 CURVE SMOOTH",
"565 309 OFFCURVE",
"489 357 OFFCURVE",
"396 357 CURVE SMOOTH",
"223 357 OFFCURVE",
"103 177 OFFCURVE",
"60 10 CURVE",
"150 -10 LINE",
"173 106 OFFCURVE",
"261 290 OFFCURVE",
"392 290 CURVE SMOOTH",
"431 290 OFFCURVE",
"475 274 OFFCURVE",
"475 229 CURVE SMOOTH",
"475 205 OFFCURVE",
"462 177 OFFCURVE",
"432 177 CURVE SMOOTH",
"416 177 OFFCURVE",
"400 185 OFFCURVE",
"389 192 CURVE"
);
},
{
closed = 1;
nodes = (
"333 523 LINE",
"315 533 OFFCURVE",
"288 546 OFFCURVE",
"247 546 CURVE SMOOTH",
"152 546 OFFCURVE",
"71 475 OFFCURVE",
"71 384 CURVE SMOOTH",
"71 303 OFFCURVE",
"133 248 OFFCURVE",
"217 248 CURVE SMOOTH",
"232.757 248 OFFCURVE",
"248.515 249.93 OFFCURVE",
"263.712 253.003 CURVE",
"328.966 316.456 LINE",
"309.211 309.617 OFFCURVE",
"287.347 306 OFFCURVE",
"266 306 CURVE SMOOTH",
"202 306 OFFCURVE",
"153 338 OFFCURVE",
"153 397 CURVE SMOOTH",
"153 451 OFFCURVE",
"193 482 OFFCURVE",
"238 482 CURVE SMOOTH",
"254 482 OFFCURVE",
"275 478 OFFCURVE",
"295 463 CURVE"
);
}
);
width = 625;
}
);
script = chakma;
category = Letter;
subCategory = Other;
},
{
glyphname = uMatra_chakma.alt;
lastChange = "2018-05-08 16:46:37 +0000";
layers = (
{
layerId = "1D72C4DB-D20D-420D-B086-1F84B9DB7C9C";
paths = (
{
closed = 1;
nodes = (
"-166 -186 LINE",
"-235 -186 LINE",
"-235 142 LINE",
"-317 91 LINE",
"-317 -263 LINE",
"-166 -263 LINE"
);
}
);
width = 0;
}
);
script = "";
category = Mark;
subCategory = Nonspacing;
},
{
glyphname = uuMatra_chakma.alt;
lastChange = "2018-05-08 16:46:37 +0000";
layers = (
{
layerId = "1D72C4DB-D20D-420D-B086-1F84B9DB7C9C";
paths = (
{
closed = 1;
nodes = (
"-153 -273 LINE",
"-264 52 LINE",
"-378 52 LINE",
"-489 -273 LINE",
"-407 -273 LINE",
"-318 6 LINE",
"-334 -5 LINE",
"-308 -5 LINE",
"-324 6 LINE",
"-235 -273 LINE"
);
}
);
width = 0;
}
);
script = "";
category = Mark;
subCategory = Nonspacing;
},
{
glyphname = eMatra_chakma.alt;
lastChange = "2018-05-08 16:46:17 +0000";
layers = (
{
guideLines = (
{
angle = -59.3227;
position = "{286, 553}";
}
);
layerId = "1D72C4DB-D20D-420D-B086-1F84B9DB7C9C";
paths = (
{
closed = 1;
nodes = (
"303 11 LINE",
"251 36 OFFCURVE",
"150 101 OFFCURVE",
"150 267 CURVE SMOOTH",
"150 433 OFFCURVE",
"251 498 OFFCURVE",
"303 523 CURVE",
"268 582 LINE",
"184 553 OFFCURVE",
"60 470 OFFCURVE",
"60 268 CURVE SMOOTH",
"60 66 OFFCURVE",
"185 -20 OFFCURVE",
"269 -49 CURVE"
);
}
);
width = 250;
}
);
leftMetricsKey = eMatra_chakma;
script = "";
category = Letter;
subCategory = Spacing;
},
{
glyphname = doubleEMatra_chakma.alt;
lastChange = "2018-05-08 16:46:17 +0000";
layers = (
{
components = (
{
name = eMatra_chakma.alt;
transform = "{1, 0, 0, 1, 180, 0}";
}
);
layerId = "1D72C4DB-D20D-420D-B086-1F84B9DB7C9C";
paths = (
{
closed = 1;
nodes = (
"263 1 LINE",
"237 20 OFFCURVE",
"150 91 OFFCURVE",
"150 267 CURVE SMOOTH",
"150 443 OFFCURVE",
"243 517 OFFCURVE",
"263 533 CURVE",
"228 592 LINE",
"184 566 OFFCURVE",
"60 480 OFFCURVE",
"60 268 CURVE SMOOTH",
"60 56 OFFCURVE",
"185 -30 OFFCURVE",
"229 -59 CURVE"
);
}
);
width = 472;
}
);
script = "";
category = Letter;
subCategory = Spacing;
},
{
glyphname = section_chakma.alt;
lastChange = "2018-05-08 16:46:17 +0000";
layers = (
{
layerId = "1D72C4DB-D20D-420D-B086-1F84B9DB7C9C";
paths = (
{
closed = 1;
nodes = (
"519 629 LINE",
"328 617 OFFCURVE",
"201 472 OFFCURVE",
"201 311 CURVE SMOOTH",
"201 162 OFFCURVE",
"330 44 OFFCURVE",
"508 44 CURVE SMOOTH",
"690 44 OFFCURVE",
"809 168 OFFCURVE",
"809 316 CURVE SMOOTH",
"809 407 OFFCURVE",
"736 511 OFFCURVE",
"589 511 CURVE SMOOTH",
"455 511 OFFCURVE",
"354 424 OFFCURVE",
"354 321 CURVE SMOOTH",
"354 232 OFFCURVE",
"428 177 OFFCURVE",
"513 177 CURVE SMOOTH",
"600 177 OFFCURVE",
"655 239 OFFCURVE",
"655 302 CURVE SMOOTH",
"655 355 OFFCURVE",
"615 389 OFFCURVE",
"564 389 CURVE SMOOTH",
"506 389 OFFCURVE",
"473 346 OFFCURVE",
"460 311 CURVE",
"501 294 LINE",
"511 313 OFFCURVE",
"524 339 OFFCURVE",
"555 339 CURVE SMOOTH",
"582 339 OFFCURVE",
"596 319 OFFCURVE",
"596 295 CURVE SMOOTH",
"596 260 OFFCURVE",
"567 229 OFFCURVE",
"515 229 CURVE SMOOTH",
"451 229 OFFCURVE",
"418 271 OFFCURVE",
"418 321 CURVE SMOOTH",
"418 398 OFFCURVE",
"493 451 OFFCURVE",
"584 451 CURVE SMOOTH",
"678 451 OFFCURVE",
"729 394 OFFCURVE",
"729 314 CURVE SMOOTH",
"729 213 OFFCURVE",
"646 111 OFFCURVE",
"512 111 CURVE SMOOTH",
"387 111 OFFCURVE",
"281 195 OFFCURVE",
"281 323 CURVE SMOOTH",
"281 461 OFFCURVE",
"391 563 OFFCURVE",
"527 571 CURVE"
);
},
{
closed = 1;
nodes = (
"321 552 LINE",
"272 594 OFFCURVE",
"232 612 OFFCURVE",
"191 612 CURVE SMOOTH",
"121 612 OFFCURVE",
"68 560 OFFCURVE",
"68 512 CURVE SMOOTH",
"68 481 OFFCURVE",
"91 458 OFFCURVE",
"119 458 CURVE SMOOTH",
"147 458 OFFCURVE",
"170 481 OFFCURVE",
"170 511 CURVE SMOOTH",
"170 541 OFFCURVE",
"147 556 OFFCURVE",
"127 556 CURVE SMOOTH",
"114 556 OFFCURVE",
"101 549 OFFCURVE",
"89 536 CURVE",
"101 485 LINE",
"108 517 OFFCURVE",
"141 554 OFFCURVE",
"182 554 CURVE SMOOTH",
"210 554 OFFCURVE",
"245 537 OFFCURVE",
"288 501 CURVE"
);
},
{
closed = 1;
nodes = (
"262 280 LINE",
"238 285 OFFCURVE",
"210 288 OFFCURVE",
"191 288 CURVE SMOOTH",
"101 288 OFFCURVE",
"50 225 OFFCURVE",
"50 166 CURVE SMOOTH",
"50 126 OFFCURVE",
"73 103 OFFCURVE",
"101 103 CURVE SMOOTH",
"129 103 OFFCURVE",
"152 126 OFFCURVE",
"152 154 CURVE SMOOTH",
"152 182 OFFCURVE",
"128 204 OFFCURVE",
"103 204 CURVE SMOOTH",
"83 204 OFFCURVE",
"69 189 OFFCURVE",
"62 165 CURVE",
"92 121 LINE",
"88 135 OFFCURVE",
"88 152 OFFCURVE",
"94 172 CURVE SMOOTH",
"105 207 OFFCURVE",
"131 230 OFFCURVE",
"183 230 CURVE SMOOTH",
"200 230 OFFCURVE",
"226 227 OFFCURVE",
"250 222 CURVE"
);
},
{
closed = 1;
nodes = (
"420 87 LINE",
"401 46 OFFCURVE",
"391 12 OFFCURVE",
"391 -19 CURVE SMOOTH",
"391 -92 OFFCURVE",
"444 -146 OFFCURVE",
"501 -146 CURVE SMOOTH",
"539 -146 OFFCURVE",
"560 -123 OFFCURVE",
"560 -96 CURVE SMOOTH",
"560 -67 OFFCURVE",
"537 -44 OFFCURVE",
"509 -44 CURVE SMOOTH",
"481 -44 OFFCURVE",
"458 -68 OFFCURVE",
"458 -94 CURVE SMOOTH",
"458 -116 OFFCURVE",
"473 -128 OFFCURVE",
"487 -133 CURVE",
"537 -112 LINE",
"492 -112 OFFCURVE",
"448 -81 OFFCURVE",
"448 -27 CURVE SMOOTH",
"448 -3 OFFCURVE",
"457 28 OFFCURVE",
"475 66 CURVE"
);
},
{
closed = 1;
nodes = (
"679 107 LINE",
"713 19 OFFCURVE",
"765 -22 OFFCURVE",
"822 -22 CURVE SMOOTH",
"867 -22 OFFCURVE",
"920 6 OFFCURVE",
"920 51 CURVE SMOOTH",
"920 81 OFFCURVE",
"897 104 OFFCURVE",
"869 104 CURVE SMOOTH",
"841 104 OFFCURVE",
"818 81 OFFCURVE",
"818 53 CURVE SMOOTH",
"818 30 OFFCURVE",
"833 7 OFFCURVE",
"859 7 CURVE SMOOTH",
"867 7 OFFCURVE",
"875 9 OFFCURVE",
"884 12 CURVE",
"893 67 LINE",
"878 55 OFFCURVE",
"850 35 OFFCURVE",
"821 35 CURVE SMOOTH",
"773 35 OFFCURVE",
"739 88 OFFCURVE",
"721 142 CURVE"
);
},
{
closed = 1;
nodes = (
"783 279 LINE",
"821 264 OFFCURVE",
"853 257 OFFCURVE",
"881 257 CURVE SMOOTH",
"956 257 OFFCURVE",
"1013 309 OFFCURVE",
"1013 371 CURVE SMOOTH",
"1013 415 OFFCURVE",
"983 426 OFFCURVE",
"963 426 CURVE SMOOTH",
"933 426 OFFCURVE",
"911 402 OFFCURVE",
"911 376 CURVE SMOOTH",
"911 347 OFFCURVE",
"937 327 OFFCURVE",
"958 327 CURVE SMOOTH",
"982 327 OFFCURVE",
"996 352 OFFCURVE",
"1001 373 CURVE",
"974 410 LINE",
"978 361 OFFCURVE",
"946 315 OFFCURVE",
"892 315 CURVE SMOOTH",
"869 315 OFFCURVE",
"841 320 OFFCURVE",
"801 336 CURVE"
);
},
{
closed = 1;
nodes = (
"684 458 LINE",
"734 506 OFFCURVE",
"758 554 OFFCURVE",
"758 600 CURVE SMOOTH",
"758 660 OFFCURVE",
"720 709 OFFCURVE",
"669 709 CURVE SMOOTH",
"635 709 OFFCURVE",
"612 686 OFFCURVE",
"612 658 CURVE SMOOTH",
"612 630 OFFCURVE",
"634 607 OFFCURVE",
"663 607 CURVE SMOOTH",
"704 607 OFFCURVE",
"728 651 OFFCURVE",
"692 686 CURVE",
"642 679 LINE",
"675 666 OFFCURVE",
"702 634 OFFCURVE",
"702 600 CURVE SMOOTH",
"702 570 OFFCURVE",
"683 534 OFFCURVE",
"639 492 CURVE"
);
}
);
width = 1063;
}
);
script = "";
category = Symbol;
subCategory = Composition;
},
{
glyphname = uni09E6;
lastChange = "2018-05-08 16:46:17 +0000";
layers = (
{
layerId = "1D72C4DB-D20D-420D-B086-1F84B9DB7C9C";
paths = (
{
closed = 1;
nodes = (
"446 91 OFFCURVE",
"520 193 OFFCURVE",
"520 314 CURVE SMOOTH",
"520 443 OFFCURVE",
"456 544 OFFCURVE",
"300 544 CURVE SMOOTH",
"141 544 OFFCURVE",
"72 431 OFFCURVE",
"72 320 CURVE SMOOTH",
"72 158 OFFCURVE",
"167 91 OFFCURVE",
"290 91 CURVE SMOOTH"
);
},
{
closed = 1;
nodes = (
"393 473 OFFCURVE",
"439 416 OFFCURVE",
"439 324 CURVE SMOOTH",
"439 227 OFFCURVE",
"384 162 OFFCURVE",
"289 162 CURVE SMOOTH",
"191 162 OFFCURVE",
"152 229 OFFCURVE",
"152 311 CURVE SMOOTH",
"152 413 OFFCURVE",
"212 473 OFFCURVE",
"305 473 CURVE SMOOTH"
);
}
);
width = 592;
}
);
unicode = 09E6;
script = bengali;
category = Number;
subCategory = "Decimal Digit";
},
{
glyphname = uni09E7;
lastChange = "2018-05-08 16:46:17 +0000";
layers = (
{
layerId = "1D72C4DB-D20D-420D-B086-1F84B9DB7C9C";
paths = (
{
closed = 1;
nodes = (
"406 0 OFFCURVE",
"495 70 OFFCURVE",
"495 178 CURVE SMOOTH",
"495 277 OFFCURVE",
"455 325 OFFCURVE",
"341 401 CURVE SMOOTH",
"218 483 OFFCURVE",
"206 500 OFFCURVE",
"206 536 CURVE SMOOTH",
"206 558 OFFCURVE",
"219 576 OFFCURVE",
"238 596 CURVE",
"174 631 LINE",
"140 599 OFFCURVE",
"122 560 OFFCURVE",
"122 529 CURVE SMOOTH",
"122 469 OFFCURVE",
"158 435 OFFCURVE",
"287 344 CURVE SMOOTH",
"385 275 OFFCURVE",
"415 240 OFFCURVE",
"415 181 CURVE SMOOTH",
"415 120 OFFCURVE",
"367 75 OFFCURVE",
"286 75 CURVE SMOOTH",
"233 75 OFFCURVE",
"205 93 OFFCURVE",
"205 120 CURVE SMOOTH",
"205 144 OFFCURVE",
"222 157 OFFCURVE",
"263 167 CURVE",
"234 243 LINE",
"153 220 OFFCURVE",
"123 174 OFFCURVE",
"123 122 CURVE SMOOTH",
"123 56 OFFCURVE",
"173 0 OFFCURVE",
"287 0 CURVE SMOOTH"
);
}
);
width = 592;
}
);
unicode = 09E7;
script = bengali;
category = Number;
subCategory = "Decimal Digit";
},
{
glyphname = uni09E8;
lastChange = "2018-05-08 16:46:17 +0000";
layers = (
{
layerId = "1D72C4DB-D20D-420D-B086-1F84B9DB7C9C";
paths = (
{
closed = 1;
nodes = (
"127 483 OFFCURVE",
"173 450 OFFCURVE",
"285 428 CURVE SMOOTH",
"384 409 OFFCURVE",
"419 389 OFFCURVE",
"419 333 CURVE SMOOTH",
"419 273 OFFCURVE",
"370 233 OFFCURVE",
"235 233 CURVE SMOOTH",
"169 233 OFFCURVE",
"126 242 OFFCURVE",
"80 256 CURVE",
"65 185 LINE",
"253 143 OFFCURVE",
"349 104 OFFCURVE",
"507 -26 CURVE",
"553 28 LINE",
"469 98 OFFCURVE",
"377 153 OFFCURVE",
"289 184 CURVE",
"289 170 LINE",
"422 179 OFFCURVE",
"500 247 OFFCURVE",
"500 333 CURVE SMOOTH",
"500 421 OFFCURVE",
"454 469 OFFCURVE",
"322 494 CURVE SMOOTH",
"228 512 OFFCURVE",
"211 521 OFFCURVE",
"211 549 CURVE SMOOTH",
"211 563 OFFCURVE",
"217 579 OFFCURVE",
"233 596 CURVE",
"170 631 LINE",
"141 596 OFFCURVE",
"127 568 OFFCURVE",
"127 539 CURVE SMOOTH"
);
}
);
width = 592;
}
);
unicode = 09E8;
script = bengali;
category = Number;
subCategory = "Decimal Digit";
},
{
glyphname = uni09E9;
lastChange = "2018-05-08 16:46:17 +0000";
layers = (
{
layerId = "1D72C4DB-D20D-420D-B086-1F84B9DB7C9C";
paths = (
{
closed = 1;
nodes = (
"553 450 OFFCURVE",
"476 579 OFFCURVE",
"337 579 CURVE SMOOTH",
"280 579 OFFCURVE",
"207 551 OFFCURVE",
"207 467 CURVE SMOOTH",
"207 437 OFFCURVE",
"215 402 OFFCURVE",
"231 369 CURVE",
"311 390 LINE",
"297 417 OFFCURVE",
"292 436 OFFCURVE",
"292 458 CURVE SMOOTH",
"292 490 OFFCURVE",
"312 509 OFFCURVE",
"347 509 CURVE SMOOTH",
"417 509 OFFCURVE",
"473 417 OFFCURVE",
"473 295 CURVE SMOOTH",
"473 194 OFFCURVE",
"441 114 OFFCURVE",
"342 114 CURVE SMOOTH",
"228 114 OFFCURVE",
"163 210 OFFCURVE",
"103 510 CURVE",
"29 490 LINE",
"96 117 OFFCURVE",
"204 39 OFFCURVE",
"347 39 CURVE SMOOTH",
"495 39 OFFCURVE",
"553 151 OFFCURVE",
"553 295 CURVE SMOOTH"
);
}
);
width = 592;
}
);
unicode = 09E9;
script = bengali;
category = Number;
subCategory = "Decimal Digit";
},
{
glyphname = uni09EA;
lastChange = "2018-05-08 16:46:17 +0000";
layers = (
{
layerId = "1D72C4DB-D20D-420D-B086-1F84B9DB7C9C";
paths = (
{
closed = 1;
nodes = (
"450 0 OFFCURVE",
"530 57 OFFCURVE",
"530 174 CURVE SMOOTH",
"530 262 OFFCURVE",
"469 305 OFFCURVE",
"365 341 CURVE",
"368 321 LINE",
"453 353 OFFCURVE",
"519 392 OFFCURVE",
"519 476 CURVE SMOOTH",
"519 547 OFFCURVE",
"460 622 OFFCURVE",
"290 622 CURVE SMOOTH",
"152 622 OFFCURVE",
"74 551 OFFCURVE",
"74 471 CURVE SMOOTH",
"74 395 OFFCURVE",
"122 359 OFFCURVE",
"229 312 CURVE",
"229 337 LINE",
"113 297 OFFCURVE",
"62 245 OFFCURVE",
"62 174 CURVE SMOOTH",
"62 68 OFFCURVE",
"147 0 OFFCURVE",
"296 0 CURVE SMOOTH"
);
},
{
closed = 1;
nodes = (
"194 71 OFFCURVE",
"143 114 OFFCURVE",
"143 169 CURVE SMOOTH",
"143 228 OFFCURVE",
"195 266 OFFCURVE",
"296 292 CURVE",
"372 276 OFFCURVE",
"450 236 OFFCURVE",
"450 173 CURVE SMOOTH",
"450 111 OFFCURVE",
"403 71 OFFCURVE",
"296 71 CURVE SMOOTH"
);
},
{
closed = 1;
nodes = (
"196 389 OFFCURVE",
"154 421 OFFCURVE",
"154 471 CURVE SMOOTH",
"154 524 OFFCURVE",
"221 551 OFFCURVE",
"291 551 CURVE SMOOTH",
"388 551 OFFCURVE",
"438 519 OFFCURVE",
"438 471 CURVE SMOOTH",
"438 419 OFFCURVE",
"366 380 OFFCURVE",
"297 363 CURVE"
);
}
);
width = 592;
}
);
unicode = 09EA;
script = bengali;
category = Number;
subCategory = "Decimal Digit";
},
{
glyphname = uni09EB;
lastChange = "2018-05-08 16:46:17 +0000";
layers = (
{
layerId = "1D72C4DB-D20D-420D-B086-1F84B9DB7C9C";
paths = (
{
closed = 1;
nodes = (
"408 0 OFFCURVE",
"496 23 OFFCURVE",
"561 62 CURVE",
"528 146 LINE",
"519 145 OFFCURVE",
"505 144 OFFCURVE",
"492 144 CURVE SMOOTH",
"414 144 OFFCURVE",
"392 183 OFFCURVE",
"392 221 CURVE SMOOTH",
"392 288 OFFCURVE",
"454 338 OFFCURVE",
"566 400 CURVE",
"533 456 LINE",
"528 455 OFFCURVE",
"522 455 OFFCURVE",
"518 455 CURVE SMOOTH",
"468 455 OFFCURVE",
"434 480 OFFCURVE",
"434 519 CURVE SMOOTH",
"434 539 OFFCURVE",
"439 557 OFFCURVE",
"453 575 CURVE",
"414 629 LINE",
"190 523 OFFCURVE",
"49 408 OFFCURVE",
"49 248 CURVE SMOOTH",
"49 89 OFFCURVE",
"160 0 OFFCURVE",
"313 0 CURVE SMOOTH"
);
},
{
closed = 1;
nodes = (
"226 71 OFFCURVE",
"130 113 OFFCURVE",
"130 238 CURVE SMOOTH",
"130 360 OFFCURVE",
"234 459 OFFCURVE",
"384 533 CURVE",
"375 547 LINE",
"369 535 OFFCURVE",
"367 522 OFFCURVE",
"367 507 CURVE SMOOTH",
"367 456 OFFCURVE",
"403 409 OFFCURVE",
"473 401 CURVE",
"475 426 LINE",
"369 358 OFFCURVE",
"316 300 OFFCURVE",
"316 222 CURVE SMOOTH",
"316 152 OFFCURVE",
"360 101 OFFCURVE",
"458 89 CURVE",
"460 91 LINE",
"412 78 OFFCURVE",
"383 71 OFFCURVE",
"320 71 CURVE SMOOTH"
);
}
);
width = 592;
}
);
unicode = 09EB;
script = bengali;
category = Number;
subCategory = "Decimal Digit";
},
{
glyphname = uni09EC;
lastChange = "2018-05-08 16:46:17 +0000";
layers = (
{
layerId = "1D72C4DB-D20D-420D-B086-1F84B9DB7C9C";
paths = (
{
closed = 1;
nodes = (
"493 39 OFFCURVE",
"559 137 OFFCURVE",
"559 268 CURVE SMOOTH",
"559 328 OFFCURVE",
"536 402 OFFCURVE",
"499 452 CURVE",
"443 438 LINE",
"410 348 OFFCURVE",
"380 328 OFFCURVE",
"348 328 CURVE SMOOTH",
"341 328 OFFCURVE",
"330 330 OFFCURVE",
"321 340 CURVE SMOOTH",
"313 349 OFFCURVE",
"312 365 OFFCURVE",
"312 387 CURVE SMOOTH",
"312 471 LINE SMOOTH",
"312 511 OFFCURVE",
"305 541 OFFCURVE",
"286 560 CURVE SMOOTH",
"265 581 OFFCURVE",
"230 591 OFFCURVE",
"175 593 CURVE",
"166 517 LINE",
"225 515 OFFCURVE",
"235 500 OFFCURVE",
"235 451 CURVE SMOOTH",
"235 400 LINE SMOOTH",
"235 328 OFFCURVE",
"250 301 OFFCURVE",
"270 282 CURVE SMOOTH",
"288 265 OFFCURVE",
"312 257 OFFCURVE",
"340 257 CURVE SMOOTH",
"406 257 OFFCURVE",
"455 303 OFFCURVE",
"489 392 CURVE",
"449 391 LINE",
"461 370 OFFCURVE",
"483 329 OFFCURVE",
"483 271 CURVE SMOOTH",
"483 167 OFFCURVE",
"428 114 OFFCURVE",
"342 114 CURVE SMOOTH",
"226 114 OFFCURVE",
"152 212 OFFCURVE",
"96 475 CURVE",
"21 452 LINE",
"96 129 OFFCURVE",
"208 39 OFFCURVE",
"347 39 CURVE SMOOTH"
);
}
);
width = 592;
}
);
unicode = 09EC;
script = bengali;
category = Number;
subCategory = "Decimal Digit";
},
{
glyphname = uni09ED;
lastChange = "2018-05-08 16:46:17 +0000";
layers = (
{
layerId = "1D72C4DB-D20D-420D-B086-1F84B9DB7C9C";
paths = (
{
closed = 1;
nodes = (
"383 301 LINE",
"383 122 LINE",
"383 39 OFFCURVE",
"413 4 OFFCURVE",
"520 0 CURVE",
"528 77 LINE",
"469 79 OFFCURVE",
"459 93 OFFCURVE",
"459 143 CURVE SMOOTH",
"459 455 LINE SMOOTH",
"459 529 OFFCURVE",
"442 559 OFFCURVE",
"415 584 CURVE SMOOTH",
"385 611 OFFCURVE",
"345 622 OFFCURVE",
"297 622 CURVE SMOOTH",
"183 622 OFFCURVE",
"70 530 OFFCURVE",
"70 411 CURVE SMOOTH",
"70 309 OFFCURVE",
"137 248 OFFCURVE",
"268 248 CURVE SMOOTH",
"320 248 OFFCURVE",
"379 260 OFFCURVE",
"432 286 CURVE"
);
},
{
closed = 1;
nodes = (
"204 322 OFFCURVE",
"151 342 OFFCURVE",
"151 406 CURVE SMOOTH",
"151 489 OFFCURVE",
"228 551 OFFCURVE",
"297 551 CURVE SMOOTH",
"327 551 OFFCURVE",
"347 544 OFFCURVE",
"361 530 CURVE SMOOTH",
"379 511 OFFCURVE",
"382 488 OFFCURVE",
"382 439 CURVE SMOOTH",
"382 338 LINE",
"404 357 LINE",
"359 333 OFFCURVE",
"322 322 OFFCURVE",
"266 322 CURVE SMOOTH"
);
}
);
width = 592;
}
);
unicode = 09ED;
script = bengali;
category = Number;
subCategory = "Decimal Digit";
},
{
glyphname = uni09EE;
lastChange = "2018-05-08 16:46:17 +0000";
layers = (
{
layerId = "1D72C4DB-D20D-420D-B086-1F84B9DB7C9C";
paths = (
{
closed = 1;
nodes = (
"354 0 OFFCURVE",
"448 81 OFFCURVE",
"448 213 CURVE SMOOTH",
"448 250 OFFCURVE",
"438 285 OFFCURVE",
"418 312 CURVE",
"398 297 LINE",
"414 293 OFFCURVE",
"430 292 OFFCURVE",
"442 292 CURVE SMOOTH",
"504 292 OFFCURVE",
"560 316 OFFCURVE",
"586 383 CURVE",
"514 418 LINE",
"488 370 OFFCURVE",
"458 360 OFFCURVE",
"408 360 CURVE SMOOTH",
"374 360 OFFCURVE",
"346 366 OFFCURVE",
"313 372 CURVE SMOOTH",
"300 374 OFFCURVE",
"295 375 OFFCURVE",
"269 375 CURVE SMOOTH",
"247 375 OFFCURVE",
"208 370 OFFCURVE",
"167 355 CURVE",
"167 501 LINE SMOOTH",
"167 544 OFFCURVE",
"159 575 OFFCURVE",
"136 595 CURVE SMOOTH",
"115 613 OFFCURVE",
"82 622 OFFCURVE",
"31 624 CURVE",
"22 547 LINE",
"81 545 OFFCURVE",
"91 530 OFFCURVE",
"91 481 CURVE SMOOTH",
"91 164 LINE SMOOTH",
"91 95 OFFCURVE",
"105 66 OFFCURVE",
"132 38 CURVE SMOOTH",
"153 16 OFFCURVE",
"185 0 OFFCURVE",
"237 0 CURVE SMOOTH"
);
},
{
closed = 1;
nodes = (
"207 71 OFFCURVE",
"193 81 OFFCURVE",
"184 92 CURVE SMOOTH",
"175 104 OFFCURVE",
"167 124 OFFCURVE",
"167 168 CURVE SMOOTH",
"167 281 LINE",
"198 295 OFFCURVE",
"230 304 OFFCURVE",
"274 304 CURVE SMOOTH",
"317 304 OFFCURVE",
"368 286 OFFCURVE",
"368 212 CURVE SMOOTH",
"368 145 OFFCURVE",
"326 71 OFFCURVE",
"238 71 CURVE SMOOTH"
);
}
);
width = 592;
}
);
unicode = 09EE;
script = bengali;
category = Number;
subCategory = "Decimal Digit";
},
{
glyphname = uni09EF;
lastChange = "2018-05-08 16:46:17 +0000";
layers = (
{
layerId = "1D72C4DB-D20D-420D-B086-1F84B9DB7C9C";
paths = (
{
closed = 1;
nodes = (
"78 315 OFFCURVE",
"27 271 OFFCURVE",
"27 207 CURVE SMOOTH",
"27 182 OFFCURVE",
"33 159 OFFCURVE",
"44 135 CURVE",
"120 152 LINE",
"112 165 OFFCURVE",
"108 183 OFFCURVE",
"108 196 CURVE SMOOTH",
"108 224 OFFCURVE",
"127 245 OFFCURVE",
"175 245 CURVE SMOOTH",
"229 245 OFFCURVE",
"257 214 OFFCURVE",
"257 169 CURVE SMOOTH",
"257 120 OFFCURVE",
"221 89 OFFCURVE",
"161 68 CURVE",
"183 0 LINE",
"197 0 LINE SMOOTH",
"390 0 OFFCURVE",
"558 53 OFFCURVE",
"558 216 CURVE SMOOTH",
"558 315 OFFCURVE",
"517 389 OFFCURVE",
"308 446 CURVE SMOOTH",
"135 493 OFFCURVE",
"118 513 OFFCURVE",
"118 549 CURVE SMOOTH",
"118 561 OFFCURVE",
"127 577 OFFCURVE",
"146 596 CURVE",
"83 631 LINE",
"48 599 OFFCURVE",
"35 569 OFFCURVE",
"35 536 CURVE SMOOTH",
"35 460 OFFCURVE",
"91 427 OFFCURVE",
"274 375 CURVE SMOOTH",
"437 329 OFFCURVE",
"476 286 OFFCURVE",
"476 214 CURVE SMOOTH",
"476 131 OFFCURVE",
"400 85 OFFCURVE",
"275 72 CURVE",
"278 62 LINE",
"315 95 OFFCURVE",
"333 129 OFFCURVE",
"333 181 CURVE SMOOTH",
"333 259 OFFCURVE",
"266 315 OFFCURVE",
"174 315 CURVE SMOOTH"
);
}
);
width = 592;
}
);
unicode = 09EF;
script = bengali;
category = Number;
subCategory = "Decimal Digit";
},
{
glyphname = uni1040;
lastChange = "2018-05-08 16:46:17 +0000";
layers = (
{
layerId = "1D72C4DB-D20D-420D-B086-1F84B9DB7C9C";
paths = (
{
closed = 1;
nodes = (
"493 -10 OFFCURVE",
"597 114 OFFCURVE",
"597 268 CURVE SMOOTH",
"597 424 OFFCURVE",
"493 546 OFFCURVE",
"326 546 CURVE SMOOTH",
"159 546 OFFCURVE",
"55 424 OFFCURVE",
"55 268 CURVE SMOOTH",
"55 108 OFFCURVE",
"161 -10 OFFCURVE",
"323 -10 CURVE SMOOTH"
);
},
{
closed = 1;
nodes = (
"221 64 OFFCURVE",
"146 143 OFFCURVE",
"146 266 CURVE SMOOTH",
"146 390 OFFCURVE",
"216 472 OFFCURVE",
"327 472 CURVE SMOOTH",
"437 472 OFFCURVE",
"506 389 OFFCURVE",
"506 266 CURVE SMOOTH",
"506 146 OFFCURVE",
"434 64 OFFCURVE",
"326 64 CURVE SMOOTH"
);
}
);
width = 652;
}
);
note = zero_m;
unicode = 1040;
script = myanmar;
category = Number;
subCategory = "Decimal Digit";
},
{
glyphname = uni1041;
lastChange = "2018-05-08 16:46:17 +0000";
layers = (
{
layerId = "1D72C4DB-D20D-420D-B086-1F84B9DB7C9C";
paths = (
{
closed = 1;
nodes = (
"460 -10 OFFCURVE",
"568 108 OFFCURVE",
"568 269 CURVE SMOOTH",
"568 428 OFFCURVE",
"463 546 OFFCURVE",
"297 546 CURVE SMOOTH",
"183 546 OFFCURVE",
"90 482 OFFCURVE",
"55 383 CURVE",
"125 347 LINE",
"158 430 OFFCURVE",
"221 472 OFFCURVE",
"298 472 CURVE SMOOTH",
"407 472 OFFCURVE",
"477 391 OFFCURVE",
"477 270 CURVE SMOOTH",
"477 144 OFFCURVE",
"409 64 OFFCURVE",
"298 64 CURVE SMOOTH",
"221 64 OFFCURVE",
"158 106 OFFCURVE",
"125 189 CURVE",
"55 153 LINE",
"90 55 OFFCURVE",
"183 -10 OFFCURVE",
"297 -10 CURVE SMOOTH"
);
}
);
width = 623;
}
);
note = one_m;
unicode = 1041;
script = myanmar;
category = Number;
subCategory = "Decimal Digit";
},
{
glyphname = uni1042;
lastChange = "2018-05-08 16:46:17 +0000";
layers = (
{
layerId = "1D72C4DB-D20D-420D-B086-1F84B9DB7C9C";
paths = (
{
closed = 1;
nodes = (
"478 -467 OFFCURVE",
"584 -353 OFFCURVE",
"584 -165 CURVE SMOOTH",
"584 536 LINE",
"499 536 LINE",
"499 -168 LINE SMOOTH",
"499 -317 OFFCURVE",
"428 -397 OFFCURVE",
"315 -397 CURVE SMOOTH",
"207 -397 OFFCURVE",
"128 -313 OFFCURVE",
"128 -200 CURVE SMOOTH",
"128 -196 LINE",
"43 -196 LINE",
"43 -198 LINE SMOOTH",
"43 -353 OFFCURVE",
"153 -467 OFFCURVE",
"314 -467 CURVE SMOOTH"
);
}
);
width = 675;
}
);
note = two_m;
unicode = 1042;
script = myanmar;
category = Number;
subCategory = "Decimal Digit";
},
